<?xml version="1.0" encoding="UTF-8"?>
<svg id="Layer_1" xmlns="http://www.w3.org/2000/svg" version="1.1" viewBox="0 0 850.39 204.09">
  <!-- Generator: Adobe Illustrator 30.0.0, SVG Export Plug-In . SVG Version: 2.1.1 Build 123)  -->
  <defs>
    <style>
      .st0 {
        fill: #f15b2d;
      }

      .st1, .st2 {
        fill: #fff;
      }

      .st2, .st3, .st4, .st5, .st6, .st7, .st8 {
        fill-rule: evenodd;
      }

      .st3 {
        fill: #07907c;
      }

      .st4 {
        fill: #ffcf34;
      }

      .st9 {
        fill: #c74c28;
      }

      .st10 {
        fill: none;
        stroke: #fff;
        stroke-miterlimit: 10;
        stroke-width: .77px;
      }

      .st5 {
        fill: #e94839;
      }

      .st11 {
        fill: #dbf0ee;
      }

      .st6 {
        fill: #1c80c2;
      }

      .st7 {
        fill: #f29022;
      }

      .st8 {
        fill: #53ac5f;
      }
    </style>
  </defs>
  <path id="Cladding" class="st0" d="M657.68,48.61H192.71l-23.12,156.45h26.54l16.44-100.01,2.34-14.25h55.29l-1.41,14.25-9.87,100.01h26.54l10.73-100.01,1.53-14.25h69.19l-1.07,14.25-7.47,100.01h26.53l8.34-100.01,1.19-14.25h69.81l-.38,14.25-2.67,100.01h26.54l3.53-100.01.5-14.25h64.95l1.53,14.25,10.74,100.01h26.54l-9.88-100.01-1.4-14.25h51.24l1.8,14.25h.01l12.64,100.01h30.88l-23.13-156.45h0Z"/>
  <path id="SHADOW_Cladding" class="st9" d="M635.48,90.81h-51.24l1.4,14.25h51.64l-1.8-14.25h0ZM393.24,105.05h70.62l.38-14.25h-69.81l-1.19,14.25ZM491.77,90.81l-.5,14.25h66.98l-1.53-14.25h-64.95,0ZM296.19,105.05h69.65l1.07-14.25h-69.19l-1.53,14.25ZM270.21,90.81h-55.29l-2.3,14h0l-16.47,100.25h8.02l15.91-100.01h48.73l1.41-14.25h-.01ZM637.29,105.06h-8.37l10.82,100h10.19l-12.64-100Z"/>
  <g id="_x33_D_LETTERS">
    <path class="st2" d="M419.28,79.71l1.3-21.28h20.48l.07,21.28h-21.85Z"/>
    <g id="LOGO">
      <path class="st3" d="M432.71,63.77s.2-.15.23-.34c0,0-.35-.07-.67.03,0,0-.13.06-.22-.03l.13.21s.21.37.53.13M428.52,62.43c.14-.09.81-.6.81-.6l1.7-1.4-2.14-1.53h-4.08l.48.32s1.29.84,1.98,1.46,1.25,1.75,1.25,1.75"/>
      <path class="st3" d="M430.08,66.64s1.06-.64,1.54-1.01,2.78-2.13,3.06-2.32c0,0-.24-.25-.76-.68-.52-.42-1.56-1.19-1.69-1.26,0,0-2.34,2.94-2.15,5.28M431.65,62.86c.01-.09.08,0,.08,0l.2.33c.16-.09.41-.13.66-.13s.35.14.35.14c0,0,.14.21.22.32s.07.22.07.22c-.07.19-.41.64-.84.37s-.73-1.24-.73-1.24"/>
      <path class="st4" d="M420.65,69.75c.56,1.67.95,2.24,1.52,2.77s1.38.36,1.78.11,1-.62,1.49-2.14c.52-1.62.17-2.94.13-3.16s-.27-.35-.45-.47c-.18-.11-1.36-.69-1.36-.69,0,0-1.58-.69-1.95-.86-.21-.09-.67-.26-1.02-.39l-.24,4.45.1.39h0ZM421.6,68.66c-.04-.14.21-.24.21-.24.49-.23,1.3-.01,1.5.05.21.06.47.13.47.13-.15-.12-.64-.74-.64-.74,0,0-.49-.66-.2-.8s.64-.11.64-.11h.18s.1.12.17.26-.09.19-.17.2-.26.04-.26.04c-.28.11-.2.26.06.57s.81.75.96.98c.16.25-.06.24-.06.24,0,0,0,.03-.53-.16-.76-.28-1.09-.23-1.09-.23.09.09-.02.11-.02.11,0,0-.11,0-.26.04-.15.05-.34.17-.59.09s-.36-.42-.36-.42"/>
      <path class="st7" d="M431.96,70.59s-.05-.04-.06-.05c-.03-.02-.06-.05-.08-.07-1.3-1.08-1.95-2.38-1.95-2.38-1.67.51-3.42-.69-3.52-.74-.1-.06-.46-.27-.46-.27.43.57.59.96.59.96.19.79.09,1.83-.02,2.56s0,.06-.01.09c-.03.22-.07.43-.12.62-.14.55-.35.99-.58,1.34.09.24.2.43.29.58s.02.04.04.06c.04.06.09.12.13.17.05.07.12.14.2.21h.01c.52.48,1.52,1.03,2.89.59.94-.3,1.65-.77,2.14-1.18.16-.15.67-.62,1.26-1.42s.05-.07.08-.1c.07-.1.15-.21.23-.32-.07-.03-.13-.07-.19-.1h-.02c-.06-.03-.13-.07-.18-.1h-.02c-.06-.03-.11-.07-.17-.1-.11-.07-.2-.13-.28-.19t0,0c.08.06-.03-.03-.05-.04h-.01s-.03-.02-.04-.03h-.01l-.03-.03-.03-.03M427.35,71.11c.2-.07.44-.12.75-.18.23-.05.58-.13.68-.08.13.07.13.32.16.45.05.17.13.29.11.43-.47.08-.93.19-1.4.26-.22-.29-.21-.59-.3-.88M431.49,71.72c-.49.1-.99.21-1.49.41.09.27.35.53.35.8-.48.17-.96.23-1.44.37-.33-.32-.41-.63-.54-.94.5-.14.99-.23,1.49-.35-.03-.27-.26-.54-.33-.81.52-.21,1.03-.33,1.54-.42.21.32.34.64.42.96"/>
      <path class="st8" d="M437.78,68.16c-.71.56-1.49.13-1.49.13l-.52-.24c-.06.08-.44.99-.64,1.63-.1.32-.29.73-.52,1.16.07.01.13.02.18.02.08,0,.16,0,.24.01,2.08.04,3.77-1.08,4.42-1.96,1.87-2.53.17-4.98.17-4.98,0,0-.22-.3-.6-.42s-.76-.24-1.6-.11c-.95.15-2.71,1.44-2.71,1.44l-2.08,1.6c-1.55,1.18-2.32,1.5-2.32,1.5.31.99,1.2,1.67,1.87,2.05.09.05.17.09.24.13,0,0,.02,0,.02.01.03.02.07.03.1.05.04.02.07.04.11.05,0,0,.02,0,.02.01.27.12.52.22.75.3.29-.52.53-1.03.64-1.3.2-.46.79-2.17.79-2.17l.09-.08.23.13c.78.56,1.48.32,1.48.32.93-.42,1.01-1.13,1.01-1.13-.49-.24-.85-.21-.85-.21-.2,0-.26-.08-.26-.08l-.61-.76-.02-.1h.28c1.5.06,2.08,1.06,2.31,1.46.22.39-.04,1-.74,1.58M422.44,64.35c.4.18,1.51.7,1.97.97.47.27,1.79,1.07,2.39,1.4.61.32,1.19.43,1.6.44.41,0,.94-.16.94-.16-.57-2.4.77-4.3.77-4.3,0,0-1.52,1.11-1.82,1.35-.31.23-1.54,1.25-1.54,1.25,0,0-.11.18-.24.31s-.19.01-.19.01l-.52-.97c.06-.28,1.43-1.76,1.43-1.76.56-.6.63-.82.63-.82l-.33-.27-1.21-.86-1.23-.84-1.73-1.17h-2.22l-.29,4.99c.73.13,1.35.35,1.6.46M422.28,61.05s-.09-.23.28-.67c0,0,.07-.08.1-.15v-.03s-.28,0-.36.11c-.09.11,0,.29,0,.29v.08s-.06.09-.16-.05c-.09-.14-.32-.54-.05-.69.26-.15.9-.05.97.03l.19.25s.04.05-.07.11c0,0-.66.51-.6.96,0,0,.03.06.36.22,0,0,2.56,1.15,2.76,1.69,0,0-.8-.44-1.19-.67s-1.57-.75-1.57-.75c0,0-.52-.22-.67-.73"/>
      <path class="st6" d="M440.49,58.91h-10.15c.72.51,1.31.95,1.31.95l.85-.71c.15-.13.23.08.23.08l.36.88c.02.12,0,.16,0,.16-.17.17-.31.38-.31.38,0,0,.38.27,1.05.97.76.78,1.13,1.49,1.13,1.49,1.55-1.07,3.11-1.01,4.03-.43.6.37,1.12.89,1.53,1.56v-5.34h-.03ZM437.05,61.65c-.61.14-1.32-.22-2.26-2.02l.11.05s.78,1.06,1.04,1.29.9.42,1.05,0c0,0-.02-.1-.12-.22s-.11-.17-.06-.22.45.23.5.32l.06.09s.28.56-.32.7"/>
      <path class="st5" d="M426.06,73.86s0-.01-.01-.02c-.04-.06-.08-.12-.12-.18,0,0-.05-.07-.05-.08-.13-.22-.23-.49-.28-.75-.16.19-.37.42-.56.56-.01,0-.03.02-.04.03,0,0-.01,0-.02.01-.65.47-1.49.63-2.39.13-1.34-.75-1.91-2.63-2.12-3.53l-.28,4.72h6.75c-.34-.25-.64-.55-.89-.89"/>
      <path class="st3" d="M440.5,69.65c-.48.68-.99,1.05-.99,1.05-2.07,1.55-4.26,1.27-5.29,1.01-.02,0-.03,0-.05-.01h-.02c-.03.06-.07.12-.11.18-.03.06-.06.1-.07.12-.3.47-.72,1.07-1.21,1.59-.43.46-.93.86-1.49,1.17h9.25v-5.11h-.02ZM437.65,74.08c-.48.17-.96.23-1.44.37-.34-.32-.43-.63-.56-.94.5-.14.99-.23,1.49-.35-.04-.27-.27-.54-.35-.81.51-.21,1.02-.33,1.53-.42.22.32.36.64.44.96-.49.1-.99.21-1.48.4.09.27.36.53.37.8"/>
      <path class="st3" d="M439.65,73.86h-1.76v.7l-.02,2.47h-.95v-1.47h-.9l-.02,1.47h-.95v-.8l.02-.65h-4.32l-.02.65-.02.8h-.95l.04-1.47h-.89l-.05,1.47h-.93l.03-.8.02-.65h-2.6l-.03.65-.04.8h-.83l.07-1.47h-.88l-.07,1.47h-.88l.04-.8.03-.65h-2.64l-.04.65-.05.8-.04.66-.05.89-.04.64h2.68l.03-.64h-1.82l.05-.89h17.84v-3.13h.92v4.04h-12.62l-.02.64h13.53v-5.38h-.88.01ZM420.96,76.23h.91l-.04.8h-.92l.05-.8h0ZM426.18,76.23h.93l-.03.8h-.93l.03-.8ZM431.55,76.23h2.62v.8h-2.64l.02-.8h0Z"/>
      <path class="st3" d="M425.19,79.24h.88l.03-.64h-.88l-.03.64ZM423.46,79.24h.94l.03-.64h-.94l-.03.64Z"/>
    </g>
    <path class="st1" d="M533.53,60.25l6.03,13.1h3.07l-5.03-10.82c-.09-.2-.21-.46-.34-.74-.12-.28-.25-.57-.37-.84-.11-.28-.18-.51-.23-.67v-.05l-.25-.28-2.88.31h0ZM591.36,62.58c.48,0,.83-.12,1.01-.37.2-.25.17-.58-.08-1.01s-.63-.78-1.1-1.03-.95-.37-1.44-.37-.81.12-1.01.37-.17.58.08,1.03.61.77,1.09,1.01.97.37,1.44.37h.02-.01ZM604.63,59.95l-2.84.31,7.84,13.1h3.07l-6.53-10.82c-.12-.2-.28-.46-.44-.74-.15-.26-.32-.54-.49-.84-.15-.28-.26-.49-.32-.67v-.05l-.27-.28h-.02,0Z"/>
    <path class="st1" d="M605.93,70.7c-.18-.29-.38-.6-.57-.89-.17-.28-.32-.54-.46-.77l-5.4-9.12h-.32l-2.5.29,4.74,8.08c.26.44.51.81.74,1.12l.03.03h-3.4l-3.5-6h-.32l-2.51.29,2.62,4.56c.26.44.49.81.72,1.12l.03.03h-3.4c-.06-.4-.21-.81-.46-1.24s-.61-.9-1.06-1.36-.89-.83-1.36-1.2-.92-.67-1.32-.92l-.08-.05h-.28c-.26.08-.61.12-1.06.15-.46.03-.92.03-1.4.03h-8.2l.17,1-.84-1.56h-.31l-2.55.29,1.96,3.67c.25.44.46.81.67,1.12,0,0,0,.02.02.03h-1.56c-.43,0-.89-.15-1.4-.48-.52-.32-1.07-.81-1.64-1.45l-3.13-3.46-.49-.21h-.05c-.75,0-1.46.11-2.1.32-.63.21-1.15.54-1.53.95-.4.43-.61.97-.66,1.59-.05.63.15,1.39.58,2.23.09.17.18.34.29.51h-2.85l-3.05-6h-.32l-2.55.29,2.28,4.56c.21.44.43.81.63,1.12,0,0,0,.02.02.03h-1.59c-.44,0-.9-.15-1.38-.46-.51-.32-1.04-.81-1.61-1.45l-3.01-3.46-.49-.21h-.05c-.75,0-1.46.11-2.1.32-.63.21-1.17.54-1.56.95-.4.43-.64.95-.71,1.59-.06.63.11,1.39.51,2.23.29.61.64,1.13,1.04,1.6l.05.05-.05,5,.17.37h3.2l.17-2.2c.41.15.81.26,1.2.34.43.08.83.12,1.18.12s.77-.05,1.15-.15c.38-.09.75-.25,1.09-.41l.06-.03-.21-1.01c.31.17.61.32.92.43.6.21,1.29.32,2.02.32h9.31c.26.14.52.25.77.35.48.18.95.32,1.4.4.43.08.83.12,1.18.12.38,0,.78-.05,1.15-.15.37-.09.74-.25,1.06-.41l.06-.03-.25-1.03c.32.18.64.32.95.43.65.22,1.33.33,2.02.32h28.08c.66,0,1.2-.03,1.63-.09.41-.06.75-.17,1.01-.29l.08-.05-.14-.23-.03-.03c-.14-.17-1.04-1.67-1.24-1.96l.09-.02v.02h0ZM578.25,67.52h8.16c.32,0,.61,0,.87-.03.25-.02.52-.06.81-.11.03,0,.08,0,.11-.02.12.09.25.2.35.32.28.26.49.54.66.83.18.32.21.55.08.72-.09.11-.37.25-1.13.25h-8.86l-1.06-1.96.02-.02h0v.02h0ZM567.98,66.76l2.21,2.34c.34.35.67.66,1,.95-.02,0-.05,0-.06.02-.34.09-.74.15-1.18.15-.34,0-.71-.06-1.07-.17-.37-.12-.71-.29-1.01-.51-.29-.21-.52-.48-.69-.81-.14-.25-.2-.51-.2-.75s.06-.46.2-.66.35-.35.61-.48c.06-.03.12-.05.2-.08h-.01ZM550.56,66.76l2.1,2.33c.34.34.66.66.97.95-.02,0-.05,0-.06.02-.34.09-.74.15-1.18.15-.35,0-.72-.06-1.09-.17-.36-.11-.69-.28-.98-.51-.28-.21-.51-.49-.66-.81-.12-.25-.18-.51-.17-.74,0-.25.09-.46.23-.66.15-.2.37-.35.66-.48.05-.02.11-.05.17-.06l.02-.02h0ZM512.05,72.97l.08-.05-.09-.23v-.03c-.12-.18-.77-1.68-.89-1.96s-.26-.58-.4-.89c-.14-.32-.25-.6-.32-.77l-2.27-5.59h-.32l-2.56.29,1.81,4.51c.17.43.35.81.52,1.13,0,.02.02.03.03.06h-3.51c-.06-.15-.12-.29-.17-.41l-2.19-5.59h-.32l-2.58.29,1.76,4.56c.17.44.34.81.51,1.12,0,0,0,.02.02.03h-5.08c-.43,0-.97,0-1.63-.03-.64-.02-1.32-.06-1.99-.12s-1.32-.18-1.92-.32c-.14-.05-.32-.09-.54-.15-.25-.06-.46-.14-.67-.21-.21-.08-.4-.14-.54-.18h-.35l.72,3.71.14.05c.17.06.37.14.63.2.28.08.52.15.77.21.26.06.51.12.74.18,1.23.26,2.33.41,3.3.48.95.06,1.9.09,2.84.09h11.81c.66,0,1.21-.03,1.64-.09s.78-.15,1.06-.29h-.04,0ZM533.96,69.16c-.49-.21-1.04-.49-1.69-.86h-.03c.37-.08.71-.2.97-.35.54-.32.83-.81.89-1.48s-.15-1.54-.64-2.6l-1.78-3.9h-.31l-2.55.29,1.92,4.25c.2.44.34.81.41,1.07,0,.05.02.09.03.12-.09.06-.18.11-.29.15-.34.12-.72.2-1.17.21-.34,0-.71-.02-1.09-.09l-.12-.08c-.17-.11-.34-.23-.51-.34-.69-.48-1.41-.98-2.13-1.5-.69-.49-1.32-.95-1.89-1.36l-.06-.05h-.32l-.67,2.23.12.09c1.04.78,1.99,1.48,2.93,2.14.95.66,1.87,1.24,2.73,1.76.37.21.74.41,1.09.6h-7.3c0-.4-.11-.81-.29-1.24s-.49-.9-.87-1.36c-.71-.81-1.51-1.53-2.4-2.13l-.06-.05h-.28c-.28.08-.63.12-1.07.15-.46.03-.94.03-1.41.03h-.49c-.51,0-1.03-.03-1.58-.08-.54-.05-1.07-.14-1.55-.26h-.32l.25,2.37.15.06c.41.15.84.26,1.27.34.41.08.83.12,1.24.14.38.02.75.03,1.06.03h.6c.32,0,.61,0,.86-.03.28-.03.55-.06.83-.11.03,0,.06,0,.09-.02.12.11.23.23.35.34.25.26.43.54.55.83.14.34.14.57-.02.72-.17.17-.57.25-1.18.25h-5.28l.57,3.52.14.35h23.91l-.75-3.52-.17-.35h-1.67c-.25,0-.6-.11-1.06-.31l.03-.03v.06h.01Z"/>
    <path class="st1" d="M594.98,62.26c.48,0,.83-.12,1.01-.37.2-.25.17-.58-.08-1.01s-.63-.78-1.1-1.03-.97-.37-1.44-.37-.81.12-1.01.37-.17.58.08,1.03.61.77,1.1,1.01c.48.25.97.37,1.44.37M561.66,77.13c.49,0,.86-.12,1.07-.37.23-.25.23-.58.02-1.01s-.57-.78-1.04-1.03c-.46-.25-.95-.37-1.44-.37s-.86.12-1.07.37c-.23.25-.23.58-.02,1.03s.55.77,1.03,1.01c.46.25.95.37,1.46.37h-.01ZM565.42,76.8c.49,0,.86-.12,1.07-.37.23-.25.23-.58,0-1.01s-.58-.78-1.04-1.03-.95-.37-1.44-.37-.86.12-1.07.37c-.23.25-.23.58,0,1.03s.57.77,1.04,1.01.95.37,1.46.37h-.02ZM509.09,77.13c.49,0,.87-.12,1.12-.37s.29-.58.12-1.01-.49-.78-.94-1.03-.92-.37-1.41-.37-.87.12-1.12.37-.29.58-.12,1.03.48.77.92,1.01.92.37,1.41.37h.02ZM512.88,76.8c.49,0,.87-.12,1.12-.37s.29-.58.12-1.01-.49-.78-.94-1.03-.92-.37-1.41-.37-.87.12-1.1.37c-.25.25-.29.58-.11,1.03s.49.77.94,1.01.92.37,1.41.37h-.03,0ZM492.96,65.66c.49,0,.86-.12,1.1-.37s.29-.58.14-1.01-.48-.78-.9-1.03-.89-.37-1.36-.37-.84.12-1.09.37-.29.58-.14,1.03.46.77.89,1.01.89.37,1.38.37h-.02ZM496.68,65.33c.49,0,.86-.12,1.09-.37.25-.25.29-.58.12-1.01s-.48-.78-.9-1.03-.89-.37-1.36-.37-.84.12-1.09.37-.29.58-.12,1.03c.17.45.46.77.9,1.01.43.25.89.37,1.38.37h-.02ZM493.5,62.76c.48,0,.84-.12,1.09-.37s.29-.58.12-1.01-.48-.78-.9-1.03-.89-.37-1.36-.37-.84.12-1.09.37-.29.58-.12,1.03.46.77.89,1.01.89.37,1.36.37h.02-.01ZM241.6,65.67c-.32.69-.6,1.31-.86,1.83s-.48.97-.66,1.34h.03c.29-.35.64-.8,1.07-1.34s.95-1.13,1.55-1.83l3.76-4.28h5.55l-1.18,1.88-1.43.35-6.33,9.95,1,.35-1.07,1.7h-5.69l1.09-1.7,1.47-.35,4.22-6.56c.29-.44.55-.84.78-1.18s.43-.64.61-.9c.17-.26.35-.51.52-.74h-.02c-.75.89-1.4,1.67-1.95,2.31-.55.63-1.1,1.26-1.66,1.87l-4.43,4.88h-2.16l1.89-4.64c.12-.32.28-.69.46-1.1.18-.4.37-.81.55-1.21s.38-.78.57-1.15.34-.67.48-.94h-.03c-.11.18-.28.46-.49.8s-.44.71-.71,1.12c-.26.4-.54.83-.81,1.26s-.54.84-.8,1.21l-3.27,4.99,1,.35-1.1,1.7h-4.75l1.12-1.7,1.46-.35,6.56-9.95-.97-.35,1.24-1.88h5.31l-1.93,4.28h.02v-.02h-.01ZM247.39,75.56c-.41-.21-.66-.54-.74-.98s0-1.03.26-1.74.69-1.56,1.32-2.56,1.26-1.83,1.87-2.52c.63-.69,1.26-1.26,1.9-1.7s1.29-.75,1.93-.95c.65-.2,1.32-.29,1.99-.29,1.36,0,2.15.43,2.35,1.31s-.29,2.29-1.5,4.27c-.61.98-1.23,1.83-1.84,2.52s-1.24,1.26-1.89,1.71c-.64.44-1.3.75-1.96.95s-1.33.29-2.04.29-1.24-.11-1.66-.32v.02h.01ZM250.98,73.67c.21-.12.44-.34.71-.61.25-.29.54-.66.84-1.12.31-.46.67-1.03,1.1-1.71.38-.63.69-1.15.92-1.57s.4-.77.48-1.03c.09-.26.11-.46.05-.57-.06-.12-.2-.17-.43-.17s-.43.06-.64.17c-.2.12-.43.31-.67.58s-.51.63-.81,1.06c-.29.43-.64.98-1.06,1.64s-.74,1.2-1,1.67c-.25.46-.43.81-.52,1.1-.09.28-.12.48-.06.6s.2.18.43.18.44-.06.66-.2l.02-.02h-.02ZM260,75.57c-.46.2-.97.31-1.52.31-.49,0-.89-.09-1.18-.28s-.44-.49-.46-.92.11-.98.38-1.68c.28-.69.72-1.56,1.35-2.57s1.27-1.94,1.86-2.66c.6-.71,1.17-1.3,1.73-1.74.57-.44,1.1-.75,1.63-.94s1.03-.28,1.52-.28c.23,0,.43.03.57.09.15.06.28.14.37.23s.17.2.21.31.09.21.14.31l1.78-2.97-.75-.29,1.12-1.88h3.91l-7.76,13.08.83.2-1,1.7h-3.51l.38-1.04c-.6.46-1.13.8-1.59,1v.03h-.01ZM261.61,73.43c.21-.06.38-.15.55-.25l3.28-5.48c-.03-.08-.09-.17-.15-.25s-.2-.12-.41-.12-.43.05-.64.15-.44.28-.67.52c-.25.25-.49.57-.78.97-.28.4-.6.89-.95,1.5-.67,1.12-1.09,1.93-1.23,2.37-.14.46-.02.67.37.67.23,0,.46-.03.66-.11l-.02.02h0ZM269.08,75.57c-.46-.2-.75-.52-.87-.98-.12-.44-.08-1.01.15-1.73.21-.69.63-1.54,1.21-2.54,1.12-1.91,2.3-3.29,3.54-4.19,1.24-.87,2.55-1.33,3.89-1.33.61,0,1.12.09,1.47.26.37.17.6.46.69.86s.03.92-.17,1.59c-.21.64-.58,1.45-1.12,2.39l-.78,1.37h-4.83c-.21.38-.38.71-.49.98-.11.28-.14.49-.11.67.03.17.14.31.32.4s.46.14.81.14c.23,0,.46,0,.66-.05.2-.03.4-.08.61-.14s.43-.14.67-.25c.23-.11.51-.21.78-.35l-.35,1.94c-.69.4-1.38.69-2.05.92-.67.21-1.41.32-2.19.32s-1.4-.11-1.86-.31l.02.02h0ZM275.41,66.91c-.15.06-.32.17-.51.35-.18.17-.4.41-.63.74-.25.32-.52.75-.84,1.27h1.92c.31-.52.54-.95.69-1.27s.25-.57.28-.74,0-.29-.06-.35c-.08-.06-.18-.09-.35-.09s-.32.03-.48.09h-.02ZM281.68,75.6h-5.21l.97-1.7,1.06-.2,3.6-6.35-.77-.29,1.12-1.97h3.4l-.61,1.74c.71-.74,1.35-1.24,1.95-1.56.6-.29,1.18-.44,1.75-.44.17,0,.29.02.38.06l-2.32,3.44c-.09-.1-.21-.17-.34-.2-.12-.05-.32-.06-.57-.06-.28,0-.55.03-.83.11-.26.08-.54.17-.8.29l-2.91,5.2,1.06.25-.95,1.7.02-.02h0ZM294.77,67.86c0-.21-.14-.32-.44-.32-.21,0-.4.03-.6.11-.18.06-.4.15-.61.26l-3.16,5.8.77.2-.92,1.7h-4.89l.94-1.7,1.06-.2,3.48-6.34-.77-.31,1.09-1.97h3.59l-.37,1.12c.35-.23.69-.43,1-.61.31-.17.6-.32.87-.43.28-.12.55-.2.81-.26s.55-.08.84-.08c.74,0,1.13.26,1.21.77.08.52-.14,1.24-.63,2.19l-3.17,5.92.84.2-.9,1.7h-4.02l3.6-6.67c.28-.51.41-.86.41-1.07h-.03,0ZM316.96,61.77c.52.25.84.66,1.01,1.21.15.55.12,1.3-.11,2.2s-.67,2.02-1.32,3.32c-.67,1.37-1.36,2.51-2.07,3.43-.71.9-1.43,1.64-2.18,2.19-.75.54-1.53.92-2.33,1.15-.81.23-1.66.34-2.55.34h-5.4l.87-1.7,1.43-.35,5.12-9.95-1.04-.35.97-1.88h5.55c.84,0,1.52.12,2.04.38v-.02h0v.03h0ZM309.62,73.28c.34-.14.67-.38,1.01-.74s.71-.86,1.1-1.5c.38-.63.84-1.47,1.35-2.49s.9-1.85,1.15-2.49c.26-.64.4-1.15.44-1.53.03-.37-.05-.63-.23-.77s-.48-.21-.86-.21h-.89l-5.06,9.95h.87c.41,0,.78-.06,1.12-.2l-.02-.02h.02ZM317.53,75.57c-.48-.2-.8-.52-.97-.98-.17-.44-.17-1.01-.02-1.73.15-.69.48-1.54.97-2.54.94-1.91,1.99-3.29,3.14-4.19,1.15-.87,2.41-1.33,3.77-1.33.61,0,1.12.09,1.5.26s.64.46.77.86c.14.4.12.92-.03,1.59-.15.64-.44,1.45-.89,2.39l-.64,1.37h-4.83c-.18.38-.32.71-.4.98-.08.28-.09.49-.05.67.05.17.17.31.37.4s.46.14.83.14c.23,0,.44,0,.64-.05.2-.03.4-.08.6-.14s.41-.14.64-.25.48-.21.75-.35l-.17,1.94c-.66.4-1.32.69-1.98.92-.66.21-1.38.32-2.16.32s-1.41-.11-1.89-.31h.03l.02.02h0ZM323.05,66.91c-.15.06-.31.17-.48.35-.17.17-.35.41-.57.74-.21.32-.44.75-.72,1.27h1.92c.26-.52.44-.95.57-1.27s.18-.57.2-.74c0-.17-.02-.29-.11-.35-.08-.06-.2-.09-.35-.09s-.31.03-.46.09M326.46,75.69c-.51-.12-.92-.29-1.23-.52l1.33-2.83h1.99l-.37,1.45c.08.05.18.08.29.11.12.03.26.05.43.05.78,0,1.32-.31,1.61-.94.18-.38.18-.66.03-.86-.15-.18-.49-.37-1.03-.55-.4-.14-.74-.29-1-.46s-.43-.4-.55-.66c-.11-.26-.14-.58-.06-.95.06-.37.21-.81.46-1.33.49-1.04,1.21-1.87,2.15-2.46s1.99-.89,3.2-.89c.64,0,1.17.05,1.59.15.41.11.75.26,1.03.46l-1.29,2.82h-1.93l.35-1.37c-.14-.09-.38-.14-.72-.14s-.66.06-.9.2-.44.35-.58.63c-.08.17-.12.31-.14.41,0,.12.03.21.11.32.08.09.21.18.38.29.17.09.41.18.74.29.43.15.78.32,1.06.51.26.18.44.43.54.71s.11.61.03,1c-.08.38-.23.84-.49,1.41s-.57,1.04-.95,1.47c-.38.41-.8.77-1.27,1.06-.46.29-.97.49-1.5.64-.54.14-1.07.21-1.64.21-.64,0-1.23-.06-1.73-.17l.06-.05h0ZM338.94,75.6h-4.97l.77-1.7,1.04-.2,2.87-6.34-.8-.31.9-1.97h3.94l-3.86,8.62.86.2-.75,1.7ZM340.53,63.77c-.15-.35-.12-.78.11-1.3s.6-.95,1.07-1.31.95-.54,1.4-.54.77.18.92.54.12.78-.09,1.3-.58.95-1.07,1.31c-.48.35-.95.54-1.4.54s-.77-.18-.94-.54M340.02,78.98c-.44-.44-.51-1.07-.14-1.88.25-.54.55-.95.95-1.23s.86-.51,1.36-.71c-.26-.15-.43-.37-.51-.67-.08-.29,0-.71.23-1.24s.52-.95.87-1.27.74-.63,1.18-.89c-.23-.26-.34-.63-.32-1.1s.17-1.03.44-1.65c.49-1.1,1.2-1.97,2.12-2.59s1.98-.92,3.2-.92c.29,0,.58.03.87.08s.54.11.74.2h2.7l-.84,1.97-.98.18c0,.21-.03.43-.09.63-.05.2-.12.4-.2.58-.23.52-.49,1-.8,1.41s-.67.74-1.1,1.01-.92.49-1.49.63-1.2.21-1.93.21c-.28,0-.51-.02-.67-.05-.17-.03-.31-.06-.43-.09-.23.17-.41.4-.54.67-.09.21-.11.37-.05.44.08.08.21.12.44.12h2.18c.44,0,.84.06,1.2.17.35.11.63.28.83.52.2.23.31.55.32.94,0,.38-.11.86-.34,1.42-.55,1.3-1.36,2.25-2.44,2.86-1.09.61-2.41.92-3.96.92-1.46,0-2.41-.23-2.85-.67h.05ZM342.69,76.46c-.14.32-.15.61-.03.87s.49.38,1.09.38c.72,0,1.29-.12,1.72-.35.41-.23.71-.52.86-.87s.17-.58.08-.67c-.11-.11-.4-.15-.89-.15h-2.28c-.21.23-.38.49-.52.8h-.03,0ZM348.09,69.51c.26-.25.51-.66.75-1.23.36-.86.34-.97.28-1.2s-.25-.35-.55-.35c-.28,0-.55.12-.83.35s-.54.63-.78,1.2c-.36.86-.35.98-.29,1.23s.23.38.52.38c.34,0,.63-.12.87-.38h.03ZM359.96,67.86c-.03-.21-.18-.32-.48-.32-.21,0-.4.03-.58.11-.18.06-.37.15-.58.26l-2.41,5.8.78.2-.69,1.7h-4.89l.72-1.7,1.03-.2,2.67-6.34-.81-.31.83-1.97h3.59l-.23,1.12c.32-.23.63-.43.9-.61.28-.17.55-.32.81-.43.5-.23,1.05-.35,1.61-.34.74,0,1.17.26,1.3.77.14.52.03,1.24-.35,2.19l-2.39,5.92.86.2-.67,1.7h-4.02l2.73-6.67c.2-.51.29-.86.28-1.07h0Z"/>
  </g>
  <g id="LAMPS">
    <ellipse class="st1" cx="235.93" cy="97.53" rx="7.14" ry="2.08"/>
    <ellipse class="st1" cx="616.71" cy="97.53" rx="7.14" ry="2.08"/>
    <ellipse class="st1" cx="311.24" cy="97.53" rx="7.14" ry="2.08"/>
    <ellipse class="st1" cx="350.43" cy="97.53" rx="7.14" ry="2.08"/>
    <ellipse class="st1" cx="412.13" cy="97.53" rx="7.14" ry="2.08"/>
    <ellipse class="st1" cx="444.28" cy="97.53" rx="7.14" ry="2.08"/>
    <ellipse class="st1" cx="540.71" cy="97.53" rx="7.14" ry="2.08"/>
    <ellipse class="st1" cx="513.53" cy="97.53" rx="7.14" ry="2.08"/>
  </g>
  <g id="CLOUDS">
    <path class="st10" d="M130.67,65.38c.22,0,.44.02.65.06-.04-.31-.06-.63-.06-.95,0-4.42,3.57-7.99,7.96-7.99,1.44,0,2.78.38,3.94,1.05,3.18-3.92,8.92-4.5,12.82-1.31,1.45,1.19,2.5,2.79,3.01,4.6,3.1-1.18,6.56.38,7.74,3.49.26.68.39,1.41.39,2.14,0,3.33-2.68,6.02-6,6.02h-30.46c-1.96,0-3.54-1.6-3.53-3.56,0-1.96,1.58-3.54,3.53-3.55h0ZM736.49,47.29c.67-3.7,3.9-6.53,7.79-6.53,2.97,0,5.56,1.65,6.92,4.09.51-.09,1.04-.14,1.58-.14,4.85,0,8.8,3.85,9.01,8.66,7.26-2.33,12.47-1.5,13.92-1.5,3.01,0,5.45,2.44,5.46,5.47,0,3.02-2.43,5.47-5.44,5.48h-36.81c-4.37,0-7.92-3.57-7.91-7.96,0-3.45,2.23-6.51,5.5-7.56h-.02ZM67.22,75.47c3.5,0,6.52,2.04,7.96,4.99.29-.04.59-.06.89-.06.8,0,12.51.15,13.22.42,1.47-2.1,3.87-3.35,6.42-3.34,2.5,0,4.73,1.17,6.17,3.01.34-.06.69-.09,1.04-.09,3.53,0,6.39,2.87,6.39,6.42s-2.86,6.42-6.39,6.42h-35.69c-4.89,0-8.85-3.98-8.85-8.88s3.96-8.88,8.85-8.88h-.01,0ZM690.44,94.55c1.67-2.76,4.69-4.61,8.14-4.61s6.72,2,8.33,4.95c.68-.22,1.41-.33,2.17-.33,2.22,0,4.32,1.03,5.69,2.79.74-.32,1.55-.49,2.4-.49,3.35,0,6.07,2.73,6.07,6.09s-2.72,6.09-6.07,6.09h-26.7c-3.99,0-7.22-3.24-7.22-7.25s3.21-7.22,7.18-7.25h0Z"/>
  </g>
  <g id="GLASS_DOOR">
    <path class="st11" d="M296.19,105.05l-10.73,100.01h72.91l7.47-100.01s-69.65,0-69.65,0ZM220.08,105.06l-15.92,100h54.77l9.87-100.01h-48.72,0ZM491.27,105.05l-3.53,100.01h81.25l-10.74-100.01s-66.98,0-66.98,0ZM393.24,105.05l-8.34,100.01h76.29l2.67-100.01h-70.62ZM585.65,105.05l9.88,100.01h44.22l-10.82-100h-43.28Z"/>
  </g>
</svg>