<?xml version="1.0" encoding="UTF-8"?>
<svg id="Layer_1" xmlns="http://www.w3.org/2000/svg" version="1.1" viewBox="0 0 141.73 141.73">
  <!-- Generator: Adobe Illustrator 30.0.0, SVG Export Plug-In . SVG Version: 2.1.1 Build 123)  -->
  <defs>
    <style>
      .st0, .st1 {
        fill: #07917c;
      }

      .st0, .st2, .st3, .st4, .st5, .st6 {
        fill-rule: evenodd;
      }

      .st2 {
        fill: #f39320;
      }

      .st3 {
        fill: #ffcf32;
      }

      .st4 {
        fill: #51ac5f;
      }

      .st5 {
        fill: #1680c4;
      }

      .st6 {
        fill: #e94838;
      }
    </style>
  </defs>
  <path class="st0" d="M81.4,37.01s.99-.95,1.16-2.15c0,0-1.84-.46-3.44.2,0,0-.69.4-1.15-.22l.68,1.37s1.11,2.39,2.75.8"/>
  <path class="st0" d="M59.52,28.46c.69-.57,4.09-3.83,4.09-3.83l8.61-8.92-11.44-9.72h-21.36l2.61,2.02s6.95,5.36,10.65,9.28c3.7,3.92,6.84,11.16,6.84,11.16"/>
  <path class="st0" d="M68.26,55.38s5.33-4.07,7.74-6.47c2.42-2.4,14.05-13.57,15.48-14.83,0,0-1.27-1.63-4.01-4.35-2.73-2.72-8.21-7.62-8.89-8.07,0,0-11.67,18.78-10.32,33.73M75.84,31.2c.04-.56.43-.02.43-.02l1.05,2.09c.82-.55,2.1-.84,3.37-.82s1.82.92,1.82.92c0,0,.77,1.37,1.17,2.05.41.68.38,1.39.38,1.39-.34,1.23-2.04,4.08-4.3,2.35s-3.92-7.96-3.92-7.96"/>
  <path class="st3" d="M20.98,75.14c3.32,10.62,5.43,14.28,8.45,17.67,3.02,3.4,7.02,2.33,8.97.7,1.94-1.63,4.89-3.97,7-13.67,2.25-10.34.19-18.78-.07-20.17s-1.44-2.26-2.38-2.98-7.13-4.4-7.13-4.4c0,0-8.27-4.44-10.22-5.51-1.1-.6-3.5-1.68-5.36-2.49l.11,28.37s.63,2.48.63,2.48ZM25.51,68.24c-.24-.93.99-1.54.99-1.54,2.42-1.49,6.58-.07,7.66.32,1.07.38,2.42.81,2.42.81-.77-.76-3.47-4.76-3.47-4.76,0,0-2.65-4.23-1.24-5.11,1.42-.88,3.25-.73,3.25-.73l.91-.03s.55.83.93,1.72-.43,1.24-.83,1.31-1.3.23-1.3.23c-1.4.68-.93,1.65.46,3.64,1.39,1.98,4.29,4.83,5.11,6.26.89,1.58-.26,1.51-.26,1.51,0,0,.05.21-2.72-1.02-3.94-1.77-5.59-1.48-5.59-1.48.48.55-.08.69-.08.69,0,0-.57-.03-1.3.28-.73.32-1.66,1.09-2.97.6-1.3-.48-1.96-2.67-1.96-2.67"/>
  <path class="st2" d="M78.36,80.53c-.12-.12-.24-.24-.33-.34-.14-.15-.29-.29-.43-.43-6.75-6.95-10.19-15.16-10.19-15.16-8.42,3.29-17.55-4.39-18.05-4.76s-2.43-1.72-2.43-1.72c2.3,3.68,3.19,6.14,3.19,6.14,1.13,5.06.86,11.68.42,16.35h0c0,.2-.03.39-.05.6-.1,1.42-.26,2.75-.47,3.99-.6,3.55-1.57,6.34-2.65,8.5.52,1.51,1.08,2.73,1.59,3.7h.03c.05.12.11.25.19.4.23.42.46.77.67,1.08.29.42.64.88,1.06,1.35l.07.07v.02c2.67,3.01,7.78,6.55,14.56,3.73,4.63-1.92,8.14-4.95,10.52-7.56.8-.93,3.27-4,6.14-9.02v-.05c.13-.2.26-.42.39-.63.37-.65.74-1.34,1.11-2.05-.34-.21-.68-.42-.99-.63-.03-.02-.05-.04-.08-.05-.32-.22-.64-.44-.94-.66-.03-.02-.05-.04-.08-.06-.3-.22-.58-.43-.85-.65,0,0-.02-.02-.03-.02-.54-.42-1.01-.82-1.41-1.19q-.18-.17,0,0c-.09-.08-.18-.16-.26-.24-.02-.02-.04-.03-.06-.05-.07-.06-.13-.12-.19-.18-.02-.02-.04-.03-.05-.05-.06-.06-.12-.11-.17-.17l-.05-.05c-.06-.05-.11-.11-.16-.16l-.02-.02M55.2,83.89c1-.47,2.17-.77,3.75-1.17,1.13-.29,2.88-.85,3.4-.5.68.46.69,2.05.89,2.86.26,1.06.69,1.88.62,2.77-2.33.53-4.65,1.25-6.98,1.67-1.15-1.88-1.15-3.75-1.69-5.63M76.11,87.78c-2.47.64-4.95,1.35-7.42,2.6.49,1.71,1.83,3.42,1.87,5.13-2.38,1.09-4.77,1.46-7.15,2.34-1.71-2.02-2.16-4.04-2.86-6.05,2.48-.93,4.95-1.47,7.42-2.26-.21-1.74-1.37-3.47-1.78-5.21,2.56-1.34,5.13-2.13,7.69-2.68,1.09,2.05,1.8,4.09,2.22,6.13"/>
  <path class="st4" d="M107.71,65.03c-3.58,3.6-7.57.81-7.57.81l-2.64-1.57c-.32.53-2.19,6.37-3.15,10.4-.5,2.08-1.42,4.7-2.52,7.43.35.07.65.11.92.15.41.03.82.06,1.23.07,10.48.27,18.99-6.94,22.29-12.52,9.54-16.15.85-31.8.85-31.8,0,0-1.15-1.93-3.1-2.71-1.96-.78-3.93-1.51-8.27-.68-4.9.93-13.87,9.18-13.87,9.18l-10.48,10.17c-7.78,7.59-11.64,9.53-11.64,9.53,1.74,6.33,6.32,10.63,9.77,13.09.44.31.85.59,1.24.84.04.03.08.05.13.07.18.11.35.21.52.31.19.12.38.22.56.33.04.02.08.05.12.07,1.39.79,2.65,1.42,3.8,1.93,1.43-3.35,2.57-6.6,3.12-8.26.95-2.94,3.85-13.84,3.85-13.84l.44-.52,1.17.82c4,3.6,7.55,2.03,7.55,2.03,4.73-2.71,5.11-7.26,5.11-7.26-2.52-1.51-4.37-1.34-4.37-1.34-1.01,0-1.34-.52-1.34-.52l-3.18-4.89-.12-.67,1.45-.08c7.68.49,10.73,6.87,11.88,9.38,1.16,2.5-.16,6.43-3.74,10.03"/>
  <path class="st4" d="M28.6,40.76c2.1,1.13,7.93,4.46,10.39,6.2,2.47,1.74,9.39,6.83,12.55,8.89,3.16,2.07,6.14,2.75,8.24,2.81,2.11.06,4.78-1.05,4.78-1.05-3.34-15.29,3.28-27.45,3.28-27.45,0,0-7.64,7.12-9.18,8.59s-7.68,7.99-7.68,7.99c0,0-.51,1.17-1.14,1.98s-.99.09-.99.09l-2.89-6.23c.24-1.8,6.98-11.2,6.98-11.2,2.77-3.83,3.1-5.23,3.1-5.23l-1.78-1.71-6.47-5.54-6.62-5.39-9.36-7.53h-11.6v31.84c3.82.82,7.07,2.22,8.36,2.92M26.85,19.69s-.51-1.46,1.27-4.29c0,0,.36-.49.48-.93.02-.07.04-.15.04-.22,0,0-1.45-.03-1.86.68-.41.7.12,1.88.12,1.88,0,0,0,.29-.03.5,0,0-.3.59-.83-.29s-1.8-3.44-.47-4.41c1.33-.97,4.69-.32,5.08.18l1.07,1.59s.22.31-.35.71c0,0-3.32,3.29-2.84,6.17,0,0,.15.42,1.92,1.44,0,0,13.56,7.38,14.74,10.79,0,0-4.22-2.79-6.32-4.29s-8.33-4.82-8.33-4.82c0,0-2.75-1.38-3.7-4.67"/>
  <path class="st5" d="M121.5,5.98h-53.11c3.84,3.29,6.98,6.09,6.98,6.09l4.33-4.53c.77-.85,1.21.54,1.21.54l1.99,5.64c.13.74-.03,1.02-.03,1.02-.85,1.06-1.59,2.46-1.59,2.46,0,0,1.98,1.72,5.58,6.2,4.01,4.98,5.97,9.51,5.97,9.51,7.92-6.88,16.02-6.44,20.79-2.74,3.1,2.4,5.79,5.72,7.89,9.91V5.98h-.01ZM103.68,23.5c-3.14.92-6.87-1.38-11.88-12.88l.57.35s4.16,6.78,5.51,8.18c1.34,1.4,4.7,2.69,5.48.02,0,0-.1-.63-.64-1.4-.54-.76-.58-1.1-.3-1.4.27-.3,2.33,1.49,2.62,2.07l.3.59s1.49,3.56-1.65,4.47"/>
  <path class="st6" d="M49.29,101.43h0s-.05-.09-.07-.13c-.42-.7-.64-1.14-.64-1.14-.02-.05-.25-.47-.26-.52-.69-1.43-1.27-3.13-1.55-4.81-.74,1.24-1.78,2.7-2.67,3.62-.06.06-.12.12-.18.18-.04.03-.07.06-.1.1-3.16,3.02-7.3,4.04-11.92.84-6.89-4.78-10.33-16.77-11.63-22.55v30.11h33.65c-2.2-2.02-3.77-4.3-4.61-5.69"/>
  <path class="st0" d="M121.52,74.48c-2.44,4.37-5,6.73-5,6.73-10.4,9.87-21.43,8.11-26.62,6.44-.08-.03-.17-.06-.26-.09-.04-.01-.07-.02-.11-.04-.16.36-.34.74-.52,1.14-.15.36-.28.63-.35.79h-.02c-1.46,3.03-3.5,6.83-5.91,10.14-2.09,2.94-4.53,5.53-7.28,7.53h46.08v-32.63h-.01ZM107.26,102.81c-2.38,1.09-4.77,1.46-7.15,2.34-1.71-2.02-2.16-4.04-2.86-6.05,2.48-.93,4.95-1.47,7.42-2.26-.21-1.74-1.38-3.47-1.78-5.21,2.57-1.34,5.13-2.13,7.69-2.68,1.09,2.05,1.81,4.09,2.23,6.13-2.47.64-4.95,1.34-7.42,2.59.49,1.71,1.83,3.42,1.87,5.13"/>
  <path class="st0" d="M117.16,101.44h-8.82v20.25h-4.7v-9.33h-4.54v9.33h-4.7v-9.33h-21.5v9.33h-4.7v-9.33h-4.45v9.33h-4.62v-9.33h-12.93v9.33h-4.12v-9.33h-4.37v9.33h-4.36v-9.33h-13.11v23.39h13.2v-4.09h-9v-5.71h88.16v-20.02h4.54v25.73h-62.18v4.09h66.55v-34.31h-4.37s.02,0,.02,0ZM24.46,116.54h4.54v5.15h-4.54v-5.15ZM50.33,116.54h4.62v5.15h-4.62s0-5.15,0-5.15ZM77.03,116.54h13.01v5.15h-13.01v-5.15Z"/>
  <rect class="st1" x="46.12" y="131.66" width="4.35" height="4.09"/>
  <rect class="st1" x="37.57" y="131.66" width="4.62" height="4.09"/>
</svg>