<?xml version="1.0" encoding="UTF-8"?>
<svg id="Layer_1" xmlns="http://www.w3.org/2000/svg" version="1.1" viewBox="0 0 595.28 70.87">
  <!-- Generator: Adobe Illustrator 30.0.0, SVG Export Plug-In . SVG Version: 2.1.1 Build 123)  -->
  <defs>
    <style>
      .st0, .st1 {
        fill: #fff;
      }

      .st2 {
        fill: none;
        stroke: #1e927b;
        stroke-miterlimit: 10;
        stroke-width: .77px;
      }

      .st3 {
        fill: #1e927b;
      }

      .st4 {
        fill-rule: evenodd;
      }

      .st4, .st5 {
        fill: #0f8a79;
      }

      .st6 {
        fill: #52a964;
      }

      .st1 {
        font-family: MyriadPro-Semibold, 'Myriad Pro';
        font-size: 11.83px;
        font-weight: 600;
      }
    </style>
  </defs>
  <rect class="st6" width="595.28" height="70.87"/>
  <rect class="st0" x="11.3" y="10.08" width="164.15" height="52.59" rx="8.76" ry="8.76"/>
  <rect class="st2" x="11.3" y="10.08" width="164.15" height="52.59" rx="8.76" ry="8.76"/>
  <path class="st3" d="M80.3,21.34h-.43c-.12,0-.21,0-.27,0-.05,0-.08.02-.08.05.08.05.15.08.23.1.07.02.12.04.14.07.02.03.03.08.03.14,0,.2-.06.43-.17.7-.11.27-.22.44-.33.51-.1.09-.4.18-.91.3-.5.11-.94.17-1.3.17-.52,0-.94-.11-1.26-.32-.32-.21-.48-.5-.48-.84s.07-.66.21-.96c.17-.37.49-.84.95-1.4l.25.17c-.29.35-.49.63-.6.85-.11.22-.17.44-.17.65,0,.29.12.51.37.65.24.14.62.21,1.13.21.26,0,.63-.05,1.1-.14.47-.1.7-.18.7-.25,0-.03-.09-.06-.27-.09-.18-.03-.38-.04-.59-.04-.31,0-.47-.07-.47-.21,0-.06.04-.18.11-.34.05-.11.11-.23.16-.34.1-.23.3-.41.58-.55.29-.14.59-.21.9-.21h.45v1.12ZM78.58,23.8l-.4.46-.44-.27-.32.35-.52-.29.39-.5.45.29.32-.37.52.33ZM83.34,21.34h-3.34v-1.12h2.68c-.11-.13-.21-.24-.31-.34-.08-.08-.19-.17-.33-.28-.16-.12-.31-.24-.47-.36l-.13.15c-.25-.24-.39-.39-.44-.44-.14-.16-.21-.34-.21-.54,0-.28.02-.47.06-.59.06-.16.17-.3.35-.43.16-.11.33-.21.51-.3.14-.07.33-.16.57-.25.11-.04.34-.13.7-.27v.98s-.13.04-.35.11c-.27.09-.48.17-.64.23-.23.09-.35.16-.35.21,0,.02.1.13.29.32.27.26.49.5.67.71.3.36.54.71.73,1.06v1.15ZM85.64,21.34h-2.59v-1.12h2.17c-.03-.19-.09-.35-.17-.47-.04-.07-.14-.2-.29-.37l.33-.98c.21.23.35.48.42.74.08.26.11.64.11,1.14v1.08ZM85.66,16.84l-.5.93-.97-.5.5-.93.96.51ZM87.93,21.34h-2.59v-1.12h2.17c-.03-.19-.09-.35-.17-.47-.04-.07-.14-.2-.29-.37l.33-.98c.21.23.35.48.42.74.08.26.11.64.11,1.14v1.08ZM87.51,22.2l-.5.93-.97-.5.5-.93.96.51ZM89.91,21.34h-2.27v-1.12h1.78l-.5-2.8-.26-.17c0-.16.02-.33.07-.49.06-.21.17-.46.32-.75l.19.1s0,.06-.02.13c0,.09.06.18.17.26.1.08.26.16.49.26-.02.18-.06.35-.11.52-.05.17-.1.32-.16.45l-.15-.06.45,2.56v1.12ZM91.41,19.23c.03.31.04.62.04.9,0,.25-.03.47-.09.67s-.17.47-.33.82l-.25-.1c.07-.35.1-.64.1-.86,0-.17-.01-.41-.04-.74-.03-.32-.06-.65-.1-.96s-.11-.7-.2-1.14c-.03-.15-.05-.26-.05-.32,0-.09.04-.23.13-.44.09-.21.21-.45.36-.75l.25,1.46c.09.56.15,1.04.19,1.45h0ZM97.69,21.23c0,.42-.22.8-.66,1.13-.44.33-.94.49-1.51.49-.47,0-.84-.12-1.1-.36-.27-.24-.4-.57-.4-1,0-.4.05-.75.15-1.04.11-.34.33-.75.66-1.23l.26.17c-.21.32-.37.6-.46.84-.09.24-.14.47-.14.71,0,.25.09.44.28.58.19.14.45.2.79.2.48,0,.88-.09,1.18-.28.3-.19.45-.43.45-.74v-.19c0-.11,0-.23-.03-.36-.02-.13-.06-.4-.14-.8-.12-.65-.24-1.31-.36-1.96l-.21-.15c0-.27.13-.68.38-1.24l.19.09s-.02.08-.02.13c0,.11.06.2.17.27.17.09.33.18.47.27-.03.24-.06.41-.09.51-.03.1-.09.25-.19.46l-.12-.05s.04.28.12.7c.08.43.15.8.2,1.11.08.45.12.72.12.81v.93ZM100.03,21.34h-2.59v-1.12h2.17c-.03-.19-.09-.35-.17-.47-.04-.07-.14-.2-.29-.37l.33-.98c.21.23.35.48.42.74.08.26.11.64.11,1.14v1.08ZM99.96,22.06l-.43.8-.61-.31-.35.67-.75-.42.45-.84.59.33.33-.65.77.42ZM103.84,21.05c0,.47-.2.94-.6,1.4-.4.46-.8.69-1.19.69-.23,0-.48-.07-.75-.22-.27-.15-.69-.43-1.25-.86l.17-.24c.3.2.54.33.73.4.16.06.33.08.53.08.27,0,.53-.07.79-.22.31-.18.63-.46.96-.85-.12.02-.21.02-.29.02-.27,0-.49-.09-.65-.27s-.24-.42-.24-.72c0-.41.09-.81.28-1.19.21-.42.44-.62.71-.62.22,0,.41.15.56.45.15.3.23.66.23,1.09v1.07ZM103.35,20.21c-.08-.44-.23-.66-.47-.66-.09,0-.15.03-.2.1-.05.07-.08.14-.08.22,0,.1.05.18.16.25.11.06.25.1.43.1h.16ZM108.31,21.34h-4.72v-1.12h2.94c-.33-.34-.64-.59-.93-.74-.25-.13-.5-.2-.74-.2-.07,0-.14,0-.2.01-.06,0-.15.02-.26.05.15-.35.32-.6.51-.77s.4-.25.63-.25c.18,0,.36.04.52.13.17.09.36.23.57.43.17.15.4.4.7.72.21.23.36.38.47.45.11.07.27.13.49.17v1.12ZM110.6,21.34h-2.59v-1.12h2.17c-.03-.19-.09-.35-.17-.47-.04-.07-.14-.2-.29-.37l.33-.98c.21.23.35.48.42.74.08.26.11.64.11,1.14v1.08ZM110.54,16.92l-.43.8-.61-.31-.35.67-.75-.42.45-.84.59.33.33-.65.77.42ZM112.58,21.34h-2.27v-1.12h1.78l-.5-2.8-.26-.17c0-.16.02-.33.07-.49.06-.21.17-.46.32-.75l.19.1s0,.06-.02.13c0,.09.06.18.17.26.1.08.26.16.49.26-.02.18-.06.35-.11.52-.05.17-.1.32-.16.45l-.15-.06.45,2.56v1.12ZM114.59,21.34h-2.27v-1.12h1.78l-.5-2.8-.26-.17c0-.16.02-.33.07-.49.06-.21.17-.46.32-.75l.19.1s0,.06-.02.13c0,.09.06.18.17.26.1.08.26.16.49.26-.02.18-.06.35-.11.52-.05.17-.1.32-.16.45l-.15-.06.45,2.56v1.12Z"/>
  <g>
    <path d="M131.84,32.3h-.59c-.2,0-.37-.17-.52-.51-.11-.25-.2-.58-.27-.98-.08.15-.19.27-.31.36-.13.09-.26.13-.4.13-.32,0-.58-.02-.79-.06-.21-.04-.32-.1-.32-.16,0-.24.15-.5.46-.79.31-.29.69-.54,1.16-.75,0-.02-.02-.08-.04-.17-.02-.09-.03-.15-.03-.17,0-.09.03-.2.09-.31.05-.09.12-.19.21-.29.03.17.06.34.08.5.03.16.06.32.1.5l.12.71c.07.39.13.68.19.87.09.29.17.43.26.43h.59v.72ZM129.85,27.75l-.31.59-.68-.35.32-.59.67.36ZM129.93,30.72c.17,0,.32-.09.47-.26l-.08-.45c-.24.09-.43.17-.57.27-.14.09-.25.21-.35.37.06.02.13.04.2.06.08.01.18.02.32.02h0ZM130.79,27.37l-.31.6-.68-.35.31-.6.67.35ZM135.21,32.3h-3.62v-.72h3.14c-.19-.29-.41-.55-.66-.76-.25-.22-.58-.45-1-.7l-.14.13-.49-.37c-.17-.14-.26-.25-.26-.33,0-.47.12-.85.35-1.12.21-.25.59-.47,1.11-.67l1.16-.45v.71l-.86.29c-.34.11-.62.22-.83.31-.27.12-.4.21-.4.27s.09.16.26.29c.11.08.22.17.33.25.42.32.78.65,1.09,1,.34.37.61.76.81,1.16v.72ZM139.34,32.3c0,.3-.13.62-.39.94-.23.29-.51.53-.84.74-.32.2-.58.3-.79.3-.19,0-.4-.03-.62-.08-.17-.04-.37-.11-.6-.19-.2-.07-.4-.15-.59-.22l.07-.17c.18.04.37.07.57.11.2.04.38.06.53.06.35,0,.72-.11,1.1-.34.35-.21.64-.47.89-.78.25-.32.37-.6.37-.85,0-.22-.06-.45-.19-.69-.1-.19-.25-.39-.43-.59l.24-.65c.23.21.39.42.5.63.12.24.18.5.18.79v1ZM143.84,32.3h-.32c-.18,0-.33-.02-.45-.07-.13-.05-.24-.12-.35-.2-.13.1-.24.17-.34.2-.14.05-.33.07-.58.07h-.27c-.14,0-.29-.03-.43-.08-.09-.04-.21-.09-.35-.18-.13.1-.25.17-.36.2-.11.04-.29.06-.54.06h-.8v-.72h.8c.22,0,.38-.02.48-.06.16-.06.24-.19.24-.38,0-.08,0-.16-.01-.24,0-.08-.02-.17-.05-.27l.17-.25c.08.25.14.44.19.55.09.2.18.35.29.45.13.12.28.19.45.19h.28c.21,0,.36-.03.46-.09.11-.07.17-.19.17-.34,0-.09,0-.17-.02-.25-.01-.08-.03-.17-.05-.26l.17-.25.09.39c.07.31.17.52.27.64.09.1.22.16.38.16.07,0,.13-.02.18-.07.05-.05.07-.1.07-.18,0-.15-.06-.32-.17-.49-.02-.03-.09-.12-.2-.27l.27-.45c.11.17.19.32.23.44.06.19.09.44.09.75v.99ZM142.52,28.93l-.31.6-.67-.35.31-.6.68.35ZM142.65,27.82l-.32.6-.66-.36.31-.6.67.36ZM143.47,28.55l-.32.59-.67-.36.31-.59.68.35Z"/>
    <path d="M42.27,32.3c0,.61-.18,1.07-.54,1.35-.39.31-1.01.47-1.88.47-.55,0-.97-.1-1.26-.29-.32-.21-.48-.54-.48-.97,0-.24.03-.48.09-.72.06-.24.14-.49.24-.73.06-.15.17-.38.31-.69l.17.07c-.19.4-.32.71-.38.94-.06.23-.09.44-.09.63,0,.34.12.6.37.78s.59.27,1.04.27c.52,0,.98-.09,1.38-.28.5-.23.75-.55.75-.96,0-.28-.04-.54-.12-.78-.07-.21-.17-.4-.31-.56l.34-.85c.15.22.25.45.3.68.06.23.08.54.08.92v.72ZM40.75,29.14l-.32.6-.67-.35.31-.6.69.35ZM47.32,32.3h-.25c-.23,0-.42-.13-.56-.38-.17-.3-.25-.76-.25-1.38,0-.04,0-.1-.01-.18,0-.07-.01-.12-.01-.14-.26.74-.5,1.24-.71,1.51-.25.32-.59.53-1.04.64-.38.09-1.03.13-1.94.13v-.12c.74-.22,1.29-.42,1.66-.58.59-.26,1.03-.56,1.33-.9.37-.41.55-.89.55-1.45,0-.27-.02-.52-.05-.76-.03-.23-.08-.47-.14-.72l.14-.35c.06-.13.11-.25.15-.34.07.4.14.82.2,1.28.04.32.09.66.13,1.02.05.45.1.81.14,1.08.05.35.12.59.22.74.07.1.13.15.2.15h.25v.72ZM45.02,28.81c.39.45.59.9.59,1.33,0,.06,0,.1,0,.14,0,.04-.02.09-.04.14-.15-.34-.38-.7-.69-1.07-.34-.4-.6-.61-.79-.61-.04,0-.08.04-.12.11-.04.07-.09.11-.14.11-.07,0-.19-.05-.35-.14-.2-.12-.36-.26-.48-.42-.16-.21-.24-.44-.24-.69,0-.17.06-.26.17-.26.2,0,.51.13.93.38.47.28.87.6,1.19.97h0ZM51.28,31.02l-.28.75c-.42.15-.9.28-1.44.38-.55.1-1.05.15-1.51.15h-1.03v-.72h.99c-.08-.13-.14-.28-.19-.44-.05-.16-.07-.32-.07-.48,0-.32.14-.6.41-.82.27-.22.62-.33,1.05-.33.34,0,.62.08.84.25.09.07.25.24.47.51l-.08.07c-.19-.05-.36-.09-.51-.12-.15-.03-.31-.04-.47-.04-.38,0-.68.04-.89.13-.22.08-.32.19-.32.33s.07.29.2.45c.14.17.31.31.53.44.45-.07.82-.14,1.11-.2.29-.06.69-.17,1.21-.33ZM56,27.94l-.2.74-.24-.12v.38c0,.37-.04.73-.13,1.07-.1.38-.26.76-.48,1.13.1.19.18.34.22.45.06.17.09.35.09.53,0,.1,0,.19,0,.26,0,.07-.02.16-.04.25-.29.07-.6.12-.94.15-.33.04-.65.06-.97.06,0-.05,0-.1,0-.13.01-.21.05-.4.1-.58.47-.25.86-.58,1.19-.97-.19-.36-.33-.62-.42-.77-.1-.17-.26-.42-.49-.77-.09-.12-.16-.21-.23-.28-.09-.1-.16-.14-.21-.14-.04,0-.09.02-.18.06-.04.02-.08.03-.11.03-.06,0-.16-.06-.28-.18-.11-.11-.23-.24-.36-.4-.1-.13-.17-.23-.2-.32-.04-.08-.05-.19-.05-.3,0-.17.01-.3.03-.4.03-.15.09-.22.17-.22.11,0,.28.11.49.32.19.19.4.45.64.76.21.28.41.58.61.9l.42.68c.12.2.25.44.38.69.18-.37.31-.75.38-1.13.06-.33.09-.75.09-1.26l-.24-.14c0-.18.02-.35.05-.49.03-.15.08-.28.13-.4l.09.02c.01.12.08.21.2.28.07.04.15.08.25.13.1.05.18.09.24.11ZM54.29,33.88c0,.07-.04.13-.13.19-.06.04-.14.07-.26.12l-.77.26c0-.13.14-.24.41-.33-.09-.04-.15-.09-.19-.13-.06-.05-.09-.11-.09-.17,0-.09.07-.21.22-.36.16-.17.31-.26.43-.26.06,0,.1.02.14.06.04.04.06.09.06.15,0,.04,0,.08-.02.12-.02.04-.04.08-.07.13-.09-.08-.18-.12-.28-.12-.06,0-.12.01-.18.04-.06.02-.09.05-.09.09,0,.04.06.1.19.17.13.07.24.11.33.11.06,0,.1,0,.13,0,.03,0,.08-.02.16-.06ZM54.58,32.15c.23-.03.35-.1.35-.19,0-.06-.01-.12-.04-.19-.02-.06-.08-.17-.15-.32-.08.11-.21.23-.37.37-.16.14-.33.26-.49.36.32,0,.56,0,.69-.03h0ZM57.64,30.02c.05.55.07.96.07,1.23,0,.22-.04.43-.12.64-.04.11-.13.28-.27.52l-.07-.04c0-.08.02-.17.02-.28,0-.1.01-.17.01-.21,0-.29-.02-.69-.07-1.2-.05-.51-.1-1.05-.16-1.61-.04-.34-.08-.68-.13-1.04.06-.12.12-.25.19-.39.07-.14.14-.27.2-.4.04.31.1.74.17,1.29.07.55.12,1.04.16,1.47h0ZM61.72,32.06c0,.45-.17.91-.5,1.35-.37.5-.81.75-1.3.75-.18,0-.37-.02-.56-.06-.14-.03-.32-.08-.55-.16-.18-.06-.36-.13-.54-.19l.07-.14c.15.04.32.07.49.11.17.04.32.06.46.06.34,0,.65-.09.95-.26.23-.13.47-.33.7-.59.12-.13.29-.34.5-.63-.37,0-.65-.06-.83-.18-.21-.13-.31-.36-.31-.66,0-.28.07-.55.2-.79.15-.28.35-.42.59-.42s.41.14.52.42c.08.22.12.52.12.91v.47ZM61.46,31.61c-.06-.26-.13-.45-.22-.55-.07-.09-.17-.13-.27-.13-.08,0-.14.03-.2.08-.06.05-.08.11-.08.19,0,.13.06.24.18.31.12.07.32.11.59.11ZM67.21,32.3h-.59c-.2,0-.37-.17-.52-.51-.11-.25-.2-.58-.27-.98-.08.15-.19.27-.31.36-.13.09-.26.13-.4.13-.32,0-.58-.02-.79-.06-.21-.04-.32-.1-.32-.16,0-.24.15-.5.46-.79.31-.29.69-.54,1.16-.75,0-.02-.02-.08-.04-.17-.02-.09-.03-.15-.03-.17,0-.09.03-.2.09-.31.05-.09.12-.19.21-.29.03.17.06.34.08.5.03.16.06.32.1.5l.12.71c.07.39.13.68.19.87.09.29.17.43.26.43h.59v.72ZM65.21,27.75l-.31.59-.68-.35.32-.59.67.36ZM65.3,30.72c.17,0,.32-.09.47-.26l-.08-.45c-.24.09-.43.17-.57.27-.14.09-.25.21-.35.37.06.02.13.04.2.06.08.01.18.02.32.02h0ZM66.15,27.37l-.31.6-.68-.35.31-.6.67.35ZM69.31,32.3h-2.35v-.72h2.05c0-.32-.04-.57-.12-.74-.05-.12-.18-.29-.39-.51l.32-.67c.2.25.32.45.37.59.07.21.11.56.11,1.05v1.01ZM68.33,33.51l-.31.59-.68-.35.32-.59.67.36ZM69.27,33.12l-.31.6-.68-.35.31-.6.67.35ZM71.2,32.3h-.58c-.19,0-.34-.08-.45-.23-.1-.13-.17-.33-.23-.59-.05-.26-.09-.58-.12-.97-.02-.31-.03-.63-.05-.96-.02-.33-.04-.58-.07-.75s-.07-.31-.12-.42c-.06-.13-.14-.25-.25-.35l.51-.8c.11.33.18.73.23,1.19.03.29.06.96.08,2.03.05.49.12.8.21.94.08.12.16.17.25.17h.58v.72ZM75.18,31.02l-.28.75c-.42.15-.9.28-1.44.38-.55.1-1.05.15-1.51.15h-1.03v-.72h.99c-.08-.13-.14-.28-.19-.44-.05-.16-.07-.32-.07-.48,0-.32.14-.6.41-.82.27-.22.62-.33,1.05-.33.34,0,.62.08.84.25.09.07.25.24.47.51l-.08.07c-.19-.05-.36-.09-.51-.12-.15-.03-.31-.04-.47-.04-.38,0-.68.04-.89.13-.22.08-.32.19-.32.33s.07.29.2.45c.14.17.31.31.53.44.45-.07.82-.14,1.11-.2.29-.06.69-.17,1.21-.33ZM78.46,32.3h-1.85c-.16,0-.3-.05-.42-.14-.13-.09-.19-.2-.19-.32,0-.1,0-.2.02-.28.01-.09.03-.18.06-.28h.09c.03.11.09.19.17.24.07.04.16.06.27.06h1.6c0-.49-.07-.89-.21-1.19-.17-.37-.46-.62-.85-.75l.06-.8c.48.23.81.61,1.01,1.12.16.41.24.95.24,1.62v.72ZM80.21,32.3h-2.04v-.72h1.62l-.49-3.5-.21-.1c0-.19.02-.37.05-.53.03-.17.08-.33.15-.49l.06.05c0,.16.09.28.27.36.14.06.28.11.42.17,0,.14-.01.28-.03.44-.02.16-.05.27-.08.35l-.2-.07.49,3.24v.81ZM81.96,32.3h-2.04v-.72h1.62l-.49-3.5-.21-.1c0-.19.02-.37.05-.53.03-.17.08-.33.15-.49l.06.05c0,.16.09.28.27.36.14.06.28.11.42.17,0,.14-.01.28-.03.44-.02.16-.05.27-.08.35l-.2-.07.49,3.24v.81ZM90.28,32.3h-3.94c-.53,0-.95-.09-1.26-.28-.39-.23-.59-.59-.59-1.09,0-.26.06-.52.17-.78.04-.1.14-.28.3-.55l.12.08c-.06.13-.12.25-.18.38-.08.2-.12.37-.12.52,0,.32.17.58.51.76.31.16.69.24,1.16.24h3.5v-.11c0-.31-.04-.56-.11-.75s-.2-.36-.38-.5l.32-.67c.12.15.19.25.22.28.19.31.28.76.28,1.35v1.12ZM87.39,28.93l-.31.6-.67-.35.31-.6.68.35ZM87.53,27.82l-.32.6-.66-.36.31-.6.67.36ZM88.34,28.55l-.32.59-.67-.36.31-.59.68.35ZM92.37,32.3h-2.35v-.72h2.05c0-.32-.04-.57-.12-.74-.05-.12-.18-.29-.39-.51l.32-.67c.2.25.32.45.37.59.07.21.11.56.11,1.05v1.01ZM91.39,33.51l-.31.59-.68-.35.32-.59.67.36ZM92.33,33.12l-.31.6-.68-.35.31-.6.67.35ZM95.18,32.3h-1.85c-.16,0-.3-.05-.42-.14-.13-.09-.19-.2-.19-.32,0-.1,0-.2.02-.28.01-.09.03-.18.06-.28h.09c.03.11.09.19.17.24.07.04.16.06.27.06h1.6c0-.49-.07-.89-.21-1.19-.17-.37-.46-.62-.85-.75l.06-.8c.48.23.81.61,1.01,1.12.16.41.24.95.24,1.62v.72ZM99.66,32.3h-4.77v-.72h3.37c-.28-.22-.52-.39-.71-.51-.24-.15-.46-.26-.66-.33-.22-.08-.45-.12-.68-.12-.14,0-.28,0-.43.03.08-.2.18-.37.31-.49.19-.18.42-.27.71-.27s.61.14,1,.41c.19.14.5.4.93.78.33.3.56.46.68.49h.25v.72ZM101.41,32.3h-2.04v-.72h1.62l-.49-3.5-.21-.1c0-.19.02-.37.05-.53.03-.17.08-.33.15-.49l.06.05c0,.16.09.28.27.36.14.06.28.11.42.17,0,.14-.01.28-.03.44-.02.16-.05.27-.08.35l-.2-.07.49,3.24v.81ZM102.73,30.02c.05.55.07.96.07,1.23,0,.22-.04.43-.12.64-.04.11-.13.28-.27.52l-.07-.04c0-.08.02-.17.02-.28,0-.1.01-.17.01-.21,0-.29-.02-.69-.07-1.2-.05-.51-.1-1.05-.16-1.61-.04-.34-.08-.68-.13-1.04.06-.12.12-.25.19-.39.07-.14.14-.27.2-.4.04.31.1.74.17,1.29.07.55.12,1.04.16,1.47h0ZM108.41,32.3h-.49c-.46,0-.86.04-1.2.13-.43.11-.65.26-.65.46,0,.18.03.38.09.58s.13.42.19.63c.06.21.1.41.1.58,0,.1,0,.2-.02.28-.02.09-.04.2-.08.33-.07-.23-.14-.46-.21-.69-.13-.44-.23-.76-.29-.99-.1-.35-.15-.56-.15-.64,0-.35.07-.62.22-.81.15-.19.37-.33.68-.42.24-.07.61-.13,1.09-.18-.17-.18-.28-.28-.32-.31-.14-.11-.28-.17-.43-.17-.09,0-.18.03-.26.08-.07.04-.15.12-.24.23l-.19-.12c.08-.21.18-.37.28-.5.17-.2.38-.31.62-.31.17,0,.34.06.51.19.14.1.28.25.43.44.07.09.18.25.32.46v.72ZM110.48,32.3h-2.35v-.72h2.05c0-.32-.04-.57-.12-.74-.05-.12-.18-.29-.39-.51l.32-.67c.2.25.32.45.37.59.07.21.11.56.11,1.05v1.01ZM109.5,33.51l-.31.59-.68-.35.32-.59.67.36ZM110.44,33.12l-.31.6-.68-.35.31-.6.67.35ZM113.76,32.3h-.43c-.18,0-.39-.04-.62-.12-.27-.1-.5-.23-.71-.4-.16.2-.32.33-.49.41-.17.08-.41.11-.73.11h-.64v-.72h.63c.25,0,.47-.06.67-.19.15-.1.29-.24.41-.42.17-.24.37-.45.62-.63.22-.16.42-.26.61-.31.19.29.34.55.45.78.15.31.23.57.23.76v.72ZM113.29,31.49c-.04-.16-.09-.32-.17-.47-.06-.13-.15-.26-.25-.4-.13.03-.24.09-.33.19-.06.06-.13.16-.21.29.1.11.24.2.42.29.18.09.35.14.51.16l.04-.05ZM120.92,32.3h-4.96c-.15,0-.29-.02-.43-.07-.1-.04-.22-.1-.36-.19-.12.1-.23.17-.35.2s-.3.06-.55.06h-.8v-.72h.8c.22,0,.38-.02.48-.06.16-.06.24-.19.24-.38,0-.08,0-.16-.01-.24,0-.08-.02-.17-.04-.27l.17-.25c.1.37.23.66.4.87.18.22.39.33.63.33s.5-.05.81-.16c.34-.11.62-.26.87-.43.39-.28.63-.45.72-.5.22-.14.43-.25.61-.31.2-.07.43-.1.67-.1.37,0,.66.11.85.33.18.2.26.48.26.85v1.04ZM120.24,31.27c0-.13-.08-.24-.25-.32-.17-.08-.36-.11-.59-.11-.28,0-.61.09-1,.28-.31.16-.62.31-.93.47h1.9c.3,0,.52-.03.66-.08.14-.05.21-.13.21-.24ZM122.98,32.3h-2.35v-.72h2.05c0-.32-.04-.57-.12-.74-.05-.12-.18-.29-.39-.51l.32-.67c.2.25.32.45.37.59.07.21.11.56.11,1.05v1.01ZM122.01,28.61l-.31.59-.68-.35.32-.59.67.36ZM122.96,28.22l-.31.6-.68-.35.31-.6.67.35ZM124.68,32.3h-2.04v-.72h1.62l-.49-3.5-.21-.1c0-.19.02-.37.05-.53.03-.17.08-.33.15-.49l.06.05c0,.16.09.28.27.36.14.06.28.11.42.17,0,.14-.01.28-.03.44-.02.16-.05.27-.08.35l-.2-.07.49,3.24v.81ZM126,30.02c.05.55.07.96.07,1.23,0,.22-.04.43-.12.64-.04.11-.13.28-.27.52l-.07-.04c0-.08.02-.17.02-.28,0-.1.01-.17.01-.21,0-.29-.02-.69-.07-1.2-.05-.51-.1-1.05-.16-1.61-.04-.34-.08-.68-.13-1.04.06-.12.12-.25.19-.39.07-.14.14-.27.2-.4.04.31.1.74.17,1.29.07.55.12,1.04.16,1.47h0Z"/>
  </g>
  <g>
    <path class="st3" d="M132.47,53.25c0,.34-.03.62-.1.83-.07.21-.18.37-.33.5-.15.13-.38.23-.67.31-.29.08-.6.12-.91.12-.6,0-1.07-.11-1.4-.33-.33-.22-.49-.53-.49-.94,0-.35.05-.66.16-.95.11-.32.34-.73.67-1.23l.22.16c-.25.42-.41.72-.48.91-.08.19-.11.38-.11.58,0,.26.14.47.42.64.28.17.65.25,1.1.25s.82-.09,1.13-.26c.31-.17.46-.38.46-.63,0-.15-.03-.31-.08-.46-.05-.15-.17-.39-.34-.73l.33-1.01c.17.32.28.53.32.65.07.22.11.49.11.82v.75ZM131.25,50.31l-.45.83-.87-.45.45-.84.87.46ZM134.26,53.43h-.52c-.29,0-.5-.12-.63-.36-.14-.26-.22-.71-.22-1.33v-1.06c0-.24-.03-.43-.1-.56-.03-.06-.11-.16-.22-.28l.4-.93c.14.2.24.39.3.59.07.23.1.51.1.86v.73c0,.52.03.88.1,1.08.05.16.14.24.26.24h.52v1.01ZM136.3,53.43h-2.33v-1.01h1.96c-.03-.17-.08-.31-.15-.43-.04-.06-.12-.18-.26-.34l.3-.89c.19.21.31.43.38.66.07.23.1.57.1,1.03v.97ZM135.92,54.2l-.45.83-.87-.45.45-.84.87.46ZM138.41,53.43h-2.33v-1.01h1.96c-.03-.17-.08-.31-.15-.43-.04-.06-.12-.18-.26-.34l.3-.89c.19.21.31.43.38.66.07.23.1.57.1,1.03v.97ZM138.35,54.09l-.39.72-.55-.28-.31.6-.68-.38.41-.76.53.3.3-.59.69.38ZM140.27,48.31c-.09.17-.21.29-.35.36-.14.07-.3.11-.48.11-.09,0-.21-.01-.34-.04-.06-.01-.11-.02-.15-.03-.04,0-.08,0-.11,0-.03,0-.05,0-.07,0-.02,0-.04,0-.06.02s-.04.02-.06.03c-.02.01-.05.03-.09.05l-.06-.04c.05-.12.11-.21.17-.27.06-.06.15-.09.25-.09.04,0,.08,0,.13,0,.05,0,.1.02.16.03.06.01.13.02.18.03.06,0,.11.01.17.01.12,0,.24-.02.34-.06.11-.04.2-.09.29-.16l.07.05ZM141.85,49.25c.06.04.26.12.6.22,0,.17-.02.35-.05.53-.01.07-.05.21-.1.41l-.27-.1c0,.29-.03.58-.1.88-.07.29-.18.58-.34.86.14.25.22.39.24.43.06.11.09.22.09.31v.12c0,.06-.02.32-.06.76-.28.13-.54.22-.76.26-.22.04-.55.06-.99.06v-1.1c.25-.13.43-.24.54-.33.11-.09.25-.24.42-.46-.28-.36-.49-.61-.62-.76-.1-.12-.24-.26-.4-.41-.04.08-.07.14-.09.16-.02.03-.04.04-.05.04-.06,0-.17-.05-.34-.15-.15-.09-.26-.17-.34-.25-.08-.07-.14-.21-.18-.4s-.06-.45-.06-.75c0-.13,0-.23.02-.28.02-.05.05-.08.1-.08.1,0,.29.14.59.42.25.24.48.48.68.72.16.17.3.34.42.51.11.15.29.41.54.78.11-.21.19-.48.23-.81.02-.2.04-.44.04-.71-.09-.04-.15-.08-.18-.12-.03-.04-.05-.1-.05-.17,0-.15.02-.3.05-.45.03-.15.09-.32.16-.48l.16.05c0,.16.04.26.11.32h0ZM141.47,52.71l-.18-.28c-.11.12-.19.21-.25.26-.06.05-.16.13-.31.23.19-.02.32-.04.4-.07.08-.02.19-.07.33-.15ZM143.91,51.53c.02.28.04.56.04.82,0,.22-.03.42-.08.61s-.15.43-.3.74l-.22-.09c.06-.32.09-.58.09-.77,0-.15-.01-.37-.04-.67-.02-.29-.06-.58-.09-.87-.04-.29-.1-.63-.18-1.03-.03-.14-.04-.23-.04-.29,0-.08.04-.21.12-.39.08-.19.19-.41.32-.67l.22,1.32c.08.5.14.94.17,1.3h0ZM149.18,53.43h-.48c-.45,0-.86.03-1.21.11-.35.08-.53.17-.53.26.1.3.18.58.26.84.08.26.11.51.11.74,0,.17-.02.31-.05.41-.03.1-.1.22-.19.34-.03-.33-.09-.67-.18-1.03-.03-.13-.11-.39-.24-.8-.08-.25-.12-.42-.12-.5,0-.12.03-.26.1-.44.05-.14.11-.27.18-.38.08-.12.22-.22.42-.29.2-.07.5-.13.9-.18-.2-.28-.37-.42-.52-.42-.06,0-.13.02-.18.07-.06.05-.15.16-.28.33l-.18-.09c.11-.38.24-.67.4-.88.16-.2.34-.31.53-.31.17,0,.35.1.56.29.2.19.44.49.71.89v1.01ZM151.5,53.43h-2.59v-1.01h2.24c0-.22,0-.37-.02-.46-.02-.14-.06-.26-.12-.37-.08.15-.19.27-.32.35-.13.08-.28.12-.43.12-.2,0-.37-.07-.5-.2-.14-.13-.2-.3-.2-.5,0-.29.09-.64.27-1.04.2-.44.39-.66.6-.66.26,0,.51.23.74.68.23.45.35.94.35,1.44v1.64ZM151.15,48.46l-.39.72-.55-.28-.31.6-.68-.38.41-.76.53.3.3-.59.69.38ZM150.69,50.92c-.07-.12-.13-.2-.18-.24-.05-.05-.11-.07-.17-.07-.07,0-.14.03-.2.1-.06.07-.09.15-.09.23,0,.06.02.1.07.14.05.04.1.06.18.06.06,0,.11-.02.17-.05.06-.03.13-.09.21-.17ZM154.8,53.52c0,.15-.09.35-.26.6-.17.25-.38.47-.61.65-.26.2-.48.31-.66.31-.22,0-.45-.06-.7-.19-.22-.11-.56-.32-1.02-.64l.16-.23c.22.15.4.25.54.3.14.05.28.08.44.08.17,0,.34-.05.51-.15s.4-.28.7-.54c.41-.37.62-.65.62-.85,0-.1-.04-.23-.12-.39-.09-.18-.2-.34-.33-.46l.21-1.01c.17.17.3.37.39.6.09.23.14.48.14.77v1.14Z"/>
    <path class="st3" d="M124.41,50.57h1.05v1.05h-1.05v-1.05ZM124.41,53.48h1.05v1.05h-1.05v-1.05Z"/>
    <g>
      <path class="st3" d="M31.78,53.08c0,.25-.05.48-.14.67-.09.19-.22.35-.38.48-.16.13-.35.22-.57.29-.22.06-.45.1-.69.1-.17,0-.32-.01-.46-.04-.14-.03-.27-.06-.38-.1-.11-.04-.2-.08-.27-.12s-.13-.08-.16-.11c-.03-.03-.06-.08-.07-.14-.01-.06-.02-.15-.02-.26,0-.08,0-.14,0-.19,0-.05.01-.09.02-.13.01-.03.03-.05.04-.07.02-.01.04-.02.07-.02.03,0,.08.02.15.06.06.04.14.09.24.14.1.05.22.1.36.14.14.04.3.06.48.06.12,0,.23-.01.32-.04.09-.03.17-.07.24-.12.07-.05.12-.12.15-.19s.05-.16.05-.26c0-.11-.03-.2-.09-.28-.06-.08-.14-.15-.23-.21-.1-.06-.2-.12-.33-.17-.12-.05-.25-.11-.38-.17-.13-.06-.25-.13-.38-.2-.12-.08-.23-.17-.33-.27s-.17-.23-.23-.37c-.06-.14-.09-.32-.09-.52,0-.23.04-.43.13-.61s.2-.32.35-.44c.15-.12.32-.2.51-.26s.41-.09.63-.09c.11,0,.23,0,.34.03.11.02.22.04.32.07s.19.06.26.1.13.07.15.09c.02.02.04.05.05.06,0,.02.02.04.02.07,0,.03.01.06.01.11,0,.04,0,.1,0,.16,0,.07,0,.13,0,.18,0,.05-.01.09-.02.12s-.02.06-.04.07-.04.02-.07.02-.07-.02-.13-.05c-.06-.04-.13-.07-.22-.11-.09-.04-.19-.08-.3-.11-.11-.03-.24-.05-.38-.05-.11,0-.2.01-.28.04-.08.03-.15.06-.2.11s-.09.1-.12.17c-.03.06-.04.13-.04.2,0,.11.03.2.09.28.06.08.14.15.23.21.1.06.21.12.33.17.12.05.25.11.38.17.13.06.26.13.38.2.12.08.23.17.33.27s.18.23.23.37c.06.14.09.31.09.51Z"/>
      <path class="st3" d="M36.46,54.16c.03.09.05.16.06.21s0,.09-.03.12-.08.04-.15.05c-.07,0-.16,0-.29,0s-.23,0-.3,0c-.07,0-.12-.01-.16-.02-.04-.01-.06-.03-.08-.05-.01-.02-.03-.05-.04-.08l-.32-.97h-1.81l-.31.94s-.02.06-.04.09c-.02.02-.04.04-.08.06-.04.01-.09.02-.15.03-.07,0-.15,0-.26,0-.11,0-.2,0-.27-.01s-.11-.03-.13-.05c-.03-.03-.03-.07-.03-.12s.03-.12.06-.21l1.49-4.28s.03-.08.05-.1.05-.05.1-.06c.04-.01.1-.02.18-.03s.18,0,.31,0c.15,0,.26,0,.35,0,.09,0,.15.01.2.03.05.01.08.03.1.06.02.03.04.07.05.11l1.49,4.27ZM34.25,50.62h0l-.68,2.05h1.37l-.68-2.05Z"/>
    </g>
    <g>
      <path class="st3" d="M40.14,54.12c0,.07,0,.13,0,.18,0,.05-.02.09-.03.12-.01.03-.03.06-.05.07-.02.01-.04.02-.07.02h-2.77c-.05,0-.1,0-.14-.01-.04,0-.07-.03-.1-.06-.03-.03-.04-.07-.05-.12s-.02-.13-.02-.21c0-.08,0-.15.01-.21s.02-.11.04-.16c.02-.05.05-.09.08-.13.03-.04.07-.09.12-.14l.83-.89c.17-.17.3-.33.4-.47.1-.14.18-.27.24-.39.06-.12.1-.23.12-.33.02-.1.03-.19.03-.28,0-.08-.01-.16-.04-.23s-.06-.14-.12-.19-.11-.1-.19-.13c-.08-.03-.17-.05-.27-.05-.15,0-.28.02-.39.06s-.21.08-.3.12c-.09.05-.16.09-.21.13-.06.04-.1.06-.13.06-.02,0-.04,0-.06-.02-.02-.01-.03-.04-.04-.07,0-.03-.02-.08-.02-.14,0-.06,0-.13,0-.21,0-.06,0-.1,0-.14,0-.04,0-.07.02-.1s.02-.05.03-.07c.01-.02.03-.05.07-.08s.09-.07.17-.11c.08-.05.19-.09.31-.13s.26-.08.4-.11.3-.04.46-.04c.25,0,.47.03.66.1.19.06.34.15.47.26s.22.25.28.4c.06.15.09.32.09.5,0,.16-.01.31-.04.46-.03.15-.09.31-.19.49-.09.18-.23.37-.4.58-.17.21-.4.46-.68.74l-.56.58h1.9s.05,0,.07.02c.02.01.04.04.05.07.01.03.03.07.03.12s.01.11.01.18Z"/>
      <path class="st3" d="M44.01,54.12c0,.07,0,.13,0,.18,0,.05-.02.09-.03.12-.01.03-.03.06-.05.07-.02.01-.04.02-.07.02h-2.77c-.05,0-.1,0-.14-.01-.04,0-.07-.03-.1-.06-.03-.03-.04-.07-.05-.12s-.02-.13-.02-.21c0-.08,0-.15.01-.21s.02-.11.04-.16c.02-.05.05-.09.08-.13.03-.04.07-.09.12-.14l.83-.89c.17-.17.3-.33.4-.47.1-.14.18-.27.24-.39.06-.12.1-.23.12-.33.02-.1.03-.19.03-.28,0-.08-.01-.16-.04-.23s-.06-.14-.12-.19-.11-.1-.19-.13c-.08-.03-.17-.05-.27-.05-.15,0-.28.02-.39.06s-.21.08-.3.12c-.09.05-.16.09-.21.13-.06.04-.1.06-.13.06-.02,0-.04,0-.06-.02-.02-.01-.03-.04-.04-.07,0-.03-.02-.08-.02-.14,0-.06,0-.13,0-.21,0-.06,0-.1,0-.14,0-.04,0-.07.02-.1s.02-.05.03-.07c.01-.02.03-.05.07-.08s.09-.07.17-.11c.08-.05.19-.09.31-.13s.26-.08.4-.11.3-.04.46-.04c.25,0,.47.03.66.1.19.06.34.15.47.26s.22.25.28.4c.06.15.09.32.09.5,0,.16-.01.31-.04.46-.03.15-.09.31-.19.49-.09.18-.23.37-.4.58-.17.21-.4.46-.68.74l-.56.58h1.9s.05,0,.07.02c.02.01.04.04.05.07.01.03.03.07.03.12s.01.11.01.18Z"/>
      <path class="st3" d="M47.97,52.09c0,.39-.03.73-.09,1.04s-.16.58-.3.79-.32.39-.55.5-.5.18-.83.18-.6-.06-.82-.17c-.22-.11-.39-.28-.51-.49-.13-.21-.22-.47-.27-.78s-.08-.65-.08-1.04.03-.73.1-1.04c.06-.31.16-.58.31-.8s.32-.39.55-.5c.22-.12.5-.18.82-.18s.6.06.82.17.39.28.52.49c.13.21.22.47.26.78.05.31.07.65.07,1.04ZM46.99,52.14c0-.23,0-.43-.02-.61-.01-.18-.03-.33-.06-.46-.03-.13-.06-.24-.1-.33-.04-.09-.08-.16-.14-.21s-.12-.09-.19-.11c-.07-.02-.15-.03-.23-.03-.15,0-.27.04-.36.11s-.17.18-.23.32c-.06.14-.09.32-.12.53s-.03.46-.03.74c0,.34.01.63.04.85.03.23.07.4.13.54.06.13.13.23.23.28.09.05.2.08.33.08.1,0,.18-.02.26-.05.07-.03.14-.08.2-.14.06-.06.1-.14.14-.23s.07-.2.09-.33.04-.26.05-.42c0-.16.01-.33.01-.52Z"/>
      <path class="st3" d="M51.7,52.96c0,.26-.05.49-.14.7-.09.2-.22.38-.38.52-.17.14-.36.25-.6.32-.23.07-.49.11-.77.11-.15,0-.29,0-.42-.03-.13-.02-.25-.04-.36-.07-.11-.03-.19-.06-.26-.09-.07-.03-.11-.05-.13-.07-.02-.02-.04-.04-.05-.06-.01-.02-.02-.05-.02-.08,0-.03-.01-.07-.01-.12s0-.1,0-.17c0-.07,0-.13,0-.18,0-.05.01-.09.02-.12s.02-.05.04-.06c.01-.01.03-.02.05-.02.02,0,.06.01.11.04.05.03.12.06.2.1.08.04.18.07.3.1.12.03.26.04.43.04.14,0,.27-.01.39-.04.12-.03.22-.08.3-.14s.15-.15.19-.25c.04-.1.07-.22.07-.36,0-.12-.02-.23-.06-.32-.04-.09-.1-.17-.18-.24-.08-.06-.18-.11-.31-.15-.13-.03-.28-.05-.46-.05-.14,0-.27,0-.39.02-.12.01-.23.02-.33.02-.07,0-.12-.02-.15-.05-.03-.04-.05-.1-.05-.2v-2.09c0-.1.02-.17.06-.21s.1-.07.18-.07h2.28s.04,0,.06.02.04.04.05.07c.01.03.02.08.03.13,0,.05,0,.12,0,.19,0,.15-.01.26-.04.32-.03.07-.06.1-.11.1h-1.71v1.03c.09,0,.17-.02.26-.02s.18,0,.27,0c.26,0,.49.03.69.09s.37.15.51.27c.14.12.24.26.31.44.07.18.11.38.11.61Z"/>
      <path class="st3" d="M55.71,52.09c0,.39-.03.73-.09,1.04s-.16.58-.3.79-.32.39-.55.5-.5.18-.83.18-.6-.06-.82-.17c-.22-.11-.39-.28-.51-.49-.13-.21-.22-.47-.27-.78s-.08-.65-.08-1.04.03-.73.1-1.04c.06-.31.16-.58.31-.8s.32-.39.55-.5c.22-.12.5-.18.82-.18s.6.06.82.17.39.28.52.49c.13.21.22.47.26.78.05.31.07.65.07,1.04ZM54.72,52.14c0-.23,0-.43-.02-.61-.01-.18-.03-.33-.06-.46-.03-.13-.06-.24-.1-.33-.04-.09-.08-.16-.14-.21s-.12-.09-.19-.11c-.07-.02-.15-.03-.23-.03-.15,0-.27.04-.36.11s-.17.18-.23.32c-.06.14-.09.32-.12.53s-.03.46-.03.74c0,.34.01.63.04.85.03.23.07.4.13.54.06.13.13.23.23.28.09.05.2.08.33.08.1,0,.18-.02.26-.05.07-.03.14-.08.2-.14.06-.06.1-.14.14-.23s.07-.2.09-.33.04-.26.05-.42c0-.16.01-.33.01-.52Z"/>
      <path class="st3" d="M59.58,52.09c0,.39-.03.73-.09,1.04s-.16.58-.3.79-.32.39-.55.5-.5.18-.83.18-.6-.06-.82-.17c-.22-.11-.39-.28-.51-.49-.13-.21-.22-.47-.27-.78s-.08-.65-.08-1.04.03-.73.1-1.04c.06-.31.16-.58.31-.8s.32-.39.55-.5c.22-.12.5-.18.82-.18s.6.06.82.17.39.28.52.49c.13.21.22.47.26.78.05.31.07.65.07,1.04ZM58.59,52.14c0-.23,0-.43-.02-.61-.01-.18-.03-.33-.06-.46-.03-.13-.06-.24-.1-.33-.04-.09-.08-.16-.14-.21s-.12-.09-.19-.11c-.07-.02-.15-.03-.23-.03-.15,0-.27.04-.36.11s-.17.18-.23.32c-.06.14-.09.32-.12.53s-.03.46-.03.74c0,.34.01.63.04.85.03.23.07.4.13.54.06.13.13.23.23.28.09.05.2.08.33.08.1,0,.18-.02.26-.05.07-.03.14-.08.2-.14.06-.06.1-.14.14-.23s.07-.2.09-.33.04-.26.05-.42c0-.16.01-.33.01-.52Z"/>
      <path class="st3" d="M63.44,52.09c0,.39-.03.73-.09,1.04s-.16.58-.3.79-.32.39-.55.5-.5.18-.83.18-.6-.06-.82-.17c-.22-.11-.39-.28-.51-.49-.13-.21-.22-.47-.27-.78s-.08-.65-.08-1.04.03-.73.1-1.04c.06-.31.16-.58.31-.8s.32-.39.55-.5c.22-.12.5-.18.82-.18s.6.06.82.17.39.28.52.49c.13.21.22.47.26.78.05.31.07.65.07,1.04ZM62.46,52.14c0-.23,0-.43-.02-.61-.01-.18-.03-.33-.06-.46-.03-.13-.06-.24-.1-.33-.04-.09-.08-.16-.14-.21s-.12-.09-.19-.11c-.07-.02-.15-.03-.23-.03-.15,0-.27.04-.36.11s-.17.18-.23.32c-.06.14-.09.32-.12.53s-.03.46-.03.74c0,.34.01.63.04.85.03.23.07.4.13.54.06.13.13.23.23.28.09.05.2.08.33.08.1,0,.18-.02.26-.05.07-.03.14-.08.2-.14.06-.06.1-.14.14-.23s.07-.2.09-.33.04-.26.05-.42c0-.16.01-.33.01-.52Z"/>
      <path class="st3" d="M67.31,52.09c0,.39-.03.73-.09,1.04s-.16.58-.3.79-.32.39-.55.5-.5.18-.83.18-.6-.06-.82-.17c-.22-.11-.39-.28-.51-.49-.13-.21-.22-.47-.27-.78s-.08-.65-.08-1.04.03-.73.1-1.04c.06-.31.16-.58.31-.8s.32-.39.55-.5c.22-.12.5-.18.82-.18s.6.06.82.17.39.28.52.49c.13.21.22.47.26.78.05.31.07.65.07,1.04ZM66.32,52.14c0-.23,0-.43-.02-.61-.01-.18-.03-.33-.06-.46-.03-.13-.06-.24-.1-.33-.04-.09-.08-.16-.14-.21s-.12-.09-.19-.11c-.07-.02-.15-.03-.23-.03-.15,0-.27.04-.36.11s-.17.18-.23.32c-.06.14-.09.32-.12.53s-.03.46-.03.74c0,.34.01.63.04.85.03.23.07.4.13.54.06.13.13.23.23.28.09.05.2.08.33.08.1,0,.18-.02.26-.05.07-.03.14-.08.2-.14.06-.06.1-.14.14-.23s.07-.2.09-.33.04-.26.05-.42c0-.16.01-.33.01-.52Z"/>
      <path class="st3" d="M71.16,52.91c0,.24-.04.47-.11.68-.07.21-.18.39-.33.54s-.32.27-.53.35c-.21.09-.45.13-.73.13-.22,0-.42-.03-.58-.08-.17-.05-.31-.12-.43-.22-.12-.1-.22-.21-.3-.35s-.14-.29-.18-.46c-.05-.17-.08-.36-.1-.56-.02-.2-.03-.41-.03-.64,0-.19,0-.39.03-.59.02-.21.05-.41.11-.61.05-.2.13-.39.23-.57s.22-.34.37-.47c.15-.13.34-.24.56-.32.22-.08.48-.12.77-.12.09,0,.19,0,.29.02.1.01.18.03.27.04.08.02.15.04.21.06s.1.04.11.06.03.03.04.05c0,.02.02.04.02.07,0,.02.01.05.01.09,0,.04,0,.08,0,.13,0,.08,0,.14,0,.19s-.01.09-.02.12c0,.03-.02.05-.04.06-.02.01-.04.02-.06.02-.03,0-.07,0-.12-.02-.05-.02-.1-.03-.17-.05-.07-.02-.15-.04-.24-.05-.09-.01-.2-.02-.31-.02-.2,0-.37.04-.51.11-.14.07-.25.18-.34.3-.09.13-.15.28-.19.45-.04.17-.06.35-.06.54.05-.04.12-.07.19-.1.07-.03.15-.06.23-.09.08-.02.17-.05.27-.06.1-.02.2-.02.31-.02.24,0,.45.03.63.1.17.07.32.16.43.29.11.12.19.27.24.45.05.18.08.37.08.59ZM70.19,53c0-.13-.01-.24-.03-.33-.02-.1-.06-.18-.11-.24s-.12-.12-.2-.15c-.08-.03-.18-.05-.3-.05-.07,0-.14,0-.2.02-.07.01-.13.03-.2.05-.06.02-.13.05-.19.08-.06.03-.12.06-.17.1,0,.27.01.49.04.67.03.18.07.32.13.42.06.1.13.18.22.22.09.04.19.07.31.07s.21-.02.3-.06c.09-.04.16-.1.21-.18s.1-.17.13-.27c.03-.1.04-.22.04-.34Z"/>
      <path class="st3" d="M75.02,53.23c0,.22-.04.41-.11.59-.08.17-.19.32-.34.43s-.33.21-.55.27c-.22.06-.47.09-.76.09s-.51-.03-.72-.08c-.21-.05-.38-.13-.52-.24s-.24-.24-.31-.39c-.07-.16-.1-.33-.1-.53,0-.14.02-.26.06-.39.04-.12.1-.23.18-.34.08-.1.18-.2.3-.29s.26-.18.42-.26c-.13-.07-.24-.14-.34-.23s-.19-.17-.26-.26c-.07-.1-.13-.2-.16-.31-.04-.11-.06-.24-.06-.37,0-.19.03-.37.1-.53s.17-.29.31-.41.3-.2.51-.27c.2-.06.44-.09.71-.09s.49.03.68.09.35.14.47.24c.12.1.21.23.27.37s.09.31.09.48c0,.12-.02.23-.06.34-.04.11-.09.22-.16.31-.07.1-.16.19-.26.28-.1.09-.22.17-.35.24.15.08.29.16.41.25.12.09.22.19.3.29.08.1.14.21.19.33.04.12.07.24.07.38ZM74.05,53.3c0-.09-.02-.18-.05-.25-.03-.08-.08-.15-.15-.21s-.15-.13-.25-.19-.21-.12-.35-.19c-.11.06-.22.12-.3.19s-.16.13-.22.2c-.06.07-.1.14-.13.22-.03.08-.04.16-.04.24,0,.19.06.34.19.44s.31.15.56.15.43-.05.55-.16c.12-.1.18-.25.18-.43ZM73.94,50.89c0-.09-.01-.16-.04-.23s-.06-.13-.12-.18-.12-.08-.2-.11c-.08-.02-.17-.04-.28-.04-.21,0-.36.05-.47.14-.1.1-.15.23-.15.4,0,.08.01.15.04.22.03.07.07.13.12.19.05.06.13.12.21.18.09.06.19.12.31.18.18-.11.32-.22.42-.34.1-.12.15-.26.15-.41Z"/>
      <path class="st3" d="M78.82,54.12c0,.07,0,.13,0,.18,0,.05-.02.09-.03.12-.01.03-.03.06-.05.07-.02.01-.04.02-.07.02h-2.77c-.05,0-.1,0-.14-.01-.04,0-.07-.03-.1-.06-.03-.03-.04-.07-.05-.12s-.02-.13-.02-.21c0-.08,0-.15.01-.21s.02-.11.04-.16c.02-.05.05-.09.08-.13.03-.04.07-.09.12-.14l.83-.89c.17-.17.3-.33.4-.47.1-.14.18-.27.24-.39.06-.12.1-.23.12-.33.02-.1.03-.19.03-.28,0-.08-.01-.16-.04-.23s-.06-.14-.12-.19-.11-.1-.19-.13c-.08-.03-.17-.05-.27-.05-.15,0-.28.02-.39.06s-.21.08-.3.12c-.09.05-.16.09-.21.13-.06.04-.1.06-.13.06-.02,0-.04,0-.06-.02-.02-.01-.03-.04-.04-.07,0-.03-.02-.08-.02-.14,0-.06,0-.13,0-.21,0-.06,0-.1,0-.14,0-.04,0-.07.02-.1s.02-.05.03-.07c.01-.02.03-.05.07-.08s.09-.07.17-.11c.08-.05.19-.09.31-.13s.26-.08.4-.11.3-.04.46-.04c.25,0,.47.03.66.1.19.06.34.15.47.26s.22.25.28.4c.06.15.09.32.09.5,0,.16-.01.31-.04.46-.03.15-.09.31-.19.49-.09.18-.23.37-.4.58-.17.21-.4.46-.68.74l-.56.58h1.9s.05,0,.07.02c.02.01.04.04.05.07.01.03.03.07.03.12s.01.11.01.18Z"/>
      <path class="st3" d="M82.78,52.09c0,.39-.03.73-.09,1.04s-.16.58-.3.79-.32.39-.55.5-.5.18-.83.18-.6-.06-.82-.17c-.22-.11-.39-.28-.51-.49-.13-.21-.22-.47-.27-.78s-.08-.65-.08-1.04.03-.73.1-1.04c.06-.31.16-.58.31-.8s.32-.39.55-.5c.22-.12.5-.18.82-.18s.6.06.82.17.39.28.52.49c.13.21.22.47.26.78.05.31.07.65.07,1.04ZM81.79,52.14c0-.23,0-.43-.02-.61-.01-.18-.03-.33-.06-.46-.03-.13-.06-.24-.1-.33-.04-.09-.08-.16-.14-.21s-.12-.09-.19-.11c-.07-.02-.15-.03-.23-.03-.15,0-.27.04-.36.11s-.17.18-.23.32c-.06.14-.09.32-.12.53s-.03.46-.03.74c0,.34.01.63.04.85.03.23.07.4.13.54.06.13.13.23.23.28.09.05.2.08.33.08.1,0,.18-.02.26-.05.07-.03.14-.08.2-.14.06-.06.1-.14.14-.23s.07-.2.09-.33.04-.26.05-.42c0-.16.01-.33.01-.52Z"/>
      <path class="st3" d="M86.53,53.11c0,.24-.05.45-.14.64-.09.19-.22.34-.38.47-.16.13-.36.22-.59.29-.23.07-.48.1-.75.1-.16,0-.32-.01-.46-.04-.14-.02-.27-.05-.38-.09-.11-.03-.2-.07-.27-.11-.07-.04-.12-.07-.14-.09-.02-.02-.04-.04-.05-.07-.01-.03-.02-.05-.03-.09,0-.03-.01-.08-.02-.13s0-.11,0-.18c0-.12,0-.2.03-.25.02-.05.05-.07.09-.07.03,0,.07.02.13.05.06.03.14.07.23.11.09.04.2.07.33.11.13.03.27.05.43.05.14,0,.26-.02.36-.05s.19-.08.27-.14c.07-.06.13-.13.16-.21.04-.08.05-.18.05-.28,0-.11-.02-.21-.07-.3s-.11-.17-.19-.23c-.09-.06-.19-.11-.32-.15-.13-.03-.28-.05-.46-.05h-.42s-.06,0-.08-.01c-.02,0-.04-.03-.06-.05-.01-.03-.03-.07-.03-.11,0-.05,0-.11,0-.19,0-.07,0-.13,0-.18,0-.05.02-.08.03-.11.01-.02.03-.04.05-.05.02,0,.05-.01.08-.01h.42c.14,0,.27-.02.38-.05.11-.03.21-.08.28-.14.08-.06.13-.14.17-.23.04-.09.06-.19.06-.29,0-.08-.01-.16-.04-.23s-.07-.14-.12-.19c-.05-.05-.12-.1-.21-.13-.08-.03-.18-.05-.3-.05-.13,0-.25.02-.37.06-.11.04-.22.08-.31.13-.09.05-.17.09-.23.13-.06.04-.11.06-.14.06-.02,0-.04,0-.05-.01-.01,0-.03-.03-.04-.05,0-.03-.02-.06-.02-.11,0-.05,0-.11,0-.18,0-.06,0-.11,0-.15,0-.04,0-.07.01-.1,0-.03.02-.05.03-.07.01-.02.03-.04.05-.07.03-.02.08-.06.15-.11.08-.05.17-.09.29-.14.12-.04.25-.08.4-.11.15-.03.32-.05.5-.05.23,0,.44.03.62.08.18.05.33.13.45.24.12.1.22.23.28.38.06.15.1.32.1.51,0,.15-.02.28-.06.41-.04.13-.09.24-.16.34-.07.1-.16.18-.27.25-.11.07-.23.12-.37.16h0c.17.03.32.07.45.14.13.07.25.15.34.25.09.1.16.21.21.34.05.13.07.26.07.4Z"/>
      <path class="st3" d="M90.49,52.91c0,.24-.04.47-.11.68-.07.21-.18.39-.33.54s-.32.27-.53.35c-.21.09-.45.13-.73.13-.22,0-.42-.03-.58-.08-.17-.05-.31-.12-.43-.22-.12-.1-.22-.21-.3-.35s-.14-.29-.18-.46c-.05-.17-.08-.36-.1-.56-.02-.2-.03-.41-.03-.64,0-.19,0-.39.03-.59.02-.21.05-.41.11-.61.05-.2.13-.39.23-.57s.22-.34.37-.47c.15-.13.34-.24.56-.32.22-.08.48-.12.77-.12.09,0,.19,0,.29.02.1.01.18.03.27.04.08.02.15.04.21.06s.1.04.11.06.03.03.04.05c0,.02.02.04.02.07,0,.02.01.05.01.09,0,.04,0,.08,0,.13,0,.08,0,.14,0,.19s-.01.09-.02.12c0,.03-.02.05-.04.06-.02.01-.04.02-.06.02-.03,0-.07,0-.12-.02-.05-.02-.1-.03-.17-.05-.07-.02-.15-.04-.24-.05-.09-.01-.2-.02-.31-.02-.2,0-.37.04-.51.11-.14.07-.25.18-.34.3-.09.13-.15.28-.19.45-.04.17-.06.35-.06.54.05-.04.12-.07.19-.1.07-.03.15-.06.23-.09.08-.02.17-.05.27-.06.1-.02.2-.02.31-.02.24,0,.45.03.63.1.17.07.32.16.43.29.11.12.19.27.24.45.05.18.08.37.08.59ZM89.53,53c0-.13-.01-.24-.03-.33-.02-.1-.06-.18-.11-.24s-.12-.12-.2-.15c-.08-.03-.18-.05-.3-.05-.07,0-.14,0-.2.02-.07.01-.13.03-.2.05-.06.02-.13.05-.19.08-.06.03-.12.06-.17.1,0,.27.01.49.04.67.03.18.07.32.13.42.06.1.13.18.22.22.09.04.19.07.31.07s.21-.02.3-.06c.09-.04.16-.1.21-.18s.1-.17.13-.27c.03-.1.04-.22.04-.34Z"/>
      <path class="st3" d="M94.36,52.91c0,.24-.04.47-.11.68-.07.21-.18.39-.33.54s-.32.27-.53.35c-.21.09-.45.13-.73.13-.22,0-.42-.03-.58-.08-.17-.05-.31-.12-.43-.22-.12-.1-.22-.21-.3-.35s-.14-.29-.18-.46c-.05-.17-.08-.36-.1-.56-.02-.2-.03-.41-.03-.64,0-.19,0-.39.03-.59.02-.21.05-.41.11-.61.05-.2.13-.39.23-.57s.22-.34.37-.47c.15-.13.34-.24.56-.32.22-.08.48-.12.77-.12.09,0,.19,0,.29.02.1.01.18.03.27.04.08.02.15.04.21.06s.1.04.11.06.03.03.04.05c0,.02.02.04.02.07,0,.02.01.05.01.09,0,.04,0,.08,0,.13,0,.08,0,.14,0,.19s-.01.09-.02.12c0,.03-.02.05-.04.06-.02.01-.04.02-.06.02-.03,0-.07,0-.12-.02-.05-.02-.1-.03-.17-.05-.07-.02-.15-.04-.24-.05-.09-.01-.2-.02-.31-.02-.2,0-.37.04-.51.11-.14.07-.25.18-.34.3-.09.13-.15.28-.19.45-.04.17-.06.35-.06.54.05-.04.12-.07.19-.1.07-.03.15-.06.23-.09.08-.02.17-.05.27-.06.1-.02.2-.02.31-.02.24,0,.45.03.63.1.17.07.32.16.43.29.11.12.19.27.24.45.05.18.08.37.08.59ZM93.4,53c0-.13-.01-.24-.03-.33-.02-.1-.06-.18-.11-.24s-.12-.12-.2-.15c-.08-.03-.18-.05-.3-.05-.07,0-.14,0-.2.02-.07.01-.13.03-.2.05-.06.02-.13.05-.19.08-.06.03-.12.06-.17.1,0,.27.01.49.04.67.03.18.07.32.13.42.06.1.13.18.22.22.09.04.19.07.31.07s.21-.02.3-.06c.09-.04.16-.1.21-.18s.1-.17.13-.27c.03-.1.04-.22.04-.34Z"/>
      <path class="st3" d="M98.25,52.09c0,.39-.03.73-.09,1.04s-.16.58-.3.79-.32.39-.55.5-.5.18-.83.18-.6-.06-.82-.17c-.22-.11-.39-.28-.51-.49-.13-.21-.22-.47-.27-.78s-.08-.65-.08-1.04.03-.73.1-1.04c.06-.31.16-.58.31-.8s.32-.39.55-.5c.22-.12.5-.18.82-.18s.6.06.82.17.39.28.52.49c.13.21.22.47.26.78.05.31.07.65.07,1.04ZM97.26,52.14c0-.23,0-.43-.02-.61-.01-.18-.03-.33-.06-.46-.03-.13-.06-.24-.1-.33-.04-.09-.08-.16-.14-.21s-.12-.09-.19-.11c-.07-.02-.15-.03-.23-.03-.15,0-.27.04-.36.11s-.17.18-.23.32c-.06.14-.09.32-.12.53s-.03.46-.03.74c0,.34.01.63.04.85.03.23.07.4.13.54.06.13.13.23.23.28.09.05.2.08.33.08.1,0,.18-.02.26-.05.07-.03.14-.08.2-.14.06-.06.1-.14.14-.23s.07-.2.09-.33.04-.26.05-.42c0-.16.01-.33.01-.52Z"/>
      <path class="st3" d="M102.17,53.13c0,.13-.01.22-.04.29-.03.07-.06.1-.11.1h-.43v.87s0,.05-.02.07c-.01.02-.04.03-.08.05-.04.01-.09.02-.15.03-.06,0-.14,0-.23,0-.09,0-.16,0-.23,0-.06,0-.11-.01-.15-.03-.04-.01-.06-.03-.07-.05-.01-.02-.02-.04-.02-.07v-.87h-1.84s-.07,0-.09-.01-.05-.03-.07-.06c-.02-.03-.03-.08-.04-.13,0-.06-.01-.14-.01-.23,0-.08,0-.15,0-.21,0-.06,0-.11.02-.16s.02-.09.04-.13c.02-.04.04-.09.06-.13l1.5-2.64s.03-.04.06-.06c.03-.02.07-.03.12-.04s.12-.02.2-.02.18,0,.3,0c.13,0,.23,0,.32,0,.09,0,.16.02.21.03.05.01.09.03.12.05.02.02.04.04.04.07v2.9h.43s.07.03.1.09c.03.06.04.16.04.3ZM100.65,50.52h0l-1.27,2.22h1.28v-2.22Z"/>
      <path class="st3" d="M105.96,52.91c0,.24-.04.47-.11.68-.07.21-.18.39-.33.54s-.32.27-.53.35c-.21.09-.45.13-.73.13-.22,0-.42-.03-.58-.08-.17-.05-.31-.12-.43-.22-.12-.1-.22-.21-.3-.35s-.14-.29-.18-.46c-.05-.17-.08-.36-.1-.56-.02-.2-.03-.41-.03-.64,0-.19,0-.39.03-.59.02-.21.05-.41.11-.61.05-.2.13-.39.23-.57s.22-.34.37-.47c.15-.13.34-.24.56-.32.22-.08.48-.12.77-.12.09,0,.19,0,.29.02.1.01.18.03.27.04.08.02.15.04.21.06s.1.04.11.06.03.03.04.05c0,.02.02.04.02.07,0,.02.01.05.01.09,0,.04,0,.08,0,.13,0,.08,0,.14,0,.19s-.01.09-.02.12c0,.03-.02.05-.04.06-.02.01-.04.02-.06.02-.03,0-.07,0-.12-.02-.05-.02-.1-.03-.17-.05-.07-.02-.15-.04-.24-.05-.09-.01-.2-.02-.31-.02-.2,0-.37.04-.51.11-.14.07-.25.18-.34.3-.09.13-.15.28-.19.45-.04.17-.06.35-.06.54.05-.04.12-.07.19-.1.07-.03.15-.06.23-.09.08-.02.17-.05.27-.06.1-.02.2-.02.31-.02.24,0,.45.03.63.1.17.07.32.16.43.29.11.12.19.27.24.45.05.18.08.37.08.59ZM105,53c0-.13-.01-.24-.03-.33-.02-.1-.06-.18-.11-.24s-.12-.12-.2-.15c-.08-.03-.18-.05-.3-.05-.07,0-.14,0-.2.02-.07.01-.13.03-.2.05-.06.02-.13.05-.19.08-.06.03-.12.06-.17.1,0,.27.01.49.04.67.03.18.07.32.13.42.06.1.13.18.22.22.09.04.19.07.31.07s.21-.02.3-.06c.09-.04.16-.1.21-.18s.1-.17.13-.27c.03-.1.04-.22.04-.34Z"/>
      <path class="st3" d="M109.85,52.09c0,.39-.03.73-.09,1.04s-.16.58-.3.79-.32.39-.55.5-.5.18-.83.18-.6-.06-.82-.17c-.22-.11-.39-.28-.51-.49-.13-.21-.22-.47-.27-.78s-.08-.65-.08-1.04.03-.73.1-1.04c.06-.31.16-.58.31-.8s.32-.39.55-.5c.22-.12.5-.18.82-.18s.6.06.82.17.39.28.52.49c.13.21.22.47.26.78.05.31.07.65.07,1.04ZM108.86,52.14c0-.23,0-.43-.02-.61-.01-.18-.03-.33-.06-.46-.03-.13-.06-.24-.1-.33-.04-.09-.08-.16-.14-.21s-.12-.09-.19-.11c-.07-.02-.15-.03-.23-.03-.15,0-.27.04-.36.11s-.17.18-.23.32c-.06.14-.09.32-.12.53s-.03.46-.03.74c0,.34.01.63.04.85.03.23.07.4.13.54.06.13.13.23.23.28.09.05.2.08.33.08.1,0,.18-.02.26-.05.07-.03.14-.08.2-.14.06-.06.1-.14.14-.23s.07-.2.09-.33.04-.26.05-.42c0-.16.01-.33.01-.52Z"/>
      <path class="st3" d="M113.8,52.09c0,.39-.03.73-.09,1.04s-.16.58-.3.79-.32.39-.55.5-.5.18-.83.18-.6-.06-.82-.17c-.22-.11-.39-.28-.51-.49-.13-.21-.22-.47-.27-.78s-.08-.65-.08-1.04.03-.73.1-1.04c.06-.31.16-.58.31-.8s.32-.39.55-.5c.22-.12.5-.18.82-.18s.6.06.82.17.39.28.52.49c.13.21.22.47.26.78.05.31.07.65.07,1.04ZM112.81,52.14c0-.23,0-.43-.02-.61-.01-.18-.03-.33-.06-.46-.03-.13-.06-.24-.1-.33-.04-.09-.08-.16-.14-.21s-.12-.09-.19-.11c-.07-.02-.15-.03-.23-.03-.15,0-.27.04-.36.11s-.17.18-.23.32c-.06.14-.09.32-.12.53s-.03.46-.03.74c0,.34.01.63.04.85.03.23.07.4.13.54.06.13.13.23.23.28.09.05.2.08.33.08.1,0,.18-.02.26-.05.07-.03.14-.08.2-.14.06-.06.1-.14.14-.23s.07-.2.09-.33.04-.26.05-.42c0-.16.01-.33.01-.52Z"/>
      <path class="st3" d="M117.66,52.09c0,.39-.03.73-.09,1.04s-.16.58-.3.79-.32.39-.55.5-.5.18-.83.18-.6-.06-.82-.17c-.22-.11-.39-.28-.51-.49-.13-.21-.22-.47-.27-.78s-.08-.65-.08-1.04.03-.73.1-1.04c.06-.31.16-.58.31-.8s.32-.39.55-.5c.22-.12.5-.18.82-.18s.6.06.82.17.39.28.52.49c.13.21.22.47.26.78.05.31.07.65.07,1.04ZM116.68,52.14c0-.23,0-.43-.02-.61-.01-.18-.03-.33-.06-.46-.03-.13-.06-.24-.1-.33-.04-.09-.08-.16-.14-.21s-.12-.09-.19-.11c-.07-.02-.15-.03-.23-.03-.15,0-.27.04-.36.11s-.17.18-.23.32c-.06.14-.09.32-.12.53s-.03.46-.03.74c0,.34.01.63.04.85.03.23.07.4.13.54.06.13.13.23.23.28.09.05.2.08.33.08.1,0,.18-.02.26-.05.07-.03.14-.08.2-.14.06-.06.1-.14.14-.23s.07-.2.09-.33.04-.26.05-.42c0-.16.01-.33.01-.52Z"/>
      <path class="st3" d="M121.53,52.09c0,.39-.03.73-.09,1.04s-.16.58-.3.79-.32.39-.55.5-.5.18-.83.18-.6-.06-.82-.17c-.22-.11-.39-.28-.51-.49-.13-.21-.22-.47-.27-.78s-.08-.65-.08-1.04.03-.73.1-1.04c.06-.31.16-.58.31-.8s.32-.39.55-.5c.22-.12.5-.18.82-.18s.6.06.82.17.39.28.52.49c.13.21.22.47.26.78.05.31.07.65.07,1.04ZM120.54,52.14c0-.23,0-.43-.02-.61-.01-.18-.03-.33-.06-.46-.03-.13-.06-.24-.1-.33-.04-.09-.08-.16-.14-.21s-.12-.09-.19-.11c-.07-.02-.15-.03-.23-.03-.15,0-.27.04-.36.11s-.17.18-.23.32c-.06.14-.09.32-.12.53s-.03.46-.03.74c0,.34.01.63.04.85.03.23.07.4.13.54.06.13.13.23.23.28.09.05.2.08.33.08.1,0,.18-.02.26-.05.07-.03.14-.08.2-.14.06-.06.1-.14.14-.23s.07-.2.09-.33.04-.26.05-.42c0-.16.01-.33.01-.52Z"/>
    </g>
  </g>
  <path class="st3" d="M89.53,42.13l-.3.86c-.39.09-.7.2-.95.32-.23.11-.44.25-.63.42-.12.11-.31.31-.55.58l-.22-.08c0-.16.04-.33.13-.5.06-.13.18-.3.34-.51-.23-.23-.39-.4-.46-.51-.07-.11-.11-.21-.11-.32,0-.14.1-.38.29-.73.19-.35.36-.58.49-.71.14-.13.3-.19.49-.19.18,0,.33.04.46.11.13.07.28.21.44.4l-.5.83c-.12-.13-.23-.23-.33-.29-.1-.06-.2-.09-.29-.09-.08,0-.15.02-.21.07-.06.04-.09.09-.09.15,0,.08.05.16.15.25.1.09.28.19.52.32.31-.15.55-.25.7-.29.16-.04.36-.08.61-.1ZM91.68,43.57h-.52c-.29,0-.5-.12-.63-.36-.14-.26-.22-.71-.22-1.33v-1.06c0-.24-.03-.43-.1-.56-.03-.06-.11-.16-.22-.28l.4-.93c.14.2.24.39.3.59.07.23.1.51.1.86v.73c0,.52.03.88.1,1.08.05.16.14.24.26.24h.52v1.01ZM94.81,43.57c-.26,0-.57-.05-.92-.15-.31-.09-.58-.19-.82-.32-.14.22-.32.36-.53.42-.1.03-.24.05-.42.05h-.74v-1.01h.74c.22,0,.4-.03.53-.08.17-.07.29-.19.35-.36.14-.32.32-.57.54-.78.2-.18.36-.27.5-.27.13,0,.28.19.47.57.2.4.29.78.29,1.12v.81ZM94.03,42.5c.05,0,.08-.02.08-.05,0-.05-.05-.15-.16-.28-.12-.15-.22-.22-.31-.22-.1,0-.18.11-.25.34.13.05.23.09.29.11.2.07.31.11.34.11h0ZM96.84,43.57h-2.33v-1.01h1.96c-.03-.17-.08-.31-.15-.43-.04-.06-.12-.18-.26-.34l.3-.89c.19.21.31.43.38.66.07.23.1.57.1,1.03v.97ZM96.87,39.52l-.45.83-.87-.45.45-.84.87.46ZM99.87,39.39c.06.04.26.12.6.22,0,.17-.02.35-.05.53-.01.07-.05.21-.1.41l-.27-.1c0,.29-.03.58-.1.88-.07.29-.18.58-.34.86.14.25.22.39.24.43.06.11.09.22.09.31v.12c0,.06-.02.32-.06.76-.28.13-.54.22-.76.26-.22.04-.55.06-.99.06v-1.1c.25-.13.43-.24.54-.33.11-.09.25-.24.42-.46-.28-.36-.49-.61-.62-.76-.1-.12-.24-.26-.4-.41-.04.08-.07.14-.09.16s-.04.04-.05.04c-.06,0-.17-.05-.34-.15-.15-.09-.26-.17-.34-.25-.08-.07-.14-.21-.18-.4-.04-.2-.06-.45-.06-.75,0-.13,0-.23.02-.28.02-.05.05-.08.1-.08.1,0,.29.14.59.42.25.24.48.48.68.72.16.17.3.34.42.51.11.15.29.41.54.78.11-.21.19-.48.23-.81.02-.2.04-.44.04-.71-.09-.04-.15-.08-.18-.12-.03-.04-.05-.1-.05-.17,0-.15.02-.3.05-.45.03-.15.09-.32.16-.48l.16.05c0,.16.04.26.11.32h0ZM99.1,45.15s.12-.02.27-.06c-.03.07-.06.13-.1.16-.03.03-.07.05-.13.07l-.8.25c.05-.09.09-.15.13-.18.04-.03.1-.06.2-.09-.07-.04-.12-.09-.15-.12-.03-.04-.05-.08-.05-.11,0-.03,0-.07.03-.11.02-.04.05-.08.08-.12.16-.22.32-.32.48-.32.05,0,.09.02.11.05.03.03.04.07.04.12,0,.04,0,.07-.02.1-.01.03-.03.07-.07.13-.12-.06-.21-.09-.25-.09s-.09.01-.13.03c-.03.01-.06.03-.08.06,0,.03.06.08.18.15s.2.1.26.1h0ZM99.49,42.86l-.18-.28c-.11.12-.19.21-.25.26-.06.05-.16.13-.31.23.19-.02.32-.04.4-.07.08-.02.19-.07.33-.15ZM101.9,41.67c.02.28.04.56.04.82,0,.22-.03.42-.08.61s-.15.43-.3.74l-.22-.09c.06-.32.09-.58.09-.77,0-.15-.01-.37-.04-.67-.02-.29-.06-.58-.09-.87s-.1-.63-.18-1.03c-.03-.14-.04-.23-.04-.29,0-.08.04-.21.12-.39.08-.19.19-.41.32-.67l.22,1.32c.08.5.14.94.17,1.3h0Z"/>
  <rect class="st0" x="518.51" y="5.93" width="60.41" height="60.41"/>
  <g>
    <path class="st5" d="M577.81,7.04v58.19h-58.19V7.04h58.19M578.91,5.93h-60.41v60.41h60.41V5.93h0Z"/>
    <g>
      <rect class="st5" x="538.72" y="9.29" width="1.84" height="1.84" shape-rendering="crispEdges"/>
      <rect class="st5" x="544.24" y="9.29" width="1.84" height="1.84" shape-rendering="crispEdges"/>
      <rect class="st5" x="549.77" y="9.29" width="1.84" height="1.84" shape-rendering="crispEdges"/>
      <rect class="st5" x="551.61" y="9.29" width="1.84" height="1.84" shape-rendering="crispEdges"/>
      <rect class="st5" x="558.98" y="9.29" width="1.84" height="1.84" shape-rendering="crispEdges"/>
      <rect class="st5" x="542.4" y="11.13" width="1.84" height="1.84" shape-rendering="crispEdges"/>
      <rect class="st5" x="553.45" y="11.13" width="1.84" height="1.84" shape-rendering="crispEdges"/>
      <rect class="st5" x="536.88" y="12.97" width="1.84" height="1.84" shape-rendering="crispEdges"/>
      <rect class="st5" x="547.93" y="12.97" width="1.84" height="1.84" shape-rendering="crispEdges"/>
      <rect class="st5" x="551.61" y="12.97" width="1.84" height="1.84" shape-rendering="crispEdges"/>
      <rect class="st5" x="557.13" y="12.97" width="1.84" height="1.84" shape-rendering="crispEdges"/>
      <rect class="st5" x="558.98" y="12.97" width="1.84" height="1.84" shape-rendering="crispEdges"/>
      <rect class="st5" x="536.88" y="14.81" width="1.84" height="1.84" shape-rendering="crispEdges"/>
      <rect class="st5" x="538.72" y="14.81" width="1.84" height="1.84" shape-rendering="crispEdges"/>
      <rect class="st5" x="544.24" y="14.81" width="1.84" height="1.84" shape-rendering="crispEdges"/>
      <rect class="st5" x="551.61" y="14.81" width="1.84" height="1.84" shape-rendering="crispEdges"/>
      <rect class="st5" x="553.45" y="14.81" width="1.84" height="1.84" shape-rendering="crispEdges"/>
      <rect class="st5" x="555.29" y="14.81" width="1.84" height="1.84" shape-rendering="crispEdges"/>
      <rect class="st5" x="536.88" y="16.65" width="1.84" height="1.84" shape-rendering="crispEdges"/>
      <rect class="st5" x="542.4" y="16.65" width="1.84" height="1.84" shape-rendering="crispEdges"/>
      <rect class="st5" x="544.24" y="16.65" width="1.84" height="1.84" shape-rendering="crispEdges"/>
      <rect class="st5" x="546.09" y="16.65" width="1.84" height="1.84" shape-rendering="crispEdges"/>
      <rect class="st5" x="547.93" y="16.65" width="1.84" height="1.84" shape-rendering="crispEdges"/>
      <rect class="st5" x="549.77" y="16.65" width="1.84" height="1.84" shape-rendering="crispEdges"/>
      <rect class="st5" x="555.29" y="16.65" width="1.84" height="1.84" shape-rendering="crispEdges"/>
      <rect class="st5" x="558.98" y="16.65" width="1.84" height="1.84" shape-rendering="crispEdges"/>
      <rect class="st5" x="536.88" y="18.49" width="1.84" height="1.84" shape-rendering="crispEdges"/>
      <rect class="st5" x="538.72" y="18.49" width="1.84" height="1.84" shape-rendering="crispEdges"/>
      <rect class="st5" x="546.09" y="18.49" width="1.84" height="1.84" shape-rendering="crispEdges"/>
      <rect class="st5" x="547.93" y="18.49" width="1.84" height="1.84" shape-rendering="crispEdges"/>
      <rect class="st5" x="549.77" y="18.49" width="1.84" height="1.84" shape-rendering="crispEdges"/>
      <rect class="st5" x="551.61" y="18.49" width="1.84" height="1.84" shape-rendering="crispEdges"/>
      <rect class="st5" x="553.45" y="18.49" width="1.84" height="1.84" shape-rendering="crispEdges"/>
      <rect class="st5" x="536.88" y="20.33" width="1.84" height="1.84" shape-rendering="crispEdges"/>
      <rect class="st5" x="540.56" y="20.33" width="1.84" height="1.84" shape-rendering="crispEdges"/>
      <rect class="st5" x="544.24" y="20.33" width="1.84" height="1.84" shape-rendering="crispEdges"/>
      <rect class="st5" x="547.93" y="20.33" width="1.84" height="1.84" shape-rendering="crispEdges"/>
      <rect class="st5" x="551.61" y="20.33" width="1.84" height="1.84" shape-rendering="crispEdges"/>
      <rect class="st5" x="555.29" y="20.33" width="1.84" height="1.84" shape-rendering="crispEdges"/>
      <rect class="st5" x="558.98" y="20.33" width="1.84" height="1.84" shape-rendering="crispEdges"/>
      <rect class="st5" x="536.88" y="22.18" width="1.84" height="1.84" shape-rendering="crispEdges"/>
      <rect class="st5" x="542.4" y="22.18" width="1.84" height="1.84" shape-rendering="crispEdges"/>
      <rect class="st5" x="544.24" y="22.18" width="1.84" height="1.84" shape-rendering="crispEdges"/>
      <rect class="st5" x="546.09" y="22.18" width="1.84" height="1.84" shape-rendering="crispEdges"/>
      <rect class="st5" x="549.77" y="22.18" width="1.84" height="1.84" shape-rendering="crispEdges"/>
      <rect class="st5" x="557.13" y="22.18" width="1.84" height="1.84" shape-rendering="crispEdges"/>
      <rect class="st5" x="558.98" y="22.18" width="1.84" height="1.84" shape-rendering="crispEdges"/>
      <rect class="st5" x="522.15" y="24.02" width="1.84" height="1.84" shape-rendering="crispEdges"/>
      <rect class="st5" x="525.83" y="24.02" width="1.84" height="1.84" shape-rendering="crispEdges"/>
      <rect class="st5" x="527.67" y="24.02" width="1.84" height="1.84" shape-rendering="crispEdges"/>
      <rect class="st5" x="529.51" y="24.02" width="1.84" height="1.84" shape-rendering="crispEdges"/>
      <rect class="st5" x="531.35" y="24.02" width="1.84" height="1.84" shape-rendering="crispEdges"/>
      <rect class="st5" x="533.19" y="24.02" width="1.84" height="1.84" shape-rendering="crispEdges"/>
      <rect class="st5" x="538.72" y="24.02" width="1.84" height="1.84" shape-rendering="crispEdges"/>
      <rect class="st5" x="540.56" y="24.02" width="1.84" height="1.84" shape-rendering="crispEdges"/>
      <rect class="st5" x="542.4" y="24.02" width="1.84" height="1.84" shape-rendering="crispEdges"/>
      <rect class="st5" x="547.93" y="24.02" width="1.84" height="1.84" shape-rendering="crispEdges"/>
      <rect class="st5" x="549.77" y="24.02" width="1.84" height="1.84" shape-rendering="crispEdges"/>
      <rect class="st5" x="558.98" y="24.02" width="1.84" height="1.84" shape-rendering="crispEdges"/>
      <rect class="st5" x="562.66" y="24.02" width="1.84" height="1.84" shape-rendering="crispEdges"/>
      <rect class="st5" x="564.5" y="24.02" width="1.84" height="1.84" shape-rendering="crispEdges"/>
      <rect class="st5" x="566.34" y="24.02" width="1.84" height="1.84" shape-rendering="crispEdges"/>
      <rect class="st5" x="568.18" y="24.02" width="1.84" height="1.84" shape-rendering="crispEdges"/>
      <rect class="st5" x="570.03" y="24.02" width="1.84" height="1.84" shape-rendering="crispEdges"/>
      <rect class="st5" x="522.15" y="25.86" width="1.84" height="1.84" shape-rendering="crispEdges"/>
      <rect class="st5" x="527.67" y="25.86" width="1.84" height="1.84" shape-rendering="crispEdges"/>
      <rect class="st5" x="529.51" y="25.86" width="1.84" height="1.84" shape-rendering="crispEdges"/>
      <rect class="st5" x="531.35" y="25.86" width="1.84" height="1.84" shape-rendering="crispEdges"/>
      <rect class="st5" x="535.04" y="25.86" width="1.84" height="1.84" shape-rendering="crispEdges"/>
      <rect class="st5" x="540.56" y="25.86" width="1.84" height="1.84" shape-rendering="crispEdges"/>
      <rect class="st5" x="544.24" y="25.86" width="1.84" height="1.84" shape-rendering="crispEdges"/>
      <rect class="st5" x="549.77" y="25.86" width="1.84" height="1.84" shape-rendering="crispEdges"/>
      <rect class="st5" x="551.61" y="25.86" width="1.84" height="1.84" shape-rendering="crispEdges"/>
      <rect class="st5" x="555.29" y="25.86" width="1.84" height="1.84" shape-rendering="crispEdges"/>
      <rect class="st5" x="557.13" y="25.86" width="1.84" height="1.84" shape-rendering="crispEdges"/>
      <rect class="st5" x="560.82" y="25.86" width="1.84" height="1.84" shape-rendering="crispEdges"/>
      <rect class="st5" x="562.66" y="25.86" width="1.84" height="1.84" shape-rendering="crispEdges"/>
      <rect class="st5" x="564.5" y="25.86" width="1.84" height="1.84" shape-rendering="crispEdges"/>
      <rect class="st5" x="568.18" y="25.86" width="1.84" height="1.84" shape-rendering="crispEdges"/>
      <rect class="st5" x="571.87" y="25.86" width="1.84" height="1.84" shape-rendering="crispEdges"/>
      <rect class="st5" x="522.15" y="27.7" width="1.84" height="1.84" shape-rendering="crispEdges"/>
      <rect class="st5" x="529.51" y="27.7" width="1.84" height="1.84" shape-rendering="crispEdges"/>
      <rect class="st5" x="531.35" y="27.7" width="1.84" height="1.84" shape-rendering="crispEdges"/>
      <rect class="st5" x="533.19" y="27.7" width="1.84" height="1.84" shape-rendering="crispEdges"/>
      <rect class="st5" x="535.04" y="27.7" width="1.84" height="1.84" shape-rendering="crispEdges"/>
      <rect class="st5" x="536.88" y="27.7" width="1.84" height="1.84" shape-rendering="crispEdges"/>
      <rect class="st5" x="538.72" y="27.7" width="1.84" height="1.84" shape-rendering="crispEdges"/>
      <rect class="st5" x="542.4" y="27.7" width="1.84" height="1.84" shape-rendering="crispEdges"/>
      <rect class="st5" x="553.45" y="27.7" width="1.84" height="1.84" shape-rendering="crispEdges"/>
      <rect class="st5" x="558.98" y="27.7" width="1.84" height="1.84" shape-rendering="crispEdges"/>
      <rect class="st5" x="568.18" y="27.7" width="1.84" height="1.84" shape-rendering="crispEdges"/>
      <rect class="st5" x="570.03" y="27.7" width="1.84" height="1.84" shape-rendering="crispEdges"/>
      <rect class="st5" x="522.15" y="29.54" width="1.84" height="1.84" shape-rendering="crispEdges"/>
      <rect class="st5" x="538.72" y="29.54" width="1.84" height="1.84" shape-rendering="crispEdges"/>
      <rect class="st5" x="540.56" y="29.54" width="1.84" height="1.84" shape-rendering="crispEdges"/>
      <rect class="st5" x="542.4" y="29.54" width="1.84" height="1.84" shape-rendering="crispEdges"/>
      <rect class="st5" x="544.24" y="29.54" width="1.84" height="1.84" shape-rendering="crispEdges"/>
      <rect class="st5" x="547.93" y="29.54" width="1.84" height="1.84" shape-rendering="crispEdges"/>
      <rect class="st5" x="551.61" y="29.54" width="1.84" height="1.84" shape-rendering="crispEdges"/>
      <rect class="st5" x="557.13" y="29.54" width="1.84" height="1.84" shape-rendering="crispEdges"/>
      <rect class="st5" x="558.98" y="29.54" width="1.84" height="1.84" shape-rendering="crispEdges"/>
      <rect class="st5" x="560.82" y="29.54" width="1.84" height="1.84" shape-rendering="crispEdges"/>
      <rect class="st5" x="562.66" y="29.54" width="1.84" height="1.84" shape-rendering="crispEdges"/>
      <rect class="st5" x="564.5" y="29.54" width="1.84" height="1.84" shape-rendering="crispEdges"/>
      <rect class="st5" x="566.34" y="29.54" width="1.84" height="1.84" shape-rendering="crispEdges"/>
      <rect class="st5" x="568.18" y="29.54" width="1.84" height="1.84" shape-rendering="crispEdges"/>
      <rect class="st5" x="573.71" y="29.54" width="1.84" height="1.84" shape-rendering="crispEdges"/>
      <rect class="st5" x="522.15" y="31.38" width="1.84" height="1.84" shape-rendering="crispEdges"/>
      <rect class="st5" x="525.83" y="31.38" width="1.84" height="1.84" shape-rendering="crispEdges"/>
      <rect class="st5" x="533.19" y="31.38" width="1.84" height="1.84" shape-rendering="crispEdges"/>
      <rect class="st5" x="535.04" y="31.38" width="1.84" height="1.84" shape-rendering="crispEdges"/>
      <rect class="st5" x="536.88" y="31.38" width="1.84" height="1.84" shape-rendering="crispEdges"/>
      <rect class="st5" x="540.56" y="31.38" width="1.84" height="1.84" shape-rendering="crispEdges"/>
      <rect class="st5" x="542.4" y="31.38" width="1.84" height="1.84" shape-rendering="crispEdges"/>
      <rect class="st5" x="544.24" y="31.38" width="1.84" height="1.84" shape-rendering="crispEdges"/>
      <rect class="st5" x="551.61" y="31.38" width="1.84" height="1.84" shape-rendering="crispEdges"/>
      <rect class="st5" x="553.45" y="31.38" width="1.84" height="1.84" shape-rendering="crispEdges"/>
      <rect class="st5" x="555.29" y="31.38" width="1.84" height="1.84" shape-rendering="crispEdges"/>
      <rect class="st5" x="558.98" y="31.38" width="1.84" height="1.84" shape-rendering="crispEdges"/>
      <rect class="st5" x="560.82" y="31.38" width="1.84" height="1.84" shape-rendering="crispEdges"/>
      <rect class="st5" x="562.66" y="31.38" width="1.84" height="1.84" shape-rendering="crispEdges"/>
      <rect class="st5" x="564.5" y="31.38" width="1.84" height="1.84" shape-rendering="crispEdges"/>
      <rect class="st5" x="566.34" y="31.38" width="1.84" height="1.84" shape-rendering="crispEdges"/>
      <rect class="st5" x="522.15" y="33.23" width="1.84" height="1.84" shape-rendering="crispEdges"/>
      <rect class="st5" x="525.83" y="33.23" width="1.84" height="1.84" shape-rendering="crispEdges"/>
      <rect class="st5" x="531.35" y="33.23" width="1.84" height="1.84" shape-rendering="crispEdges"/>
      <rect class="st5" x="536.88" y="33.23" width="1.84" height="1.84" shape-rendering="crispEdges"/>
      <rect class="st5" x="540.56" y="33.23" width="1.84" height="1.84" shape-rendering="crispEdges"/>
      <rect class="st5" x="546.09" y="33.23" width="1.84" height="1.84" shape-rendering="crispEdges"/>
      <rect class="st5" x="547.93" y="33.23" width="1.84" height="1.84" shape-rendering="crispEdges"/>
      <rect class="st5" x="549.77" y="33.23" width="1.84" height="1.84" shape-rendering="crispEdges"/>
      <rect class="st5" x="555.29" y="33.23" width="1.84" height="1.84" shape-rendering="crispEdges"/>
      <rect class="st5" x="557.13" y="33.23" width="1.84" height="1.84" shape-rendering="crispEdges"/>
      <rect class="st5" x="558.98" y="33.23" width="1.84" height="1.84" shape-rendering="crispEdges"/>
      <rect class="st5" x="562.66" y="33.23" width="1.84" height="1.84" shape-rendering="crispEdges"/>
      <rect class="st5" x="568.18" y="33.23" width="1.84" height="1.84" shape-rendering="crispEdges"/>
      <rect class="st5" x="571.87" y="33.23" width="1.84" height="1.84" shape-rendering="crispEdges"/>
      <rect class="st5" x="522.15" y="35.07" width="1.84" height="1.84" shape-rendering="crispEdges"/>
      <rect class="st5" x="525.83" y="35.07" width="1.84" height="1.84" shape-rendering="crispEdges"/>
      <rect class="st5" x="529.51" y="35.07" width="1.84" height="1.84" shape-rendering="crispEdges"/>
      <rect class="st5" x="533.19" y="35.07" width="1.84" height="1.84" shape-rendering="crispEdges"/>
      <rect class="st5" x="540.56" y="35.07" width="1.84" height="1.84" shape-rendering="crispEdges"/>
      <rect class="st5" x="542.4" y="35.07" width="1.84" height="1.84" shape-rendering="crispEdges"/>
      <rect class="st5" x="544.24" y="35.07" width="1.84" height="1.84" shape-rendering="crispEdges"/>
      <rect class="st5" x="546.09" y="35.07" width="1.84" height="1.84" shape-rendering="crispEdges"/>
      <rect class="st5" x="547.93" y="35.07" width="1.84" height="1.84" shape-rendering="crispEdges"/>
      <rect class="st5" x="549.77" y="35.07" width="1.84" height="1.84" shape-rendering="crispEdges"/>
      <rect class="st5" x="551.61" y="35.07" width="1.84" height="1.84" shape-rendering="crispEdges"/>
      <rect class="st5" x="553.45" y="35.07" width="1.84" height="1.84" shape-rendering="crispEdges"/>
      <rect class="st5" x="557.13" y="35.07" width="1.84" height="1.84" shape-rendering="crispEdges"/>
      <rect class="st5" x="568.18" y="35.07" width="1.84" height="1.84" shape-rendering="crispEdges"/>
      <rect class="st5" x="570.03" y="35.07" width="1.84" height="1.84" shape-rendering="crispEdges"/>
      <rect class="st5" x="571.87" y="35.07" width="1.84" height="1.84" shape-rendering="crispEdges"/>
      <rect class="st5" x="573.71" y="35.07" width="1.84" height="1.84" shape-rendering="crispEdges"/>
      <rect class="st5" x="522.15" y="36.91" width="1.84" height="1.84" shape-rendering="crispEdges"/>
      <rect class="st5" x="523.99" y="36.91" width="1.84" height="1.84" shape-rendering="crispEdges"/>
      <rect class="st5" x="535.04" y="36.91" width="1.84" height="1.84" shape-rendering="crispEdges"/>
      <rect class="st5" x="538.72" y="36.91" width="1.84" height="1.84" shape-rendering="crispEdges"/>
      <rect class="st5" x="540.56" y="36.91" width="1.84" height="1.84" shape-rendering="crispEdges"/>
      <rect class="st5" x="542.4" y="36.91" width="1.84" height="1.84" shape-rendering="crispEdges"/>
      <rect class="st5" x="544.24" y="36.91" width="1.84" height="1.84" shape-rendering="crispEdges"/>
      <rect class="st5" x="546.09" y="36.91" width="1.84" height="1.84" shape-rendering="crispEdges"/>
      <rect class="st5" x="549.77" y="36.91" width="1.84" height="1.84" shape-rendering="crispEdges"/>
      <rect class="st5" x="557.13" y="36.91" width="1.84" height="1.84" shape-rendering="crispEdges"/>
      <rect class="st5" x="562.66" y="36.91" width="1.84" height="1.84" shape-rendering="crispEdges"/>
      <rect class="st5" x="564.5" y="36.91" width="1.84" height="1.84" shape-rendering="crispEdges"/>
      <rect class="st5" x="566.34" y="36.91" width="1.84" height="1.84" shape-rendering="crispEdges"/>
      <rect class="st5" x="571.87" y="36.91" width="1.84" height="1.84" shape-rendering="crispEdges"/>
      <rect class="st5" x="573.71" y="36.91" width="1.84" height="1.84" shape-rendering="crispEdges"/>
      <rect class="st5" x="523.99" y="38.75" width="1.84" height="1.84" shape-rendering="crispEdges"/>
      <rect class="st5" x="525.83" y="38.75" width="1.84" height="1.84" shape-rendering="crispEdges"/>
      <rect class="st5" x="527.67" y="38.75" width="1.84" height="1.84" shape-rendering="crispEdges"/>
      <rect class="st5" x="529.51" y="38.75" width="1.84" height="1.84" shape-rendering="crispEdges"/>
      <rect class="st5" x="531.35" y="38.75" width="1.84" height="1.84" shape-rendering="crispEdges"/>
      <rect class="st5" x="533.19" y="38.75" width="1.84" height="1.84" shape-rendering="crispEdges"/>
      <rect class="st5" x="535.04" y="38.75" width="1.84" height="1.84" shape-rendering="crispEdges"/>
      <rect class="st5" x="540.56" y="38.75" width="1.84" height="1.84" shape-rendering="crispEdges"/>
      <rect class="st5" x="544.24" y="38.75" width="1.84" height="1.84" shape-rendering="crispEdges"/>
      <rect class="st5" x="547.93" y="38.75" width="1.84" height="1.84" shape-rendering="crispEdges"/>
      <rect class="st5" x="549.77" y="38.75" width="1.84" height="1.84" shape-rendering="crispEdges"/>
      <rect class="st5" x="558.98" y="38.75" width="1.84" height="1.84" shape-rendering="crispEdges"/>
      <rect class="st5" x="566.34" y="38.75" width="1.84" height="1.84" shape-rendering="crispEdges"/>
      <rect class="st5" x="522.15" y="40.59" width="1.84" height="1.84" shape-rendering="crispEdges"/>
      <rect class="st5" x="523.99" y="40.59" width="1.84" height="1.84" shape-rendering="crispEdges"/>
      <rect class="st5" x="531.35" y="40.59" width="1.84" height="1.84" shape-rendering="crispEdges"/>
      <rect class="st5" x="536.88" y="40.59" width="1.84" height="1.84" shape-rendering="crispEdges"/>
      <rect class="st5" x="538.72" y="40.59" width="1.84" height="1.84" shape-rendering="crispEdges"/>
      <rect class="st5" x="549.77" y="40.59" width="1.84" height="1.84" shape-rendering="crispEdges"/>
      <rect class="st5" x="551.61" y="40.59" width="1.84" height="1.84" shape-rendering="crispEdges"/>
      <rect class="st5" x="555.29" y="40.59" width="1.84" height="1.84" shape-rendering="crispEdges"/>
      <rect class="st5" x="558.98" y="40.59" width="1.84" height="1.84" shape-rendering="crispEdges"/>
      <rect class="st5" x="560.82" y="40.59" width="1.84" height="1.84" shape-rendering="crispEdges"/>
      <rect class="st5" x="564.5" y="40.59" width="1.84" height="1.84" shape-rendering="crispEdges"/>
      <rect class="st5" x="568.18" y="40.59" width="1.84" height="1.84" shape-rendering="crispEdges"/>
      <rect class="st5" x="573.71" y="40.59" width="1.84" height="1.84" shape-rendering="crispEdges"/>
      <rect class="st5" x="522.15" y="42.43" width="1.84" height="1.84" shape-rendering="crispEdges"/>
      <rect class="st5" x="525.83" y="42.43" width="1.84" height="1.84" shape-rendering="crispEdges"/>
      <rect class="st5" x="527.67" y="42.43" width="1.84" height="1.84" shape-rendering="crispEdges"/>
      <rect class="st5" x="529.51" y="42.43" width="1.84" height="1.84" shape-rendering="crispEdges"/>
      <rect class="st5" x="533.19" y="42.43" width="1.84" height="1.84" shape-rendering="crispEdges"/>
      <rect class="st5" x="535.04" y="42.43" width="1.84" height="1.84" shape-rendering="crispEdges"/>
      <rect class="st5" x="536.88" y="42.43" width="1.84" height="1.84" shape-rendering="crispEdges"/>
      <rect class="st5" x="538.72" y="42.43" width="1.84" height="1.84" shape-rendering="crispEdges"/>
      <rect class="st5" x="540.56" y="42.43" width="1.84" height="1.84" shape-rendering="crispEdges"/>
      <rect class="st5" x="542.4" y="42.43" width="1.84" height="1.84" shape-rendering="crispEdges"/>
      <rect class="st5" x="553.45" y="42.43" width="1.84" height="1.84" shape-rendering="crispEdges"/>
      <rect class="st5" x="568.18" y="42.43" width="1.84" height="1.84" shape-rendering="crispEdges"/>
      <rect class="st5" x="570.03" y="42.43" width="1.84" height="1.84" shape-rendering="crispEdges"/>
      <rect class="st5" x="571.87" y="42.43" width="1.84" height="1.84" shape-rendering="crispEdges"/>
      <rect class="st5" x="573.71" y="42.43" width="1.84" height="1.84" shape-rendering="crispEdges"/>
      <rect class="st5" x="522.15" y="44.27" width="1.84" height="1.84" shape-rendering="crispEdges"/>
      <rect class="st5" x="531.35" y="44.27" width="1.84" height="1.84" shape-rendering="crispEdges"/>
      <rect class="st5" x="535.04" y="44.27" width="1.84" height="1.84" shape-rendering="crispEdges"/>
      <rect class="st5" x="536.88" y="44.27" width="1.84" height="1.84" shape-rendering="crispEdges"/>
      <rect class="st5" x="540.56" y="44.27" width="1.84" height="1.84" shape-rendering="crispEdges"/>
      <rect class="st5" x="542.4" y="44.27" width="1.84" height="1.84" shape-rendering="crispEdges"/>
      <rect class="st5" x="544.24" y="44.27" width="1.84" height="1.84" shape-rendering="crispEdges"/>
      <rect class="st5" x="547.93" y="44.27" width="1.84" height="1.84" shape-rendering="crispEdges"/>
      <rect class="st5" x="551.61" y="44.27" width="1.84" height="1.84" shape-rendering="crispEdges"/>
      <rect class="st5" x="553.45" y="44.27" width="1.84" height="1.84" shape-rendering="crispEdges"/>
      <rect class="st5" x="557.13" y="44.27" width="1.84" height="1.84" shape-rendering="crispEdges"/>
      <rect class="st5" x="558.98" y="44.27" width="1.84" height="1.84" shape-rendering="crispEdges"/>
      <rect class="st5" x="562.66" y="44.27" width="1.84" height="1.84" shape-rendering="crispEdges"/>
      <rect class="st5" x="564.5" y="44.27" width="1.84" height="1.84" shape-rendering="crispEdges"/>
      <rect class="st5" x="566.34" y="44.27" width="1.84" height="1.84" shape-rendering="crispEdges"/>
      <rect class="st5" x="522.15" y="46.12" width="1.84" height="1.84" shape-rendering="crispEdges"/>
      <rect class="st5" x="531.35" y="46.12" width="1.84" height="1.84" shape-rendering="crispEdges"/>
      <rect class="st5" x="533.19" y="46.12" width="1.84" height="1.84" shape-rendering="crispEdges"/>
      <rect class="st5" x="538.72" y="46.12" width="1.84" height="1.84" shape-rendering="crispEdges"/>
      <rect class="st5" x="540.56" y="46.12" width="1.84" height="1.84" shape-rendering="crispEdges"/>
      <rect class="st5" x="544.24" y="46.12" width="1.84" height="1.84" shape-rendering="crispEdges"/>
      <rect class="st5" x="551.61" y="46.12" width="1.84" height="1.84" shape-rendering="crispEdges"/>
      <rect class="st5" x="555.29" y="46.12" width="1.84" height="1.84" shape-rendering="crispEdges"/>
      <rect class="st5" x="558.98" y="46.12" width="1.84" height="1.84" shape-rendering="crispEdges"/>
      <rect class="st5" x="560.82" y="46.12" width="1.84" height="1.84" shape-rendering="crispEdges"/>
      <rect class="st5" x="562.66" y="46.12" width="1.84" height="1.84" shape-rendering="crispEdges"/>
      <rect class="st5" x="564.5" y="46.12" width="1.84" height="1.84" shape-rendering="crispEdges"/>
      <rect class="st5" x="566.34" y="46.12" width="1.84" height="1.84" shape-rendering="crispEdges"/>
      <rect class="st5" x="568.18" y="46.12" width="1.84" height="1.84" shape-rendering="crispEdges"/>
      <rect class="st5" x="570.03" y="46.12" width="1.84" height="1.84" shape-rendering="crispEdges"/>
      <rect class="st5" x="571.87" y="46.12" width="1.84" height="1.84" shape-rendering="crispEdges"/>
      <rect class="st5" x="536.88" y="47.96" width="1.84" height="1.84" shape-rendering="crispEdges"/>
      <rect class="st5" x="538.72" y="47.96" width="1.84" height="1.84" shape-rendering="crispEdges"/>
      <rect class="st5" x="546.09" y="47.96" width="1.84" height="1.84" shape-rendering="crispEdges"/>
      <rect class="st5" x="547.93" y="47.96" width="1.84" height="1.84" shape-rendering="crispEdges"/>
      <rect class="st5" x="549.77" y="47.96" width="1.84" height="1.84" shape-rendering="crispEdges"/>
      <rect class="st5" x="557.13" y="47.96" width="1.84" height="1.84" shape-rendering="crispEdges"/>
      <rect class="st5" x="558.98" y="47.96" width="1.84" height="1.84" shape-rendering="crispEdges"/>
      <rect class="st5" x="566.34" y="47.96" width="1.84" height="1.84" shape-rendering="crispEdges"/>
      <rect class="st5" x="571.87" y="47.96" width="1.84" height="1.84" shape-rendering="crispEdges"/>
      <rect class="st5" x="538.72" y="49.8" width="1.84" height="1.84" shape-rendering="crispEdges"/>
      <rect class="st5" x="540.56" y="49.8" width="1.84" height="1.84" shape-rendering="crispEdges"/>
      <rect class="st5" x="542.4" y="49.8" width="1.84" height="1.84" shape-rendering="crispEdges"/>
      <rect class="st5" x="544.24" y="49.8" width="1.84" height="1.84" shape-rendering="crispEdges"/>
      <rect class="st5" x="546.09" y="49.8" width="1.84" height="1.84" shape-rendering="crispEdges"/>
      <rect class="st5" x="547.93" y="49.8" width="1.84" height="1.84" shape-rendering="crispEdges"/>
      <rect class="st5" x="549.77" y="49.8" width="1.84" height="1.84" shape-rendering="crispEdges"/>
      <rect class="st5" x="551.61" y="49.8" width="1.84" height="1.84" shape-rendering="crispEdges"/>
      <rect class="st5" x="553.45" y="49.8" width="1.84" height="1.84" shape-rendering="crispEdges"/>
      <rect class="st5" x="558.98" y="49.8" width="1.84" height="1.84" shape-rendering="crispEdges"/>
      <rect class="st5" x="562.66" y="49.8" width="1.84" height="1.84" shape-rendering="crispEdges"/>
      <rect class="st5" x="566.34" y="49.8" width="1.84" height="1.84" shape-rendering="crispEdges"/>
      <rect class="st5" x="568.18" y="49.8" width="1.84" height="1.84" shape-rendering="crispEdges"/>
      <rect class="st5" x="570.03" y="49.8" width="1.84" height="1.84" shape-rendering="crispEdges"/>
      <rect class="st5" x="536.88" y="51.64" width="1.84" height="1.84" shape-rendering="crispEdges"/>
      <rect class="st5" x="540.56" y="51.64" width="1.84" height="1.84" shape-rendering="crispEdges"/>
      <rect class="st5" x="544.24" y="51.64" width="1.84" height="1.84" shape-rendering="crispEdges"/>
      <rect class="st5" x="546.09" y="51.64" width="1.84" height="1.84" shape-rendering="crispEdges"/>
      <rect class="st5" x="549.77" y="51.64" width="1.84" height="1.84" shape-rendering="crispEdges"/>
      <rect class="st5" x="553.45" y="51.64" width="1.84" height="1.84" shape-rendering="crispEdges"/>
      <rect class="st5" x="557.13" y="51.64" width="1.84" height="1.84" shape-rendering="crispEdges"/>
      <rect class="st5" x="558.98" y="51.64" width="1.84" height="1.84" shape-rendering="crispEdges"/>
      <rect class="st5" x="566.34" y="51.64" width="1.84" height="1.84" shape-rendering="crispEdges"/>
      <rect class="st5" x="570.03" y="51.64" width="1.84" height="1.84" shape-rendering="crispEdges"/>
      <rect class="st5" x="571.87" y="51.64" width="1.84" height="1.84" shape-rendering="crispEdges"/>
      <rect class="st5" x="573.71" y="51.64" width="1.84" height="1.84" shape-rendering="crispEdges"/>
      <rect class="st5" x="536.88" y="53.48" width="1.84" height="1.84" shape-rendering="crispEdges"/>
      <rect class="st5" x="540.56" y="53.48" width="1.84" height="1.84" shape-rendering="crispEdges"/>
      <rect class="st5" x="544.24" y="53.48" width="1.84" height="1.84" shape-rendering="crispEdges"/>
      <rect class="st5" x="547.93" y="53.48" width="1.84" height="1.84" shape-rendering="crispEdges"/>
      <rect class="st5" x="549.77" y="53.48" width="1.84" height="1.84" shape-rendering="crispEdges"/>
      <rect class="st5" x="555.29" y="53.48" width="1.84" height="1.84" shape-rendering="crispEdges"/>
      <rect class="st5" x="558.98" y="53.48" width="1.84" height="1.84" shape-rendering="crispEdges"/>
      <rect class="st5" x="560.82" y="53.48" width="1.84" height="1.84" shape-rendering="crispEdges"/>
      <rect class="st5" x="562.66" y="53.48" width="1.84" height="1.84" shape-rendering="crispEdges"/>
      <rect class="st5" x="564.5" y="53.48" width="1.84" height="1.84" shape-rendering="crispEdges"/>
      <rect class="st5" x="566.34" y="53.48" width="1.84" height="1.84" shape-rendering="crispEdges"/>
      <rect class="st5" x="570.03" y="53.48" width="1.84" height="1.84" shape-rendering="crispEdges"/>
      <rect class="st5" x="571.87" y="53.48" width="1.84" height="1.84" shape-rendering="crispEdges"/>
      <rect class="st5" x="573.71" y="53.48" width="1.84" height="1.84" shape-rendering="crispEdges"/>
      <rect class="st5" x="536.88" y="55.32" width="1.84" height="1.84" shape-rendering="crispEdges"/>
      <rect class="st5" x="538.72" y="55.32" width="1.84" height="1.84" shape-rendering="crispEdges"/>
      <rect class="st5" x="540.56" y="55.32" width="1.84" height="1.84" shape-rendering="crispEdges"/>
      <rect class="st5" x="544.24" y="55.32" width="1.84" height="1.84" shape-rendering="crispEdges"/>
      <rect class="st5" x="549.77" y="55.32" width="1.84" height="1.84" shape-rendering="crispEdges"/>
      <rect class="st5" x="551.61" y="55.32" width="1.84" height="1.84" shape-rendering="crispEdges"/>
      <rect class="st5" x="555.29" y="55.32" width="1.84" height="1.84" shape-rendering="crispEdges"/>
      <rect class="st5" x="558.98" y="55.32" width="1.84" height="1.84" shape-rendering="crispEdges"/>
      <rect class="st5" x="560.82" y="55.32" width="1.84" height="1.84" shape-rendering="crispEdges"/>
      <rect class="st5" x="564.5" y="55.32" width="1.84" height="1.84" shape-rendering="crispEdges"/>
      <rect class="st5" x="536.88" y="57.17" width="1.84" height="1.84" shape-rendering="crispEdges"/>
      <rect class="st5" x="540.56" y="57.17" width="1.84" height="1.84" shape-rendering="crispEdges"/>
      <rect class="st5" x="542.4" y="57.17" width="1.84" height="1.84" shape-rendering="crispEdges"/>
      <rect class="st5" x="546.09" y="57.17" width="1.84" height="1.84" shape-rendering="crispEdges"/>
      <rect class="st5" x="547.93" y="57.17" width="1.84" height="1.84" shape-rendering="crispEdges"/>
      <rect class="st5" x="555.29" y="57.17" width="1.84" height="1.84" shape-rendering="crispEdges"/>
      <rect class="st5" x="557.13" y="57.17" width="1.84" height="1.84" shape-rendering="crispEdges"/>
      <rect class="st5" x="560.82" y="57.17" width="1.84" height="1.84" shape-rendering="crispEdges"/>
      <rect class="st5" x="562.66" y="57.17" width="1.84" height="1.84" shape-rendering="crispEdges"/>
      <rect class="st5" x="564.5" y="57.17" width="1.84" height="1.84" shape-rendering="crispEdges"/>
      <rect class="st5" x="570.03" y="57.17" width="1.84" height="1.84" shape-rendering="crispEdges"/>
      <rect class="st5" x="571.87" y="57.17" width="1.84" height="1.84" shape-rendering="crispEdges"/>
      <rect class="st5" x="542.4" y="59.01" width="1.84" height="1.84" shape-rendering="crispEdges"/>
      <rect class="st5" x="546.09" y="59.01" width="1.84" height="1.84" shape-rendering="crispEdges"/>
      <rect class="st5" x="547.93" y="59.01" width="1.84" height="1.84" shape-rendering="crispEdges"/>
      <rect class="st5" x="551.61" y="59.01" width="1.84" height="1.84" shape-rendering="crispEdges"/>
      <rect class="st5" x="555.29" y="59.01" width="1.84" height="1.84" shape-rendering="crispEdges"/>
      <rect class="st5" x="558.98" y="59.01" width="1.84" height="1.84" shape-rendering="crispEdges"/>
      <rect class="st5" x="560.82" y="59.01" width="1.84" height="1.84" shape-rendering="crispEdges"/>
      <rect class="st5" x="568.18" y="59.01" width="1.84" height="1.84" shape-rendering="crispEdges"/>
      <rect class="st5" x="570.03" y="59.01" width="1.84" height="1.84" shape-rendering="crispEdges"/>
      <rect class="st5" x="573.71" y="59.01" width="1.84" height="1.84" shape-rendering="crispEdges"/>
      <rect class="st5" x="536.88" y="60.85" width="1.84" height="1.84" shape-rendering="crispEdges"/>
      <rect class="st5" x="540.56" y="60.85" width="1.84" height="1.84" shape-rendering="crispEdges"/>
      <rect class="st5" x="544.24" y="60.85" width="1.84" height="1.84" shape-rendering="crispEdges"/>
      <rect class="st5" x="547.93" y="60.85" width="1.84" height="1.84" shape-rendering="crispEdges"/>
      <rect class="st5" x="555.29" y="60.85" width="1.84" height="1.84" shape-rendering="crispEdges"/>
      <rect class="st5" x="557.13" y="60.85" width="1.84" height="1.84" shape-rendering="crispEdges"/>
      <rect class="st5" x="558.98" y="60.85" width="1.84" height="1.84" shape-rendering="crispEdges"/>
      <rect class="st5" x="560.82" y="60.85" width="1.84" height="1.84" shape-rendering="crispEdges"/>
      <rect class="st5" x="562.66" y="60.85" width="1.84" height="1.84" shape-rendering="crispEdges"/>
      <rect class="st5" x="566.34" y="60.85" width="1.84" height="1.84" shape-rendering="crispEdges"/>
      <rect class="st5" x="568.18" y="60.85" width="1.84" height="1.84" shape-rendering="crispEdges"/>
      <rect class="st5" x="570.03" y="60.85" width="1.84" height="1.84" shape-rendering="crispEdges"/>
      <path class="st4" d="M522.15,9.29h12.89v12.89h-12.89v-12.89ZM523.99,11.13h9.21v9.21h-9.21v-9.21Z" shape-rendering="crispEdges"/>
      <path class="st4" d="M562.66,9.29h12.89v12.89h-12.89v-12.89ZM564.5,11.13h9.21v9.21h-9.21v-9.21Z" shape-rendering="crispEdges"/>
      <rect class="st5" x="525.83" y="12.97" width="5.52" height="5.52" shape-rendering="crispEdges"/>
      <rect class="st5" x="566.34" y="12.97" width="5.52" height="5.52" shape-rendering="crispEdges"/>
      <path class="st4" d="M522.15,49.8h12.89v12.89h-12.89v-12.89ZM523.99,51.64h9.21v9.21h-9.21v-9.21Z" shape-rendering="crispEdges"/>
      <rect class="st5" x="525.83" y="53.48" width="5.52" height="5.52" shape-rendering="crispEdges"/>
    </g>
  </g>
  <g>
    <path class="st0" d="M436.34,36.62h-.75c-.7,0-1.32.05-1.86.17-.54.12-.81.25-.81.41.15.46.28.89.4,1.29.12.4.18.78.18,1.14,0,.26-.03.47-.08.63s-.15.34-.29.53c-.04-.5-.14-1.03-.28-1.59-.05-.2-.17-.61-.37-1.23-.12-.39-.18-.64-.18-.77,0-.18.05-.4.15-.67.08-.22.17-.41.28-.58.12-.19.34-.34.64-.45.3-.11.77-.2,1.39-.27-.31-.43-.57-.64-.8-.64-.1,0-.19.04-.28.11-.09.08-.23.24-.43.5l-.28-.14c.17-.59.38-1.04.62-1.35.25-.32.52-.47.81-.47.26,0,.54.15.86.44.31.29.68.75,1.09,1.38v1.56ZM439.91,36.62h-3.98v-1.56h3.44c0-.33,0-.57-.03-.71-.03-.22-.09-.41-.19-.57-.12.24-.29.42-.49.55-.21.13-.43.19-.66.19-.31,0-.56-.1-.77-.3-.21-.2-.32-.46-.32-.76,0-.45.14-.99.41-1.61.3-.68.61-1.02.92-1.02.4,0,.78.35,1.14,1.05s.53,1.44.53,2.22v2.53ZM439.37,28.97l-.6,1.11-.85-.42-.48.93-1.04-.59.63-1.17.81.46.46-.91,1.07.59ZM438.67,32.76c-.1-.18-.19-.31-.27-.38-.08-.07-.16-.11-.26-.11-.11,0-.22.05-.31.15s-.14.22-.14.36c0,.09.04.16.11.22.07.06.16.09.27.09.09,0,.18-.03.27-.08.09-.05.2-.14.33-.27ZM444.91,36.76c0,.23-.13.54-.4.93-.27.38-.58.72-.94,1-.4.31-.74.47-1.02.47-.34,0-.7-.1-1.08-.29-.34-.16-.86-.49-1.58-.99l.24-.36c.34.23.62.38.83.46.21.08.44.12.68.12.26,0,.53-.07.79-.22.26-.15.62-.43,1.08-.83.63-.57.95-1,.95-1.31,0-.15-.06-.35-.18-.6-.14-.28-.31-.52-.5-.71l.32-1.55c.26.27.46.58.6.92.14.35.21.74.21,1.19v1.76ZM454.82,33.83c0,.21-.02.38-.06.52-.04.14-.13.32-.27.55-.1-.27-.19-.45-.26-.53-.07-.08-.17-.12-.31-.12-.21,0-.49.12-.85.35-.36.24-.54.43-.54.59,0,.08.07.14.22.18.1.02.26.03.48.03h.17c.06,0,.11,0,.17,0,.42,0,.69.04.83.13.12.07.18.21.18.42,0,.41-.08.81-.23,1.19-.19.48-.47.82-.83,1.02-.46.26-.93.46-1.42.62-.49.16-.95.24-1.37.24-1.19,0-1.78-.53-1.78-1.6,0-.54.07-1,.2-1.39.15-.44.46-1.03.95-1.77l.26.17c-.28.48-.5.9-.64,1.28-.14.37-.21.7-.21.98,0,.72.41,1.08,1.22,1.08.31,0,.6-.03.87-.08.28-.06.55-.13.84-.23.18-.07.39-.15.63-.25.38-.17.58-.26.6-.27.17-.09.26-.17.26-.25,0-.04-.09-.06-.28-.07-.19,0-.32-.01-.39-.01-.59,0-.98-.08-1.18-.25-.16-.14-.24-.39-.24-.76,0-.18.06-.4.17-.67.11-.27.26-.53.44-.8.28-.4.56-.71.84-.91.28-.21.55-.31.82-.31.22,0,.4.09.53.26.13.17.2.4.2.69ZM453.3,39.5l-.42.78-.88-.45-.42.76-.88-.47.44-.79.86.45.42-.73.9.46ZM460.69,36.76c0,.23-.13.54-.4.93-.27.38-.58.72-.94,1-.4.31-.74.47-1.02.47-.34,0-.7-.1-1.08-.29-.34-.16-.86-.49-1.58-.99l.24-.36c.34.23.62.38.83.46.21.08.44.12.68.12.26,0,.53-.07.79-.22.26-.15.62-.43,1.08-.83.63-.57.95-1,.95-1.31,0-.15-.06-.35-.18-.6-.14-.28-.31-.52-.5-.71l.32-1.55c.26.27.46.58.6.92.14.35.21.74.21,1.19v1.76ZM463.45,36.62h-.8c-.45,0-.77-.18-.97-.55-.22-.41-.33-1.09-.33-2.05v-1.64c0-.37-.05-.66-.15-.87-.05-.1-.16-.24-.34-.43l.62-1.43c.22.31.38.61.46.91.1.35.15.79.15,1.33v1.13c0,.8.05,1.35.16,1.66.08.25.22.37.4.37h.8v1.56ZM469.64,36.62h-6.55v-1.56h4.08c-.46-.48-.89-.82-1.29-1.03-.35-.19-.69-.28-1.02-.28-.1,0-.19,0-.27.01-.08,0-.2.03-.36.07.21-.48.44-.84.7-1.07s.55-.34.88-.34c.25,0,.5.06.73.18.23.12.5.32.79.59.23.21.55.55.98,1,.29.32.51.53.66.63.15.1.38.18.68.24v1.56ZM467.51,37.87l-.69,1.29-1.34-.7.69-1.3,1.34.71ZM472.83,36.62h-3.59v-1.56h3.02c-.04-.26-.12-.48-.23-.66-.06-.1-.19-.27-.4-.52l.46-1.37c.29.33.48.67.59,1.02.11.36.16.88.16,1.58v1.5ZM472.74,30.49l-.6,1.11-.85-.42-.48.93-1.04-.59.63-1.17.81.46.46-.91,1.07.59ZM481.25,36.48c0,.59-.31,1.11-.92,1.57-.61.46-1.31.68-2.09.68-.65,0-1.17-.17-1.53-.5-.37-.33-.55-.79-.55-1.39,0-.55.07-1.04.21-1.45.16-.47.46-1.04.92-1.72l.36.24c-.3.45-.51.84-.64,1.16-.13.33-.19.66-.19.98,0,.35.13.62.39.81.26.19.62.28,1.09.28.67,0,1.22-.13,1.64-.39.42-.26.63-.6.63-1.02v-.27c0-.15-.01-.31-.04-.49-.02-.18-.09-.55-.19-1.11-.16-.91-.33-1.82-.49-2.73l-.29-.21c0-.37.18-.95.53-1.72l.26.13c-.02.05-.02.11-.02.18,0,.15.08.28.24.37.23.13.45.25.66.37-.04.33-.08.56-.13.71-.04.14-.13.35-.26.64l-.17-.07c0,.06.05.38.16.98.11.59.2,1.11.28,1.54.11.62.16,1,.16,1.13v1.29ZM487.37,36.62h-6.55v-1.56h4.08c-.46-.48-.89-.82-1.29-1.03-.35-.19-.69-.28-1.02-.28-.1,0-.19,0-.27.01-.08,0-.2.03-.36.07.21-.48.44-.84.7-1.07s.55-.34.88-.34c.25,0,.5.06.73.18.23.12.5.32.79.59.23.21.55.55.98,1,.29.32.51.53.66.63.15.1.38.18.68.24v1.56ZM485.23,37.87l-.69,1.29-1.34-.7.69-1.3,1.34.71ZM494.51,36.62c-.43,0-.78-.03-1.07-.09-.28-.06-.56-.16-.84-.29-.22.16-.42.26-.59.31-.17.05-.44.07-.78.07h-.94c-.26,0-.46-.07-.61-.2-.15-.13-.28-.36-.4-.67-.21.32-.45.55-.71.69-.22.12-.49.18-.8.18h-.82v-1.56h.82c.4,0,.74-.11,1-.34.35-.29.52-.74.52-1.34l.38.06c0,.12-.02.26-.02.42,0,.16-.01.33-.01.52s.07.36.2.49c.13.13.29.2.46.2h.71c.47,0,.8-.07,1-.2.24-.16.36-.45.36-.88,0-.09.03-.17.09-.25.03-.04.11-.11.21-.19l.22-.17c0,.07.01.17.02.3,0,.12,0,.21,0,.24,0,.21-.03.49-.09.84.14.07.3.13.48.18.18.05.36.09.56.11,0-.13-.05-.3-.14-.5-.1-.21-.14-.35-.14-.42,0-.1.01-.18.04-.23,0-.02.05-.08.13-.18l.49-.66c.1.24.18.46.22.66.04.2.07.44.07.74v2.17Z"/>
    <path class="st0" d="M305.39,38.05h-.59c-.17,0-.3,0-.37.01-.07,0-.11.03-.11.07.11.07.22.11.31.13.1.02.16.06.19.1.03.04.05.1.05.19,0,.27-.08.6-.23.97-.15.38-.31.61-.46.7-.14.12-.56.26-1.26.41-.7.15-1.3.23-1.8.23-.72,0-1.3-.15-1.74-.45-.44-.3-.67-.69-.67-1.17s.1-.91.29-1.34c.24-.51.68-1.16,1.31-1.95l.34.24c-.4.49-.68.88-.83,1.19-.15.31-.23.61-.23.9,0,.41.17.71.51.91.34.2.86.3,1.57.3.37,0,.88-.07,1.53-.2.65-.13.98-.25.98-.35,0-.05-.12-.09-.37-.13-.25-.04-.52-.06-.82-.06-.44,0-.65-.1-.65-.29,0-.09.05-.24.15-.47.07-.16.15-.31.22-.47.14-.32.41-.57.81-.77.4-.2.82-.29,1.25-.29h.63v1.56ZM303,41.48l-.56.64-.61-.38-.45.48-.72-.4.54-.69.63.4.45-.52.72.46ZM308.62,38.05h-3.59v-1.56h3.02c-.04-.26-.12-.48-.23-.66-.06-.1-.19-.27-.4-.52l.46-1.37c.29.33.48.67.59,1.02.11.36.16.88.16,1.58v1.5ZM308.04,39.25l-.69,1.29-1.34-.7.69-1.3,1.34.71ZM311.81,38.05h-3.59v-1.56h3.02c-.04-.26-.12-.48-.23-.66-.06-.1-.19-.27-.4-.52l.46-1.37c.29.33.48.67.59,1.02.11.36.16.88.16,1.58v1.5ZM311.71,39.06l-.6,1.11-.85-.42-.48.93-1.04-.59.63-1.17.81.46.46-.91,1.07.59ZM316.82,38.18c0,.23-.13.54-.4.93-.27.38-.58.72-.94,1-.4.31-.74.47-1.02.47-.34,0-.7-.1-1.08-.29-.34-.16-.86-.49-1.58-.99l.24-.36c.34.23.62.38.83.46.21.08.44.12.68.12.26,0,.53-.07.79-.22.26-.15.62-.43,1.08-.83.63-.57.95-1,.95-1.31,0-.15-.06-.35-.18-.6-.14-.28-.31-.52-.5-.71l.32-1.55c.26.27.46.58.6.92.14.35.21.74.21,1.19v1.76ZM325.9,38.05h-6.08c-.27,0-.49-.07-.65-.2-.16-.14-.3-.36-.42-.66-.24.34-.48.57-.7.69-.2.11-.47.17-.8.17h-.82s0-1.56,0-1.56h.82c.44,0,.78-.12,1.01-.34.27-.26.44-.71.52-1.34l.39.06c-.01.14-.02.25-.02.33-.02.25-.02.46-.02.61,0,.22.06.39.17.5.11.12.27.18.45.18s.36-.04.52-.11c.16-.08.41-.24.75-.48l2.05-1.47c.24-.17.42-.29.55-.37.28-.17.55-.25.81-.25.43,0,.77.15,1.03.45.3.35.45.88.45,1.59v2.2ZM323.04,31.89l-.69,1.29-1.34-.7.69-1.3,1.34.71ZM323.2,36.49c1.26,0,1.89-.2,1.89-.59,0-.17-.14-.31-.41-.42-.23-.09-.48-.13-.76-.13-.25,0-.54.08-.85.24-.32.16-.77.46-1.37.89h1.5ZM328.69,38.05h-3.16v-1.56h2.47l-.69-3.9-.37-.24c0-.23.03-.45.1-.68.09-.29.24-.64.45-1.04l.26.14s0,.08-.02.18c0,.13.08.25.24.37.14.11.37.23.68.36-.03.24-.09.48-.15.72-.07.23-.14.44-.23.63l-.21-.08.63,3.55v1.56ZM330.8,35.13c.04.44.06.86.06,1.26,0,.34-.04.65-.12.93s-.24.66-.46,1.13l-.34-.14c.09-.49.14-.89.14-1.19,0-.23-.02-.58-.06-1.03-.04-.45-.09-.9-.14-1.34-.06-.44-.15-.97-.28-1.58-.05-.21-.07-.36-.07-.44,0-.12.06-.32.18-.61.12-.28.28-.63.5-1.04l.34,2.03c.13.77.21,1.44.26,2.01h0ZM338.75,38.05h-.75c-.7,0-1.32.05-1.86.17-.54.12-.81.25-.81.41.15.46.28.89.4,1.29.12.4.18.78.18,1.14,0,.26-.03.47-.08.63s-.15.34-.29.53c-.04-.5-.14-1.03-.28-1.59-.05-.2-.17-.61-.37-1.23-.12-.39-.18-.64-.18-.77,0-.18.05-.4.15-.67.08-.22.17-.41.28-.58.12-.19.34-.34.64-.45.3-.11.77-.2,1.39-.27-.31-.43-.57-.64-.8-.64-.1,0-.19.04-.28.11-.09.08-.23.24-.43.5l-.28-.14c.17-.59.38-1.04.62-1.35.25-.32.52-.47.81-.47.26,0,.54.15.86.44.31.29.68.75,1.09,1.38v1.56ZM342.33,38.05h-3.98v-1.56h3.44c0-.33,0-.57-.03-.71-.03-.22-.09-.41-.19-.57-.12.24-.29.42-.49.55-.21.13-.43.19-.66.19-.31,0-.56-.1-.77-.3-.21-.2-.32-.46-.32-.76,0-.45.14-.99.41-1.61.3-.68.61-1.02.92-1.02.4,0,.78.35,1.14,1.05s.53,1.44.53,2.22v2.53ZM341.79,30.4l-.6,1.11-.85-.42-.48.93-1.04-.59.63-1.17.81.46.46-.91,1.07.59ZM341.08,34.19c-.1-.18-.19-.31-.27-.38-.08-.07-.16-.11-.26-.11-.11,0-.22.05-.31.15s-.14.22-.14.36c0,.09.04.16.11.22.07.06.16.09.27.09.09,0,.18-.03.27-.08.09-.05.2-.14.33-.27ZM347.32,38.18c0,.23-.13.54-.4.93-.27.38-.58.72-.94,1-.4.31-.74.47-1.02.47-.34,0-.7-.1-1.08-.29-.34-.16-.86-.49-1.58-.99l.24-.36c.34.23.62.38.83.46.21.08.44.12.68.12.26,0,.53-.07.79-.22.26-.15.62-.43,1.08-.83.63-.57.95-1,.95-1.31,0-.15-.06-.35-.18-.6-.14-.28-.31-.52-.5-.71l.32-1.55c.26.27.46.58.6.92.14.35.21.74.21,1.19v1.76ZM350.08,38.05h-3.16v-1.56h2.47l-.69-3.9-.37-.24c0-.23.03-.45.1-.68.09-.29.24-.64.45-1.04l.26.14s0,.08-.02.18c0,.13.08.25.24.37.14.11.37.23.68.36-.03.24-.09.48-.15.72-.07.23-.14.44-.23.63l-.21-.08.63,3.55v1.56ZM352.19,35.13c.04.44.06.86.06,1.26,0,.34-.04.65-.12.93s-.24.66-.46,1.13l-.34-.14c.09-.49.14-.89.14-1.19,0-.23-.02-.58-.06-1.03-.04-.45-.09-.9-.14-1.34-.06-.44-.15-.97-.28-1.58-.05-.21-.07-.36-.07-.44,0-.12.06-.32.18-.61.12-.28.28-.63.5-1.04l.34,2.03c.13.77.21,1.44.26,2.01h0Z"/>
    <text class="st1" transform="translate(363.59 38.91)"><tspan x="0" y="0">1010639899</tspan></text>
    <text class="st1" transform="translate(195.79 38.91)"><tspan x="0" y="0">311118228600003</tspan></text>
  </g>
</svg>