<?xml version="1.0" encoding="UTF-8"?>
<svg id="Layer_1" xmlns="http://www.w3.org/2000/svg" version="1.1" viewBox="0 0 708.66 141.73">
  <!-- Generator: Adobe Illustrator 30.0.0, SVG Export Plug-In . SVG Version: 2.1.1 Build 123)  -->
  <defs>
    <style>
      .st0 {
        fill: #f39320;
      }

      .st0, .st1, .st2, .st3, .st4, .st5 {
        fill-rule: evenodd;
      }

      .st1 {
        fill: #51ac5f;
      }

      .st2 {
        fill: #1680c4;
      }

      .st3 {
        fill: #ffcf32;
      }

      .st6, .st4 {
        fill: #07917c;
      }

      .st5 {
        fill: #e94838;
      }
    </style>
  </defs>
  <g>
    <path class="st6" d="M608.89,42.76c.62,0,1.15-.2,1.59-.61.44-.41.65-.97.65-1.69s-.22-1.31-.65-1.72c-.44-.41-.97-.61-1.59-.61s-1.15.2-1.59.61c-.43.41-.65.98-.65,1.72s.22,1.28.65,1.69c.44.41.97.61,1.59.61Z"/>
    <path class="st6" d="M237.74,38.47l-5.14.52v21.66h5v-17.63c0-.39,0-.86.01-1.4,0-.55.03-1.08.06-1.61.03-.53.08-.96.15-1.31l-.08-.23Z"/>
    <path class="st6" d="M593.73,43.03c0-.39,0-.86.01-1.4,0-.55.03-1.08.06-1.61.03-.53.08-.96.16-1.31l-.08-.23-5.14.52v21.66h5v-17.63Z"/>
    <path class="st6" d="M614.02,42.15c.64,0,1.18-.2,1.62-.61.44-.41.65-.97.65-1.69s-.22-1.31-.65-1.71c-.44-.4-.98-.6-1.62-.6-.6,0-1.13.2-1.57.6-.45.4-.67.97-.67,1.71s.22,1.29.67,1.69c.44.41.97.61,1.57.61Z"/>
    <path class="st6" d="M682.48,44.14c.64,0,1.18-.2,1.6-.61.43-.41.64-.98.64-1.72s-.22-1.29-.65-1.69c-.43-.41-.97-.62-1.59-.62s-1.16.21-1.59.62c-.43.41-.65.97-.65,1.69s.22,1.31.65,1.72c.43.41.97.61,1.59.61Z"/>
    <path class="st6" d="M290.16,62.67c-.62,0-1.16.2-1.6.6-.45.4-.67.96-.67,1.68s.22,1.31.67,1.72c.44.41.98.62,1.6.62s1.18-.21,1.6-.62c.42-.41.64-.98.64-1.72s-.22-1.28-.65-1.68c-.43-.4-.96-.6-1.59-.6Z"/>
    <path class="st6" d="M685.37,41.25c0,.74.22,1.31.67,1.72.44.41.97.61,1.57.61.64,0,1.18-.2,1.62-.61.43-.41.65-.98.65-1.72s-.22-1.28-.65-1.68c-.43-.4-.96-.6-1.59-.6s-1.16.2-1.6.6c-.45.4-.67.96-.67,1.68Z"/>
    <path class="st6" d="M684.67,39.17c.58,0,1.08-.18,1.47-.55.4-.37.6-.89.6-1.58s-.2-1.18-.6-1.55c-.4-.37-.89-.56-1.47-.56s-1.08.19-1.48.56c-.4.37-.59.89-.59,1.55s.2,1.21.59,1.58c.4.37.89.55,1.48.55Z"/>
    <path class="st6" d="M276.79,58.6v2.06h6.76v-3.77l.57-.58h-3.07v-12.52h-.31l-4.68.52v1.89c-.92.35-1.78.69-2.54,1.03-1.37.6-2.51,1.2-3.42,1.8-.91.6-1.62,1.2-2.14,1.81-.52.62-.89,1.26-1.11,1.94-.22.68-.32,1.42-.32,2.22,0,1.15.25,2.15.75,2.99.5.85,1.16,1.5,1.98,1.97.82.47,1.74.7,2.74.7.93,0,1.75-.15,2.47-.45.72-.3,1.32-.67,1.8-1.09.2-.18.37-.34.52-.51ZM273.56,56.57c-.7,0-1.27-.21-1.72-.63-.45-.42-.67-1.04-.67-1.85,0-.51.06-1.01.18-1.5.02-.07.06-.12.08-.19.34-.23.68-.49,1.03-.69.77-.44,1.55-.83,2.35-1.17.4-.17.82-.33,1.24-.49v5.66c-.2.12-.39.26-.58.36-.63.33-1.27.5-1.91.5Z"/>
    <path class="st6" d="M255.83,62.96c.77-1.75,1.15-3.89,1.15-6.42,0-1.63-.24-3.12-.71-4.45-.47-1.33-1.1-2.48-1.87-3.43-.78-.95-1.64-1.69-2.6-2.21-.96-.52-1.93-.77-2.91-.77s-1.95.22-2.85.66c-.9.44-1.7,1.04-2.4,1.79-.7.76-1.25,1.64-1.66,2.64-.41,1-.61,2.07-.61,3.2,0,1.44.35,2.66,1.05,3.66.7,1,1.66,1.76,2.88,2.28,1.22.52,2.61.77,4.16.77.45,0,.94-.03,1.45-.09.34-.04.66-.12.99-.19-.11.91-.28,1.67-.51,2.26-.11.29-.23.54-.36.78-.28.13-.57.23-.86.3-.61.14-1.32.2-2.16.2-.61,0-1.35-.08-2.23-.23-.88-.16-1.72-.44-2.51-.85h-.31l-1.47,4c1.02.47,1.99.82,2.91,1.05.92.23,1.99.35,3.22.35,1.95,0,3.62-.45,4.99-1.34,1.38-.89,2.46-2.22,3.22-3.97ZM249.75,56.42c-.85,0-1.55-.15-2.1-.45s-.96-.69-1.22-1.15c-.27-.47-.4-.94-.4-1.43,0-1.01.33-1.96.98-2.85.4-.54.94-.94,1.55-1.28.36.24.7.51,1,.82.58.57,1.05,1.22,1.43,1.94s.65,1.49.82,2.32c.12.57.14,1.18.18,1.78-.32.09-.65.18-.98.22-.45.06-.86.09-1.26.09Z"/>
    <path class="st6" d="M219.95,67.11h-2.01c-.45,0-.86-.08-1.21-.25-.21-.1-.38-.27-.53-.49.16-.38.36-.68.63-.82.38-.2.86-.31,1.45-.31h.79l.88-2.68v-.26h-1.7c-.98,0-1.83.19-2.54.57-.71.38-1.26.89-1.65,1.52-.39.63-.58,1.33-.58,2.09,0,.64.16,1.23.47,1.76.31.53.75.96,1.31,1.28.56.32,1.2.48,1.92.48h1.93l.85-2.63v-.26Z"/>
    <path class="st6" d="M383.17,48.66c.64,0,1.18-.21,1.6-.62.42-.41.64-.98.64-1.72s-.22-1.28-.65-1.69c-.44-.41-.97-.61-1.59-.61s-1.16.2-1.59.61c-.44.41-.65.97-.65,1.69s.22,1.32.65,1.72c.43.41.96.62,1.59.62Z"/>
    <path class="st6" d="M283.41,63.88c-.44.4-.65.96-.65,1.68s.22,1.31.65,1.72c.43.41.97.61,1.59.61s1.18-.2,1.61-.61c.42-.41.64-.99.64-1.72s-.21-1.28-.64-1.68c-.43-.4-.95-.6-1.58-.6s-1.18.2-1.61.6Z"/>
    <path class="st6" d="M426.17,60.66h9.54v.03l21.8-.03,1.48-4.03v-.32h-2.75c-.49,0-1.1-.2-1.83-.61-.73-.41-1.53-.96-2.4-1.65-.19-.15-.39-.32-.58-.48.97-.13,1.88-.33,2.66-.7,1.18-.57,2.1-1.45,2.74-2.66.64-1.21.97-2.78.97-4.73v-7h-.28l-4.71.52v7.71c0,.86-.04,1.55-.13,2.07-.02.14-.08.26-.12.39-.25.14-.5.27-.79.37-.75.25-1.55.39-2.4.41-.7.02-1.39-.07-2.08-.21-.29-.28-.58-.55-.87-.84-.95-.95-1.86-1.89-2.73-2.82-.87-.92-1.66-1.78-2.38-2.55h-.31l-2.84,3.88c1.23,1.42,2.45,2.75,3.68,3.98,1.22,1.24,2.41,2.33,3.57,3.27.8.65,1.57,1.18,2.31,1.65h-14.8c.4-.82.61-1.7.61-2.63,0-.82-.17-1.63-.51-2.42-.34-.8-.75-1.53-1.23-2.2-.48-.67-.96-1.23-1.44-1.68h-.34c-.57.13-1.28.23-2.14.28-.86.05-1.75.07-2.65.07h-.91c-.93,0-1.89-.04-2.9-.13-1-.09-1.91-.26-2.73-.51h-.28l-1.22,4c.64.27,1.32.48,2.03.61.71.14,1.42.22,2.13.26.71.04,1.35.06,1.91.06h1.11c.57,0,1.1-.02,1.59-.06.49-.04,1.02-.11,1.59-.2.09-.02.21-.04.3-.06.19.26.38.5.55.83.26.54.4,1.09.4,1.68,0,.72-.24,1.25-.72,1.59-.48.34-1.32.51-2.51.51h-9.45l-1.5,4.03v.32h11.58Z"/>
    <path class="st6" d="M284.63,60.07l-.51.58h3.15c1.19,0,2.2-.06,3.01-.17.81-.12,1.51-.3,2.07-.53v-.23c-.08-.35-.13-.8-.16-1.36-.03-.55-.05-1.12-.05-1.69-.01-.58-.02-1.06-.02-1.45v-10.19h-.31l-4.69.52v8.2c0,.82.04,1.52.13,2.1.02.17.07.3.11.44h-2.73v3.77Z"/>
    <path class="st6" d="M301.6,60.66h18.14l1.53-4.03v-.32h-6.75c-.85,0-1.5-.19-1.96-.57-.45-.38-.68-.86-.68-1.44s.23-1.16.69-1.72c.46-.56,1.16-1.19,2.07-1.87.92-.68,2.07-1.48,3.45-2.39l-1.22-4.35h-.31c-1.82,1.03-3.32,1.99-4.51,2.88-1.19.88-2.13,1.71-2.81,2.46-.68.76-1.16,1.49-1.43,2.2-.27.71-.41,1.42-.41,2.12,0,.74.13,1.41.4,2.01.11.24.25.46.39.67h-6.57v-13.28c0-.39,0-.86.01-1.4s.03-1.08.06-1.61c.03-.53.08-.96.15-1.31l-.08-.23-5.14.52v21.66h4.99Z"/>
    <path class="st6" d="M385.36,43.7c.59,0,1.08-.18,1.47-.56.4-.37.6-.89.6-1.58s-.2-1.18-.6-1.55c-.4-.37-.89-.55-1.47-.55s-1.08.19-1.48.55c-.4.37-.6.89-.6,1.55s.2,1.21.6,1.58c.4.37.89.56,1.48.56Z"/>
    <path class="st6" d="M386.06,45.77c0,.74.22,1.31.67,1.72.44.41.97.61,1.57.61.64,0,1.18-.2,1.62-.61.43-.41.65-.98.65-1.72s-.22-1.28-.65-1.68c-.44-.4-.97-.6-1.59-.6s-1.16.2-1.6.6c-.45.4-.67.96-.67,1.68Z"/>
    <path class="st6" d="M276.57,42.15c.64,0,1.18-.2,1.62-.61.44-.41.65-.97.65-1.69s-.22-1.31-.65-1.71c-.44-.4-.97-.6-1.62-.6-.6,0-1.13.2-1.57.6-.44.4-.67.97-.67,1.71s.22,1.29.67,1.69c.45.41.97.61,1.57.61Z"/>
    <path class="st6" d="M160.23,57.56c.63,0,1.16-.2,1.59-.61.43-.41.65-.98.65-1.72s-.22-1.31-.65-1.71c-.44-.4-.97-.6-1.59-.6s-1.15.2-1.59.6c-.44.4-.65.97-.65,1.71s.22,1.31.65,1.72c.44.41.97.61,1.59.61Z"/>
    <path class="st6" d="M210.95,60.66l1.53-4.03v-.32h-6.76c-.85,0-1.5-.19-1.96-.57-.45-.38-.68-.86-.68-1.44s.23-1.16.69-1.72c.47-.56,1.15-1.19,2.07-1.87.92-.68,2.07-1.48,3.45-2.39l-1.22-4.35h-.31c-1.82,1.03-3.32,1.99-4.51,2.88-1.19.88-2.13,1.71-2.81,2.46-.68.76-1.16,1.49-1.44,2.2-.27.71-.41,1.42-.41,2.12,0,.74.13,1.41.4,2.01.11.24.24.46.39.67h-6.72v-17.83h-.28l-4.71.52v14.86c0,.82.05,1.5.14,2.06.03.15.07.27.1.4h-3.71v-11.71h-.31l-4.69.5v8.76c0,.82.04,1.5.13,2.06.02.15.07.27.1.4h-4.86l-1.45,4.03v.32h37.8Z"/>
    <path class="st6" d="M156.43,65.85c.34.33.79.68,1.36,1.05.57.37,1.24.69,2.01.95.78.26,1.65.39,2.61.39,1.25,0,2.4-.23,3.45-.7,1.05-.47,1.96-1.19,2.72-2.19.77-.99,1.36-2.27,1.79-3.84.42-1.56.64-3.43.64-5.59,0-1.21-.06-2.58-.18-4.13-.12-1.55-.31-3.25-.55-5.09h-.31l-4.77.52c.17.88.31,1.85.42,2.92.11,1.07.21,2.17.28,3.3.07,1.13.11,2.22.11,3.27s-.05,2.04-.15,3.02c-.1.98-.27,1.87-.48,2.66-.1.38-.22.72-.35,1.03-.1.04-.15.05-.26.1-.42.19-.9.29-1.45.29-.59,0-1.22-.09-1.89-.26-.67-.17-1.33-.47-1.97-.89-.64-.42-1.25-.97-1.81-1.65h-.31l-1.59,4.15c.11.14.34.37.68.7Z"/>
    <path class="st6" d="M572.98,42.21c.64,0,1.18-.2,1.62-.61.44-.41.65-.97.65-1.69s-.22-1.31-.65-1.71-.97-.6-1.62-.6c-.61,0-1.13.2-1.57.6-.45.4-.67.97-.67,1.71s.22,1.29.67,1.69c.44.41.97.61,1.57.61Z"/>
    <path class="st6" d="M567.85,42.82c.62,0,1.15-.2,1.59-.61.44-.41.65-.97.65-1.69s-.22-1.31-.65-1.72c-.43-.41-.96-.62-1.59-.62s-1.16.2-1.59.62c-.43.41-.65.98-.65,1.72s.22,1.29.65,1.69c.43.41.97.61,1.59.61Z"/>
    <path class="st6" d="M271.43,42.76c.62,0,1.15-.2,1.59-.61.43-.41.65-.97.65-1.69s-.22-1.31-.65-1.72c-.44-.41-.97-.61-1.59-.61s-1.15.2-1.59.61c-.44.41-.65.98-.65,1.72s.22,1.28.65,1.69c.44.41.97.61,1.59.61Z"/>
    <path class="st6" d="M218.19,51.78c-.61,1.11-1.12,1.97-1.55,2.6-.42.62-.8,1.09-1.12,1.4-.32.31-.63.55-.94.73,0,1.3.29,2.32.87,3.05.58.73,1.39,1.09,2.43,1.09h9.93c.44,0,.82-.03,1.15-.1.33-.07.59-.19.78-.37v-.23l-4.46-7.68h-.23l-1.48,2.6.78,1.43h-3.92s.05-.03.07-.05c.26-.2.55-.51.85-.93.3-.42.66-1.01,1.08-1.77l8.06-14.77v-.32h-4.82l-4.04,7.18-3.73-7.18h-4.97v.32l6.27,11.21-1.01,1.78Z"/>
    <path class="st6" d="M402.61,63.88c-.44.4-.65.96-.65,1.68s.22,1.31.65,1.72c.43.41.97.61,1.59.61s1.18-.2,1.6-.61c.43-.41.64-.99.64-1.72s-.21-1.28-.64-1.68c-.43-.4-.95-.6-1.58-.6s-1.18.2-1.62.6Z"/>
    <path class="st6" d="M575.68,60.66h3.72c1.19,0,2.19-.06,3-.17.82-.12,1.51-.3,2.07-.53v-.23c-.08-.35-.13-.8-.16-1.36-.03-.55-.05-1.12-.05-1.69-.01-.58-.02-1.06-.02-1.45v-16.78h-.31l-4.68.53v14.88c0,.82.04,1.5.13,2.06.02.15.07.27.1.4h-6.9v-11.27h-.31l-4.68.52v8.29c0,.82.04,1.5.13,2.06.02.15.07.27.1.4h-7.06s.04-.06.06-.09c.37-.8.55-1.64.55-2.54,0-.82-.17-1.63-.51-2.42-.34-.8-.75-1.53-1.23-2.2-.48-.67-.96-1.23-1.44-1.68h-.34c-.57.13-1.28.23-2.14.28-.86.05-1.73.07-2.62.07h-14.93l-1.19,3.2v-4.22h-.28l-4.71.52v6.63c0,.82.05,1.5.14,2.06.03.15.07.27.1.4h-3.23c-.87,0-1.64-.32-2.3-.96-.66-.64-1.22-1.59-1.68-2.83l-2.36-6.39-.54-.32c-1.38,0-2.75.2-4.1.58-1.35.39-2.58.97-3.67,1.75-1.1.78-1.98,1.74-2.63,2.89-.65,1.15-.98,2.49-.98,4.03,0,.45.05.86.1,1.26h-5.84v-11.27h-.31l-4.69.52v8.29c0,.82.04,1.5.13,2.06.02.15.07.27.1.4h-3.3c-.89,0-1.66-.32-2.31-.96-.65-.64-1.21-1.59-1.69-2.83l-2.36-6.39-.54-.32c-1.38,0-2.74.2-4.09.58-1.34.39-2.56.97-3.66,1.75-1.1.78-1.97,1.74-2.63,2.89-.65,1.15-.98,2.49-.98,4.03,0,1.11.17,2.07.5,2.89.03.07.07.13.1.2l-4.46,7.1v.32h5.33l2.25-4.21c.68.34,1.37.58,2.06.72.7.15,1.36.22,1.98.22.66,0,1.38-.09,2.16-.28.78-.18,1.54-.44,2.3-.77l.63-2.26c.47.45.97.83,1.55,1.1.87.39,1.96.58,3.27.58h16.99c.34.26.7.49,1.09.68.68.34,1.38.59,2.09.73.71.15,1.36.22,1.97.22.68,0,1.41-.09,2.17-.28.77-.18,1.53-.44,2.28-.77l.64-2.28c.47.45.99.85,1.58,1.11.87.39,1.95.58,3.24.58h47.25ZM487.36,57.71c-.68,0-1.33-.12-1.93-.35-.61-.24-1.09-.58-1.46-1.04-.37-.46-.55-1.03-.55-1.71,0-.52.13-1.04.38-1.53.26-.5.62-.94,1.09-1.33.47-.39,1.04-.71,1.72-.95.21-.07.43-.12.65-.17l1.87,4.57c.36.79.74,1.46,1.11,2.06-.17.05-.32.1-.5.15-.75.2-1.54.29-2.37.29ZM519.4,57.71c-.66,0-1.3-.12-1.9-.35-.6-.24-1.1-.58-1.48-1.04-.38-.46-.57-1.03-.57-1.71,0-.52.12-1.04.37-1.53.25-.5.6-.94,1.08-1.33.47-.39,1.03-.71,1.67-.95.23-.09.47-.14.71-.2l1.9,4.59c.35.79.72,1.45,1.09,2.06-.17.05-.32.11-.51.15-.75.2-1.54.29-2.37.29ZM552.66,56.31h-15.69v-4.23h15.27c.59,0,1.12-.02,1.6-.06.48-.04,1.01-.11,1.57-.2.1-.02.23-.05.34-.07.18.25.37.47.52.78.26.54.38,1.09.38,1.68,0,.7-.24,1.22-.71,1.58-.47.35-1.3.52-2.5.52h-.79Z"/>
    <path class="st6" d="M621.6,56.31h-3.09v-12.52h-.31l-4.68.52v1.89c-.92.35-1.78.69-2.54,1.03-1.37.6-2.51,1.2-3.42,1.8-.91.6-1.62,1.2-2.14,1.81-.52.62-.89,1.26-1.11,1.94-.22.68-.33,1.42-.33,2.22,0,1.15.25,2.15.75,2.99.5.85,1.16,1.5,1.99,1.97.82.47,1.74.7,2.74.7.93,0,1.75-.15,2.47-.45.72-.3,1.32-.67,1.8-1.09.2-.18.37-.35.52-.51v2.06h6.75l.03-3.77.57-.58ZM611.02,56.57c-.7,0-1.27-.21-1.72-.63-.44-.42-.67-1.04-.67-1.85,0-.51.06-1.01.18-1.5.02-.07.06-.12.08-.18.34-.23.68-.49,1.03-.69.77-.44,1.55-.83,2.36-1.17.4-.17.82-.33,1.23-.49v5.66c-.19.12-.39.26-.58.36-.64.33-1.27.5-1.92.5Z"/>
    <path class="st6" d="M461.56,39v21.66h5v-17.63c0-.39,0-.86.02-1.4s.03-1.08.05-1.61c.03-.53.08-.96.16-1.31l-.08-.23-5.14.52Z"/>
    <path class="st6" d="M500.4,67.28c.42-.41.64-.99.64-1.72s-.21-1.28-.64-1.68c-.43-.4-.95-.6-1.58-.6s-1.18.2-1.62.6c-.43.4-.65.96-.65,1.68s.22,1.31.65,1.72c.44.41.97.61,1.59.61s1.18-.2,1.6-.61Z"/>
    <path class="st6" d="M391.46,60.66h15.02c1.19,0,2.19-.06,3.01-.17.82-.12,1.5-.3,2.07-.53v-.23c-.07-.35-.13-.8-.15-1.36-.03-.55-.05-1.12-.06-1.69-.01-.58-.01-1.06-.01-1.45v-10.19h-.31l-4.68.52v8.2c0,.82.04,1.52.13,2.1.03.17.07.3.11.44h-7.09c0-.39-.01-.79-.01-1.08v-10.19h-.31l-4.68.52v8.29c0,.82.04,1.5.13,2.06.02.15.07.27.1.4h-9.65c-.82,0-1.8-.02-2.97-.05-1.16-.03-2.36-.1-3.57-.23-1.22-.13-2.33-.34-3.34-.63-.21-.08-.5-.17-.87-.29-.37-.12-.74-.25-1.12-.4-.38-.15-.67-.27-.88-.36h-.31l-1.02,4.14c.25.12.57.24.97.38.4.14.81.27,1.25.4.44.13.83.24,1.19.34,2.06.49,3.93.78,5.61.89,1.67.11,3.36.16,5.07.16h6.41Z"/>
    <path class="st6" d="M506.2,64.95c0-.72-.22-1.28-.65-1.68-.43-.4-.97-.6-1.59-.6s-1.16.2-1.6.6c-.45.4-.67.96-.67,1.68s.22,1.31.67,1.72c.45.41.98.62,1.6.62s1.18-.21,1.6-.62c.43-.41.64-.98.64-1.72Z"/>
    <path class="st6" d="M409.36,62.67c-.62,0-1.16.2-1.6.6-.44.4-.67.96-.67,1.68s.22,1.31.67,1.72c.44.41.98.62,1.6.62s1.18-.21,1.6-.62c.43-.41.64-.98.64-1.72s-.22-1.28-.65-1.68c-.44-.4-.97-.6-1.59-.6Z"/>
    <path class="st6" d="M361.42,57.39c.42-.7.64-1.54.64-2.51v-11.85c0-.66.02-1.29.05-1.87.03-.58.06-1.09.1-1.52.04-.43.07-.74.09-.93l-.11-.23-5.11.52v16.67c-.4.43-.87.85-1.4,1.27-.54.42-1.1.79-1.69,1.12-.59.33-1.16.6-1.73.82v-15.85c0-.39,0-.86.01-1.4s.03-1.08.06-1.61c.03-.53.08-.96.15-1.31l-.11-.23-5.11.52v17.83c-.32-.14-.64-.25-.94-.35-.3-.1-.69-.16-1.17-.17h-3.93c.4-.82.61-1.7.61-2.63,0-.82-.17-1.63-.51-2.42-.34-.8-.75-1.53-1.23-2.2-.48-.67-.96-1.23-1.43-1.68h-.34c-.57.13-1.28.23-2.14.28-.86.05-1.75.07-2.65.07h-.91c-.93,0-1.89-.04-2.9-.13-1-.09-1.91-.26-2.72-.51h-.29l-1.22,4c.64.27,1.32.48,2.03.61.71.14,1.42.22,2.13.26.71.04,1.35.06,1.91.06h1.11c.57,0,1.1-.02,1.59-.06.49-.04,1.02-.11,1.59-.2.09-.02.2-.04.3-.06.19.26.39.5.55.83.27.54.4,1.09.4,1.68,0,.72-.24,1.25-.72,1.59-.48.34-1.32.51-2.51.51h-9.45l-1.5,4.03v.32h22.2c1.19,0,2.21.15,3.06.45.85.3,1.59.68,2.2,1.12.61.45,1.17.89,1.66,1.34,1.64-.9,3.09-1.67,4.34-2.33,1.25-.66,2.3-1.29,3.15-1.9.85-.6,1.49-1.25,1.92-1.96Z"/>
    <path class="st6" d="M695.59,45.13l-4.68.53v9.79c-.19.23-.41.46-.67.68-.54.47-1.19.86-1.94,1.17-.28.12-.6.2-.91.28v-11.52h-.31l-4.68.53v10.11c-.22-.06-.42-.15-.65-.2-.67-.13-1.39-.19-2.19-.19h-.68v-9.28h-.31l-4.68.53v6.51c0,.76.03,1.4.1,1.93.02.13.05.21.07.32h-7.06c0-.13.02-.24.02-.38,0-1.64-.06-3.25-.17-4.85-.12-1.59-.26-3.05-.43-4.38h-.31l-4.82.52c.19,1.34.36,2.77.51,4.28.15,1.51.23,3.1.23,4.77,0,1.31-.06,2.47-.17,3.49-.11,1.02-.28,1.91-.5,2.66-.11.37-.23.71-.36,1.01-.18.08-.37.15-.6.23-.6.2-1.27.29-2.03.29-.49,0-.99-.05-1.48-.13-.49-.09-.98-.19-1.48-.31l-1.3,4.03v.29c.74.14,1.38.24,1.91.31.54.07,1.06.1,1.55.1,1.46,0,2.77-.22,3.93-.67,1.16-.45,2.16-1.16,2.98-2.13.82-.97,1.45-2.24,1.89-3.81.08-.29.12-.66.18-.98h12.98c1.21,0,2.25.04,3.11.13.86.09,1.63.24,2.31.47.68.22,1.37.53,2.07.92,1.86-.45,3.44-1.08,4.76-1.88,1.31-.81,2.33-1.83,3.05-3.07.72-1.23,1.08-2.7,1.08-4.39v-7.71h-.31Z"/>
    <path class="st6" d="M649.56,60.16c1.06-.33,1.91-.78,2.54-1.36.64-.57,1.08-1.23,1.35-1.97.26-.74.4-1.52.4-2.33,0-.99-.18-1.95-.54-2.86-.36-.92-.79-1.74-1.28-2.48-.49-.74-.98-1.33-1.45-1.78h-.34c-.57.13-1.29.23-2.16.28-.87.05-1.75.07-2.64.07h-15.34l7.28-6.57-1.96-3.09h-.28l-11.52,10.65c.12,1.25.49,2.11,1.12,2.61.63.49,1.39.74,2.28.74h17.54c.59,0,1.12-.02,1.6-.06.48-.04,1.01-.11,1.57-.2.12-.02.26-.05.39-.08.17.26.33.55.48.89.25.6.38,1.2.38,1.78,0,.66-.25,1.14-.74,1.45-.49.3-1.4.45-2.73.45h-23.39v3.77l-.57.58h23.96c1.63,0,2.97-.17,4.03-.5Z"/>
    <path class="st6" d="M507.79,81.76c-.72,0-1.29.16-1.7.46-.41.31-.62.74-.62,1.3s.21.96.62,1.27c.41.31.98.46,1.7.46.68,0,1.23-.15,1.65-.46.42-.31.63-.73.63-1.27s-.21-.99-.63-1.3c-.42-.31-.97-.46-1.65-.46Z"/>
    <rect class="st6" x="505.91" y="87.31" width="3.73" height="16.01"/>
    <path class="st6" d="M669.85,86.92c-2.2,0-4.3.76-6.3,2.27l-1.09-1.88h-2.24v16.01h3.73v-12.32c1.45-.97,2.97-1.46,4.56-1.46,1.96,0,2.93.88,2.93,2.65v11.12h3.73v-11.63c0-1.45-.48-2.61-1.43-3.47-.95-.86-2.25-1.3-3.89-1.3Z"/>
    <path class="st6" d="M497.25,94.08l-2.43-.39c-1.54-.3-2.32-.93-2.32-1.91,0-1.49,1.31-2.24,3.95-2.24.99,0,2.18.12,3.59.36l.43-.21.29-2.36s-.21-.06-.63-.12c-.42-.06-.99-.12-1.7-.19-.71-.07-1.37-.1-1.97-.1-2.53,0-4.45.45-5.74,1.33-1.29.89-1.93,2.06-1.93,3.53,0,1.27.4,2.25,1.19,2.93.79.69,1.98,1.16,3.55,1.42l2.14.39c1.13.2,1.93.46,2.37.78.45.32.67.77.67,1.34,0,1.63-1.39,2.45-4.17,2.45-1.62,0-3.18-.14-4.67-.42l-.43.24.29,2.38.58.09c.39.08,1,.15,1.85.21.84.06,1.71.09,2.6.09,5.12,0,7.68-1.68,7.68-5.04,0-2.44-1.73-3.97-5.18-4.56Z"/>
    <path class="st6" d="M523.69,86.92c-2.2,0-4.3.76-6.3,2.27l-1.09-1.88h-2.25v16.01h3.73v-12.32c1.45-.97,2.97-1.46,4.56-1.46,1.96,0,2.93.88,2.93,2.65v11.12h3.73v-11.63c0-1.45-.48-2.61-1.43-3.47-.96-.86-2.25-1.3-3.89-1.3Z"/>
    <path class="st6" d="M687.3,96.56c-.24.64-.47,1.45-.69,2.45h-.29l-.11-.45c-.07-.28-.17-.62-.29-1.03-.12-.41-.23-.73-.32-.97l-3.98-9.24h-3.73l6.88,16.01-.65,1.64c-.34.86-.67,1.44-.99,1.74-.32.31-.79.46-1.39.46-.39,0-.77-.05-1.16-.15l-.43.3-.36,2.12.29.09c.19.04.51.1.94.16.43.07.88.11,1.34.11,1.5,0,2.61-.34,3.33-1.02.72-.68,1.41-1.86,2.06-3.55l6.84-17.92h-3.77l-3.51,9.24Z"/>
    <path class="st6" d="M545.2,88.63h-.04c-1.3-1.13-3.04-1.7-5.21-1.7h-.54c-2.15,0-3.86.53-5.13,1.58-1.26,1.05-1.9,2.38-1.9,3.97,0,1.97.78,3.42,2.35,4.36-1.09,1.07-1.63,2.16-1.63,3.27s.51,1.91,1.52,2.45v.12c-.75.37-1.34.86-1.77,1.46-.44.6-.65,1.18-.65,1.76v.12c0,1.13.63,2.06,1.89,2.77,1.25.72,3.05,1.07,5.4,1.07h1.34c2.65,0,4.62-.45,5.9-1.33,1.28-.88,1.92-2,1.92-3.36v-.3c0-1.17-.54-2.16-1.63-2.97-1.09-.81-2.62-1.21-4.6-1.21h-4.27c-.58,0-1.03-.12-1.36-.37-.33-.25-.49-.58-.49-1,0-.5.23-1.04.69-1.64.7.16,1.51.24,2.43.24h.54c1.23,0,2.35-.16,3.35-.48,1-.32,1.86-.9,2.59-1.74.72-.85,1.09-1.93,1.09-3.24,0-.69-.15-1.4-.47-2.12.51-.28,1.1-.42,1.77-.42.1,0,.2,0,.33.01.12,0,.23.02.33.02l.11.03.36-.27v-2.42h-.61c-1.43,0-2.62.44-3.59,1.31ZM537.12,103.3c.22.02.51.03.87.03h3.91c.99,0,1.74.17,2.25.52.51.35.76.81.76,1.39v.09c0,1.49-1.44,2.24-4.31,2.24h-.91c-1.21,0-2.13-.2-2.79-.6-.65-.4-.98-.94-.98-1.64s.4-1.37,1.19-2.03ZM543.24,92.62c0,.92-.3,1.64-.89,2.19-.59.55-1.48.82-2.66.82s-2.08-.27-2.68-.82c-.6-.55-.9-1.28-.9-2.19v-.54c0-.85.3-1.54.92-2.06.62-.52,1.5-.78,2.66-.78s2.01.26,2.63.78c.62.52.92,1.2.92,2.06v.54Z"/>
    <path class="st6" d="M612.78,86.92c-2.06,0-4.01.77-5.87,2.3-.84-1.53-2.33-2.3-4.45-2.3-1.93,0-3.85.75-5.76,2.24l-1.05-1.85h-2.24v16.01h3.73v-12.38c1.28-.93,2.62-1.4,4.02-1.4,1.69,0,2.53.79,2.53,2.36v11.42h3.73v-10.86c0-.63-.02-1.12-.07-1.46,1.33-.97,2.69-1.46,4.09-1.46.75,0,1.36.2,1.83.61.47.41.71.99.71,1.74v11.42h3.73v-11.96c0-1.39-.44-2.48-1.32-3.27-.88-.79-2.08-1.18-3.6-1.18Z"/>
    <path class="st6" d="M630.99,86.92c-.92,0-1.8.13-2.64.4-.84.27-1.44.51-1.79.72-.35.21-.8.5-1.36.88l-.94-1.61h-2.24v22.19h3.73v-7.39h.07c1.47,1.05,3.14,1.58,4.99,1.58s3.5-.65,4.71-1.96c1.21-1.3,1.81-3.23,1.81-5.8v-1.13c0-5.25-2.11-7.87-6.34-7.87ZM633.6,95.78c0,3.54-1.36,5.31-4.09,5.31-.56,0-1.14-.1-1.76-.31-.62-.21-1.07-.4-1.37-.58-.3-.18-.51-.32-.63-.42v-9.15c1.3-.72,2.68-1.07,4.13-1.07,1.28,0,2.22.41,2.83,1.24.6.82.9,2.22.9,4.19v.81Z"/>
    <path class="st6" d="M483.46,81.76c-.73,0-1.29.16-1.71.46-.41.31-.62.74-.62,1.3s.21.96.62,1.27c.41.31.98.46,1.71.46.67,0,1.22-.15,1.65-.46.42-.31.63-.73.63-1.27s-.21-.99-.63-1.3c-.42-.31-.97-.46-1.65-.46Z"/>
    <path class="st6" d="M582.25,86.92h-.4c-2.32,0-4.14.68-5.47,2.04-1.33,1.36-1.99,3.27-1.99,5.71v1.28c0,2.43.66,4.32,1.99,5.68,1.33,1.36,3.15,2.04,5.47,2.04h.4c2.34,0,4.18-.68,5.5-2.04,1.33-1.36,1.99-3.25,1.99-5.68v-1.28c0-2.44-.67-4.35-1.99-5.71-1.33-1.36-3.16-2.04-5.5-2.04ZM586.01,96.74c0,1.39-.33,2.46-1,3.22-.67.76-1.65,1.13-2.95,1.13-2.61,0-3.91-1.45-3.91-4.35v-2.83c0-2.9,1.3-4.35,3.91-4.35,1.31,0,2.29.38,2.95,1.15.67.76,1,1.83,1,3.2v2.83Z"/>
    <path class="st6" d="M571.35,100.7l-.47.09c-.29.06-.7.12-1.23.19-.53.07-1.03.1-1.48.1-2.01,0-3.47-.58-4.4-1.74-.93-1.16-1.39-3.04-1.39-5.62v-.66c0-2.52.44-4.46,1.32-5.8.88-1.34,2.33-2.01,4.36-2.01.92,0,1.81.09,2.68.27l.4-.18.33-2.3-.44-.12c-.31-.06-.77-.12-1.38-.2-.6-.07-1.22-.1-1.85-.1-2.9,0-5.16.83-6.79,2.51-1.63,1.67-2.44,4.29-2.44,7.87v1.07c0,1.83.23,3.39.69,4.68.46,1.29,1.12,2.29,1.99,2.98.87.7,1.84,1.19,2.91,1.49,1.08.3,2.33.45,3.75.45,1.79,0,3.16-.2,4.13-.6-.1-.87-.21-1.62-.33-2.24l-.36-.15Z"/>
    <path class="st6" d="M656.45,101.09c-.56-.1-.96-.29-1.21-.57-.25-.28-.38-.74-.38-1.37v-6.05c0-2.13-.62-3.69-1.84-4.68-1.23-.99-3.3-1.49-6.19-1.49-1.79,0-3.4.16-4.86.48-.36,1.27-.54,2.06-.54,2.36l.4.27.62-.12c.43-.08,1.03-.16,1.78-.24.75-.08,1.45-.12,2.1-.12,1.79,0,3.03.28,3.75.83.71.56,1.07,1.43,1.07,2.63v.2l-5.43.57c-3.74.38-5.61,2.02-5.61,4.92v.15c0,1.35.51,2.49,1.54,3.43,1.02.94,2.38,1.4,4.07,1.4,2.44,0,4.29-.85,5.54-2.53h.11c.43,1.69,1.61,2.53,3.51,2.53.87,0,1.52-.18,1.96-.54l.47-1.67-.18-.3-.65-.09ZM651.13,98.94c-1.3,1.43-2.74,2.15-4.31,2.15-.92,0-1.65-.23-2.19-.69-.54-.46-.82-1.07-.82-1.85v-.15c0-1.51,1.06-2.38,3.19-2.62l4.13-.48v3.64Z"/>
    <rect class="st6" x="329.18" y="87.31" width="3.73" height="16.01"/>
    <path class="st6" d="M241.07,89.16h-.03l-1.02-1.85h-2.25v16.01h3.73v-11.78c.72-1.11,1.91-1.67,3.55-1.67.39,0,.74.03,1.05.09l.51-.27.29-2.65-1.05-.12c-2.08,0-3.67.75-4.78,2.24Z"/>
    <path class="st6" d="M366.08,86.92c-2.2,0-4.3.76-6.3,2.27l-1.09-1.88h-2.25v16.01h3.73v-12.32c1.45-.97,2.97-1.46,4.56-1.46,1.96,0,2.93.88,2.93,2.65v11.12h3.73v-11.63c0-1.45-.47-2.61-1.43-3.47-.95-.86-2.25-1.3-3.89-1.3Z"/>
    <path class="st6" d="M282.93,82.99h-7.17v20.34h8.29c2.39,0,4.23-.61,5.51-1.82,1.28-1.21,1.92-2.97,1.92-5.28v-5.13c0-2.72-.75-4.76-2.26-6.1-1.51-1.34-3.6-2.01-6.28-2.01ZM287.75,95.48c0,1.89-.37,3.23-1.12,4.03-.75.79-1.86,1.19-3.33,1.19h-3.8v-15.09h2.86c1.76,0,3.1.42,4.02,1.27.92.84,1.38,2.29,1.38,4.34v4.26Z"/>
    <path class="st6" d="M387.09,82.99l-6.63,20.34h3.87l1.49-4.77h7.57l1.48,4.77h3.87l-6.63-20.34h-5.03ZM386.65,95.93l2.39-7.63c.14-.46.29-1.07.43-1.82h.25l.44,1.82,2.39,7.63h-5.9Z"/>
    <path class="st6" d="M259.39,86.92c-2.19,0-4.3.76-6.3,2.27l-1.09-1.88h-2.25v16.01h3.73v-12.32c1.45-.97,2.97-1.46,4.56-1.46,1.96,0,2.93.88,2.93,2.65v11.12h3.73v-11.63c0-1.45-.48-2.61-1.43-3.47-.95-.86-2.25-1.3-3.89-1.3Z"/>
    <path class="st6" d="M331.06,81.76c-.72,0-1.29.16-1.7.46-.41.31-.62.74-.62,1.3s.2.96.62,1.27c.41.31.98.46,1.7.46.68,0,1.22-.15,1.65-.46.42-.31.63-.73.63-1.27s-.21-.99-.63-1.3c-.42-.31-.97-.46-1.65-.46Z"/>
    <path class="st6" d="M320.52,94.08l-2.43-.39c-1.54-.3-2.32-.93-2.32-1.91,0-1.49,1.31-2.24,3.95-2.24.99,0,2.18.12,3.59.36l.43-.21.29-2.36s-.21-.06-.63-.12c-.42-.06-.99-.12-1.7-.19-.71-.07-1.37-.1-1.97-.1-2.54,0-4.45.45-5.74,1.33-1.29.89-1.94,2.06-1.94,3.53,0,1.27.4,2.25,1.19,2.93.8.69,1.98,1.16,3.55,1.42l2.13.39c1.14.2,1.93.46,2.37.78.45.32.67.77.67,1.34,0,1.63-1.39,2.45-4.17,2.45-1.62,0-3.18-.14-4.67-.42l-.43.24.29,2.38.58.09c.38.08,1,.15,1.84.21.85.06,1.72.09,2.61.09,5.12,0,7.68-1.68,7.68-5.04,0-2.44-1.73-3.97-5.18-4.56Z"/>
    <rect class="st6" x="481.57" y="87.31" width="3.73" height="16.01"/>
    <path class="st6" d="M349.21,88.63h-.04c-1.3-1.13-3.04-1.7-5.21-1.7h-.54c-2.15,0-3.86.53-5.13,1.58-1.27,1.05-1.9,2.38-1.9,3.97,0,1.97.78,3.42,2.35,4.36-1.09,1.07-1.63,2.16-1.63,3.27s.51,1.91,1.52,2.45v.12c-.75.37-1.34.86-1.77,1.46-.44.6-.65,1.18-.65,1.76v.12c0,1.13.63,2.06,1.88,2.77,1.26.72,3.06,1.07,5.4,1.07h1.34c2.65,0,4.62-.45,5.9-1.33,1.28-.88,1.92-2,1.92-3.36v-.3c0-1.17-.55-2.16-1.63-2.97-1.09-.81-2.62-1.21-4.6-1.21h-4.27c-.58,0-1.03-.12-1.36-.37-.33-.25-.49-.58-.49-1,0-.5.23-1.04.69-1.64.7.16,1.51.24,2.43.24h.54c1.23,0,2.35-.16,3.35-.48,1.01-.32,1.87-.9,2.59-1.74.72-.85,1.09-1.93,1.09-3.24,0-.69-.16-1.4-.47-2.12.51-.28,1.1-.42,1.77-.42.1,0,.21,0,.33.01.12,0,.23.02.33.02l.11.03.36-.27v-2.42h-.62c-1.42,0-2.62.44-3.59,1.31ZM341.13,103.3c.22.02.51.03.87.03h3.91c.99,0,1.74.17,2.25.52.51.35.76.81.76,1.39v.09c0,1.49-1.44,2.24-4.31,2.24h-.9c-1.21,0-2.14-.2-2.79-.6-.65-.4-.98-.94-.98-1.64s.4-1.37,1.2-2.03ZM347.25,92.62c0,.92-.3,1.64-.89,2.19-.59.55-1.48.82-2.66.82s-2.08-.27-2.68-.82c-.6-.55-.9-1.28-.9-2.19v-.54c0-.85.31-1.54.92-2.06.62-.52,1.5-.78,2.66-.78s2.01.26,2.62.78c.62.52.92,1.2.92,2.06v.54Z"/>
    <path class="st6" d="M302.6,86.92h-.18c-2.29,0-4.14.69-5.56,2.09-1.41,1.39-2.12,3.29-2.12,5.7v1.07c0,5.27,2.69,7.9,8.08,7.9,2.12,0,4.08-.37,5.87-1.1l-.33-2.09-.4-.18s-.14.04-.34.1c-.21.07-.45.14-.73.21-.28.07-.59.14-.94.21-.35.07-.74.13-1.16.18-.42.05-.84.07-1.25.07-1.79,0-3.07-.36-3.86-1.09-.78-.72-1.18-1.92-1.18-3.6h10.54l.29-2.59v-.51c0-2.08-.59-3.67-1.77-4.76-1.18-1.08-2.84-1.63-4.96-1.63ZM305.78,94.08h-7.28v-.6c0-1.29.37-2.27,1.1-2.94.74-.67,1.65-1,2.73-1h.18c2.17,0,3.26,1.15,3.26,3.46v1.07Z"/>
    <path class="st6" d="M167.55,94.86c-.31.68-.6,1.42-.87,2.24h-.15l-.87-2.24-5.32-11.87h-4.6v20.34h3.73v-11.24c0-.71-.05-1.93-.14-3.64l.29-.03.8,2.27,5.36,12.02h1.63l5.36-12.02c.15-.32.41-1.07.79-2.27l.26.03-.11,3.64v11.24h3.73v-20.34h-4.6l-5.29,11.87Z"/>
    <path class="st6" d="M189.18,86.92h-.4c-2.32,0-4.14.68-5.47,2.04-1.33,1.36-1.99,3.27-1.99,5.71v1.28c0,2.43.67,4.32,1.99,5.68,1.33,1.36,3.15,2.04,5.47,2.04h.4c2.34,0,4.18-.68,5.5-2.04,1.33-1.36,1.99-3.25,1.99-5.68v-1.28c0-2.44-.66-4.35-1.99-5.71-1.33-1.36-3.17-2.04-5.5-2.04ZM192.94,96.74c0,1.39-.33,2.46-.99,3.22-.66.76-1.65,1.13-2.95,1.13-2.61,0-3.91-1.45-3.91-4.35v-2.83c0-2.9,1.3-4.35,3.91-4.35,1.3,0,2.29.38,2.95,1.15.66.76.99,1.83.99,3.2v2.83Z"/>
    <path class="st6" d="M473.79,83.62h-2.79l-.94,3.7h-2.61v2.63h2.61v8.73c0,1.73.43,3,1.3,3.8.87.81,2.3,1.21,4.28,1.21,1.11,0,2.05-.13,2.82-.39v-2.21l-.36-.18-.22.03c-.17.04-.42.07-.74.1-.32.03-.65.04-.96.04-.82,0-1.42-.18-1.81-.55-.39-.37-.58-1-.58-1.89v-8.7h4.67v-2.63h-4.67v-3.7Z"/>
    <path class="st6" d="M459.33,89.16h-.03l-1.01-1.85h-2.25v16.01h3.73v-11.78c.72-1.11,1.91-1.67,3.55-1.67.38,0,.74.03,1.05.09l.51-.27.29-2.65-1.05-.12c-2.08,0-3.67.75-4.78,2.24Z"/>
    <path class="st6" d="M216.48,101.09c-.58-.08-.98-.27-1.21-.58-.23-.31-.35-.76-.35-1.36v-17.39h-3.73v6.33h-.11c-1.18-.78-2.61-1.17-4.27-1.17-2.24,0-4.01.66-5.3,1.97-1.29,1.31-1.94,3.28-1.94,5.9v1.28c0,2.6.58,4.52,1.74,5.75,1.16,1.23,2.7,1.85,4.64,1.85,2.25,0,4.01-.8,5.29-2.39h.22c.46,1.59,1.62,2.39,3.47,2.39.87,0,1.52-.18,1.96-.54l.47-1.67-.18-.3-.69-.09ZM211.19,98.94c-1.4,1.43-2.8,2.15-4.2,2.15-1.28,0-2.21-.42-2.79-1.25-.58-.84-.87-2.17-.87-4v-.87c0-3.62,1.39-5.43,4.16-5.43,1.02,0,2.25.34,3.7,1.01v8.38Z"/>
    <path class="st6" d="M417.54,101.09c-.58-.08-.98-.27-1.21-.58-.23-.31-.34-.76-.34-1.36v-17.39h-3.73v6.33h-.11c-1.18-.78-2.6-1.17-4.27-1.17-2.25,0-4.02.66-5.31,1.97-1.29,1.31-1.94,3.28-1.94,5.9v1.28c0,2.6.58,4.52,1.74,5.75,1.16,1.23,2.7,1.85,4.64,1.85,2.24,0,4.01-.8,5.29-2.39h.22c.46,1.59,1.62,2.39,3.48,2.39.87,0,1.52-.18,1.95-.54l.47-1.67-.18-.3-.69-.09ZM412.26,98.94c-1.4,1.43-2.8,2.15-4.2,2.15-1.28,0-2.21-.42-2.79-1.25-.58-.84-.87-2.17-.87-4v-.87c0-3.62,1.39-5.43,4.17-5.43,1.02,0,2.25.34,3.7,1.01v8.38Z"/>
    <polygon class="st6" points="428.88 96.56 427.9 100.26 427.58 100.26 426.63 96.56 423.44 87.31 419.75 87.31 425.29 103.33 430.18 103.33 435.76 87.31 432.03 87.31 428.88 96.56"/>
    <path class="st6" d="M227.38,86.92h-.18c-2.29,0-4.15.69-5.56,2.09s-2.12,3.29-2.12,5.7v1.07c0,5.27,2.69,7.9,8.08,7.9,2.12,0,4.08-.37,5.86-1.1l-.32-2.09-.4-.18s-.14.04-.34.1c-.21.07-.45.14-.72.21-.28.07-.59.14-.94.21-.35.07-.74.13-1.16.18-.42.05-.84.07-1.25.07-1.79,0-3.07-.36-3.86-1.09-.79-.72-1.18-1.92-1.18-3.6h10.54l.29-2.59v-.51c0-2.08-.59-3.67-1.78-4.76-1.18-1.08-2.84-1.63-4.96-1.63ZM230.57,94.08h-7.28v-.6c0-1.29.37-2.27,1.11-2.94.73-.67,1.65-1,2.73-1h.18c2.17,0,3.26,1.15,3.26,3.46v1.07Z"/>
    <path class="st6" d="M445.64,86.92h-.18c-2.29,0-4.15.69-5.56,2.09-1.41,1.39-2.12,3.29-2.12,5.7v1.07c0,5.27,2.69,7.9,8.07,7.9,2.13,0,4.08-.37,5.87-1.1l-.32-2.09-.4-.18s-.14.04-.35.1c-.2.07-.45.14-.72.21-.28.07-.59.14-.94.21-.35.07-.73.13-1.16.18-.42.05-.84.07-1.25.07-1.79,0-3.07-.36-3.86-1.09-.79-.72-1.18-1.92-1.18-3.6h10.54l.29-2.59v-.51c0-2.08-.59-3.67-1.77-4.76-1.18-1.08-2.83-1.63-4.96-1.63ZM448.83,94.08h-7.28v-.6c0-1.29.37-2.27,1.1-2.94.74-.67,1.65-1,2.73-1h.18c2.17,0,3.26,1.15,3.26,3.46v1.07Z"/>
  </g>
  <path class="st4" d="M76.29,37.01s.99-.95,1.16-2.15c0,0-1.84-.46-3.44.2,0,0-.69.4-1.15-.22l.68,1.37s1.11,2.39,2.75.8"/>
  <path class="st4" d="M54.41,28.46c.69-.57,4.09-3.83,4.09-3.83l8.61-8.92-11.44-9.72h-21.36l2.61,2.02s6.95,5.36,10.65,9.28c3.7,3.92,6.84,11.16,6.84,11.16"/>
  <path class="st4" d="M63.15,55.38s5.33-4.07,7.74-6.47c2.42-2.4,14.05-13.57,15.48-14.83,0,0-1.27-1.63-4.01-4.35-2.73-2.72-8.21-7.62-8.89-8.07,0,0-11.67,18.78-10.32,33.73M70.73,31.2c.04-.56.43-.02.43-.02l1.05,2.09c.82-.55,2.1-.84,3.37-.82,1.27.02,1.82.92,1.82.92,0,0,.77,1.37,1.17,2.05.41.68.38,1.39.38,1.39-.34,1.23-2.04,4.08-4.3,2.35-2.26-1.73-3.92-7.96-3.92-7.96"/>
  <path class="st3" d="M15.87,75.14c3.32,10.62,5.43,14.28,8.45,17.67,3.02,3.4,7.02,2.33,8.97.7,1.94-1.63,4.89-3.97,7-13.67,2.25-10.34.19-18.78-.07-20.17-.26-1.39-1.44-2.26-2.38-2.98-.94-.72-7.13-4.4-7.13-4.4,0,0-8.27-4.44-10.22-5.51-1.1-.6-3.5-1.68-5.36-2.49l.11,28.37.63,2.48ZM20.4,68.24c-.24-.93.99-1.54.99-1.54,2.42-1.49,6.58-.07,7.66.32,1.07.38,2.42.81,2.42.81-.77-.76-3.47-4.76-3.47-4.76,0,0-2.65-4.23-1.24-5.11,1.42-.88,3.25-.73,3.25-.73l.91-.03s.55.83.93,1.72c.38.89-.43,1.24-.83,1.31-.4.07-1.3.23-1.3.23-1.4.68-.93,1.65.46,3.64,1.39,1.98,4.29,4.83,5.11,6.26.89,1.58-.26,1.51-.26,1.51,0,0,.05.21-2.72-1.02-3.94-1.77-5.59-1.48-5.59-1.48.48.55-.08.69-.08.69,0,0-.57-.03-1.3.28-.73.32-1.66,1.09-2.97.6-1.3-.48-1.96-2.67-1.96-2.67"/>
  <path class="st0" d="M73.25,80.53c-.12-.12-.24-.24-.33-.34-.14-.15-.29-.29-.43-.43-6.75-6.95-10.19-15.16-10.19-15.16-8.42,3.29-17.55-4.39-18.05-4.76-.5-.37-2.43-1.72-2.43-1.72,2.3,3.68,3.19,6.14,3.19,6.14,1.13,5.06.86,11.68.42,16.35h0c-.01.2-.03.39-.05.6-.1,1.42-.26,2.75-.47,3.99-.6,3.55-1.57,6.34-2.65,8.5.52,1.51,1.08,2.73,1.59,3.7.01,0,.03,0,.03,0,.05.12.11.25.19.4.23.42.46.77.67,1.08.29.42.64.88,1.06,1.35.04.04.07.07.07.07v.02c2.67,3.01,7.78,6.55,14.56,3.73,4.63-1.92,8.14-4.95,10.52-7.56.8-.93,3.27-4,6.14-9.02,0-.03,0-.05,0-.05.13-.2.26-.42.39-.63.37-.65.74-1.34,1.11-2.05-.34-.21-.68-.42-.99-.63-.03-.02-.05-.04-.08-.05-.32-.22-.64-.44-.94-.66-.03-.02-.05-.04-.08-.06-.3-.22-.58-.43-.85-.65-.01,0-.02-.02-.03-.02-.54-.42-1.01-.82-1.41-1.19t0,0c-.09-.08-.18-.16-.26-.24-.02-.02-.04-.03-.06-.05-.07-.06-.13-.12-.19-.18-.02-.02-.04-.03-.05-.05-.06-.06-.12-.11-.17-.17-.02-.02-.03-.03-.05-.05-.06-.05-.11-.11-.16-.16,0,0-.01-.01-.02-.02M50.09,83.89c1-.47,2.17-.77,3.75-1.17,1.13-.29,2.88-.85,3.4-.5.68.46.69,2.05.89,2.86.26,1.06.69,1.88.62,2.77-2.33.53-4.65,1.25-6.98,1.67-1.15-1.88-1.15-3.75-1.69-5.63M71,87.78c-2.47.64-4.95,1.35-7.42,2.6.49,1.71,1.83,3.42,1.87,5.13-2.38,1.09-4.77,1.46-7.15,2.34-1.71-2.02-2.16-4.04-2.86-6.05,2.48-.93,4.95-1.47,7.42-2.26-.21-1.74-1.37-3.47-1.78-5.21,2.56-1.34,5.13-2.13,7.69-2.68,1.09,2.05,1.8,4.09,2.22,6.13"/>
  <path class="st1" d="M102.6,65.03c-3.58,3.6-7.57.81-7.57.81l-2.64-1.57c-.32.53-2.19,6.37-3.15,10.4-.5,2.08-1.42,4.7-2.52,7.43.35.07.65.11.92.15.41.03.82.06,1.23.07,10.48.27,18.99-6.94,22.29-12.52,9.54-16.15.85-31.8.85-31.8,0,0-1.15-1.93-3.1-2.71-1.96-.78-3.93-1.51-8.27-.68-4.9.93-13.87,9.18-13.87,9.18l-10.48,10.17c-7.78,7.59-11.64,9.53-11.64,9.53,1.74,6.33,6.32,10.63,9.77,13.09.44.31.85.59,1.24.84.04.03.08.05.13.07.18.11.35.21.52.31.19.12.38.22.56.33.04.02.08.05.12.07,1.39.79,2.65,1.42,3.8,1.93,1.43-3.35,2.57-6.6,3.12-8.26.95-2.94,3.85-13.84,3.85-13.84l.44-.52,1.17.82c4,3.6,7.55,2.03,7.55,2.03,4.73-2.71,5.11-7.26,5.11-7.26-2.52-1.51-4.37-1.34-4.37-1.34-1.01,0-1.34-.52-1.34-.52l-3.18-4.89-.12-.67,1.45-.08c7.68.49,10.73,6.87,11.88,9.38,1.16,2.5-.16,6.43-3.74,10.03"/>
  <path class="st1" d="M23.49,40.76c2.1,1.13,7.93,4.46,10.39,6.2,2.47,1.74,9.39,6.83,12.55,8.89,3.16,2.07,6.14,2.75,8.24,2.81,2.11.06,4.78-1.05,4.78-1.05-3.34-15.29,3.28-27.45,3.28-27.45,0,0-7.64,7.12-9.18,8.59-1.54,1.47-7.68,7.99-7.68,7.99,0,0-.51,1.17-1.14,1.98-.63.81-.99.09-.99.09l-2.89-6.23c.24-1.8,6.98-11.2,6.98-11.2,2.77-3.83,3.1-5.23,3.1-5.23l-1.78-1.71-6.47-5.54-6.62-5.39-9.36-7.53h-11.6s0,31.84,0,31.84c3.82.82,7.07,2.22,8.36,2.92M21.74,19.69s-.51-1.46,1.27-4.29c0,0,.36-.49.48-.93.02-.07.04-.15.04-.22,0,0-1.45-.03-1.86.68-.41.7.12,1.88.12,1.88,0,0,0,.29-.03.5,0,0-.3.59-.83-.29-.53-.88-1.8-3.44-.47-4.41,1.33-.97,4.69-.32,5.08.18l1.07,1.59s.22.31-.35.71c0,0-3.32,3.29-2.84,6.17,0,0,.15.42,1.92,1.44,0,0,13.56,7.38,14.74,10.79,0,0-4.22-2.79-6.32-4.29-2.1-1.5-8.33-4.82-8.33-4.82,0,0-2.75-1.38-3.7-4.67"/>
  <path class="st2" d="M116.39,5.98h-53.11c3.84,3.29,6.98,6.09,6.98,6.09l4.33-4.53c.77-.85,1.21.54,1.21.54l1.99,5.64c.13.74-.03,1.02-.03,1.02-.85,1.06-1.59,2.46-1.59,2.46,0,0,1.98,1.72,5.58,6.2,4.01,4.98,5.97,9.51,5.97,9.51,7.92-6.88,16.02-6.44,20.79-2.74,3.1,2.4,5.79,5.72,7.89,9.91V5.98ZM98.57,23.5c-3.14.92-6.87-1.38-11.88-12.88l.57.35s4.16,6.78,5.51,8.18c1.34,1.4,4.7,2.69,5.48.02,0,0-.1-.63-.64-1.4-.54-.76-.58-1.1-.3-1.4.27-.3,2.33,1.49,2.62,2.07l.3.59s1.49,3.56-1.65,4.47"/>
  <path class="st5" d="M44.18,101.43h0s-.05-.09-.07-.13c-.42-.7-.64-1.14-.64-1.14-.02-.05-.25-.47-.26-.52-.69-1.43-1.27-3.13-1.55-4.81-.74,1.24-1.78,2.7-2.67,3.62-.06.06-.12.12-.18.18-.04.03-.07.06-.1.1-3.16,3.02-7.3,4.04-11.92.84-6.89-4.78-10.33-16.77-11.63-22.55v30.11s33.65,0,33.65,0c-2.2-2.02-3.77-4.3-4.61-5.69"/>
  <path class="st4" d="M116.41,74.48c-2.44,4.37-5,6.73-5,6.73-10.4,9.87-21.43,8.11-26.62,6.44-.08-.03-.17-.06-.26-.09-.04-.01-.07-.02-.11-.04-.16.36-.34.74-.52,1.14-.15.36-.28.63-.35.79,0,0-.01,0-.02,0-1.46,3.03-3.5,6.83-5.91,10.14-2.09,2.94-4.53,5.53-7.28,7.53h13.75s0,0,0,0h8.77s0,0,0,0h23.56s-.01-32.63-.01-32.63ZM102.15,102.81c-2.38,1.09-4.77,1.46-7.15,2.34-1.71-2.02-2.16-4.04-2.86-6.05,2.48-.93,4.95-1.47,7.42-2.26-.21-1.74-1.38-3.47-1.78-5.21,2.57-1.34,5.13-2.13,7.69-2.68,1.09,2.05,1.81,4.09,2.23,6.13-2.47.64-4.95,1.34-7.42,2.59.49,1.71,1.83,3.42,1.87,5.13"/>
  <path class="st4" d="M112.05,101.44h-8.82v20.25h-4.7v-9.33h-4.54v9.33h-4.7v-9.33h-21.5v9.33h-4.7v-9.33h-4.45v9.33h-4.62v-9.33h-12.93v9.33h-4.12v-9.33h-4.37v9.33h-4.36v-9.33h-13.11v23.39h13.2v-4.09h-9v-5.71h88.16v-20.02h4.54v25.73h-62.18v4.09h66.55v-34.31h-4.37ZM19.35,116.54h4.54v5.15h-4.54v-5.15ZM45.22,116.54h4.62v5.15h-4.62v-5.15ZM71.92,116.54h13.01v5.15h-13.01v-5.15Z"/>
  <rect class="st6" x="41.01" y="131.66" width="4.35" height="4.09"/>
  <rect class="st6" x="32.46" y="131.66" width="4.62" height="4.09"/>
</svg>