<?xml version="1.0" encoding="iso-8859-1"?>
<!-- Generator: Adobe Illustrator 29.7.1, SVG Export Plug-In . SVG Version: 9.03 Build 0)  -->
<svg version="1.1" id="PRINT" xmlns="http://www.w3.org/2000/svg" xmlns:xlink="http://www.w3.org/1999/xlink" x="0px" y="0px"
	 viewBox="0 0 78.231 93.803" style="enable-background:new 0 0 78.231 93.803;" xml:space="preserve">
<g>
	<path style="fill-rule:evenodd;clip-rule:evenodd;fill:#07917B;" d="M44.072,19.683c0,0,0.409-0.39,0.476-0.887
		c0,0-0.759-0.19-1.416,0.084c0,0-0.284,0.165-0.475-0.091l0.282,0.563C42.939,19.352,43.398,20.339,44.072,19.683"/>
	<path style="fill-rule:evenodd;clip-rule:evenodd;fill:#07917B;" d="M35.048,16.157c0.284-0.234,1.686-1.58,1.686-1.58l3.55-3.678
		L35.567,6.89H26.76l1.077,0.834c0,0,2.866,2.211,4.393,3.829C33.755,13.169,35.048,16.157,35.048,16.157"/>
	<path style="fill-rule:evenodd;clip-rule:evenodd;fill:#07917B;" d="M38.653,27.257c0,0,2.196-1.679,3.191-2.67
		c0.997-0.991,5.793-5.594,6.384-6.117c0,0-0.524-0.671-1.652-1.794c-1.126-1.121-3.387-3.141-3.668-3.33
		C42.909,13.347,38.096,21.091,38.653,27.257 M41.781,17.288c0.017-0.231,0.176-0.008,0.176-0.008l0.434,0.863
		c0.34-0.225,0.865-0.349,1.39-0.341c0.525,0.009,0.75,0.381,0.75,0.381s0.317,0.565,0.482,0.845
		c0.167,0.281,0.158,0.572,0.158,0.572c-0.141,0.506-0.842,1.683-1.773,0.969C42.466,19.858,41.781,17.288,41.781,17.288"/>
	<path style="fill-rule:evenodd;clip-rule:evenodd;fill:#FFCF32;" d="M19.158,35.407c1.371,4.38,2.238,5.887,3.483,7.287
		c1.246,1.401,2.897,0.961,3.7,0.288c0.802-0.673,2.016-1.639,2.887-5.636c0.929-4.263,0.08-7.746-0.027-8.32
		c-0.108-0.573-0.595-0.933-0.984-1.229c-0.388-0.296-2.942-1.814-2.942-1.814s-3.411-1.831-4.214-2.27
		c-0.455-0.249-1.442-0.692-2.211-1.029l0.047,11.698L19.158,35.407z M21.026,32.561c-0.097-0.382,0.408-0.636,0.408-0.636
		c0.997-0.614,2.714-0.028,3.158,0.129c0.44,0.157,0.998,0.333,0.998,0.333c-0.317-0.314-1.431-1.964-1.431-1.964
		s-1.094-1.746-0.51-2.107c0.585-0.363,1.339-0.301,1.339-0.301l0.375-0.014c0,0,0.226,0.341,0.382,0.708
		c0.156,0.369-0.179,0.51-0.342,0.541c-0.164,0.03-0.537,0.093-0.537,0.093c-0.577,0.28-0.383,0.682,0.19,1.5
		c0.574,0.819,1.77,1.99,2.105,2.581c0.367,0.65-0.105,0.624-0.105,0.624s0.019,0.087-1.122-0.422
		c-1.627-0.729-2.305-0.609-2.305-0.609c0.197,0.225-0.035,0.282-0.035,0.282s-0.235-0.014-0.537,0.115
		c-0.3,0.13-0.686,0.449-1.224,0.248C21.298,33.461,21.026,32.561,21.026,32.561"/>
	<path style="fill-rule:evenodd;clip-rule:evenodd;fill:#F39320;" d="M42.818,37.631c-0.052-0.051-0.097-0.098-0.135-0.138
		c-0.059-0.06-0.118-0.119-0.176-0.179c-2.782-2.866-4.204-6.252-4.204-6.252c-3.473,1.356-7.237-1.812-7.444-1.965
		c-0.208-0.153-1-0.709-1-0.709c0.947,1.516,1.317,2.531,1.317,2.531c0.466,2.085,0.354,4.818,0.175,6.742l-0.004-0.001
		c-0.005,0.084-0.013,0.163-0.019,0.247c-0.044,0.587-0.109,1.135-0.194,1.644c-0.246,1.466-0.646,2.614-1.092,3.504
		c0.216,0.625,0.444,1.128,0.657,1.525c0.006-0.002,0.012-0.003,0.012-0.003c0.02,0.048,0.045,0.104,0.078,0.166
		c0.097,0.172,0.189,0.319,0.275,0.445c0.118,0.174,0.264,0.363,0.437,0.558c0.017,0.017,0.029,0.028,0.029,0.028v0.006
		c1.102,1.241,3.208,2.699,6.006,1.538c1.909-0.792,3.358-2.042,4.34-3.117c0.329-0.385,1.35-1.649,2.533-3.719
		c-0.002-0.011-0.004-0.019-0.004-0.019c0.053-0.084,0.107-0.173,0.16-0.26c0.151-0.268,0.303-0.554,0.456-0.847
		c-0.141-0.088-0.279-0.174-0.407-0.261c-0.012-0.008-0.022-0.015-0.033-0.022c-0.135-0.091-0.264-0.181-0.386-0.272
		c-0.011-0.008-0.021-0.016-0.032-0.024c-0.124-0.09-0.241-0.179-0.352-0.267c-0.004-0.003-0.009-0.007-0.013-0.01
		c-0.222-0.175-0.416-0.341-0.581-0.49c-0.001,0-0.001,0-0.002-0.001c-0.038-0.034-0.074-0.068-0.108-0.1
		c-0.009-0.006-0.016-0.014-0.024-0.021c-0.028-0.025-0.054-0.051-0.08-0.076c-0.008-0.008-0.015-0.014-0.022-0.021
		c-0.025-0.024-0.05-0.047-0.071-0.069c-0.008-0.007-0.014-0.013-0.021-0.019c-0.024-0.022-0.046-0.045-0.066-0.066
		C42.822,37.635,42.82,37.633,42.818,37.631 M33.269,39.016c0.412-0.194,0.896-0.317,1.548-0.484
		c0.467-0.12,1.187-0.352,1.401-0.205c0.279,0.188,0.285,0.844,0.368,1.178c0.107,0.436,0.286,0.775,0.257,1.143
		c-0.959,0.219-1.918,0.515-2.876,0.688C33.491,40.562,33.49,39.789,33.269,39.016 M41.892,40.619
		c-1.019,0.265-2.04,0.555-3.061,1.07c0.201,0.704,0.756,1.41,0.772,2.114c-0.984,0.448-1.966,0.603-2.95,0.967
		c-0.705-0.833-0.891-1.665-1.178-2.496c1.021-0.382,2.04-0.606,3.062-0.931c-0.088-0.716-0.567-1.433-0.735-2.15
		c1.057-0.552,2.115-0.878,3.173-1.104C41.427,38.934,41.719,39.776,41.892,40.619"/>
	<path style="fill-rule:evenodd;clip-rule:evenodd;fill:#51AC5F;" d="M54.923,31.239c-1.477,1.485-3.122,0.335-3.122,0.335
		l-1.088-0.648c-0.135,0.219-0.902,2.629-1.302,4.289c-0.206,0.857-0.585,1.937-1.038,3.066c0.142,0.027,0.269,0.047,0.38,0.061
		c0.169,0.013,0.34,0.025,0.506,0.03c4.324,0.111,7.831-2.863,9.191-5.164c3.933-6.659,0.352-13.113,0.352-13.113
		s-0.474-0.795-1.281-1.118c-0.806-0.323-1.621-0.622-3.41-0.282c-2.022,0.383-5.72,3.787-5.72,3.787l-4.323,4.192
		c-3.208,3.128-4.8,3.931-4.8,3.931c0.718,2.61,2.604,4.382,4.03,5.397c0.18,0.128,0.352,0.243,0.513,0.348
		c0.018,0.011,0.035,0.022,0.052,0.03c0.072,0.044,0.144,0.087,0.215,0.128c0.078,0.048,0.156,0.093,0.233,0.136
		c0.017,0.01,0.033,0.02,0.049,0.028c0.572,0.324,1.094,0.585,1.568,0.798c0.59-1.381,1.06-2.72,1.285-3.404
		c0.393-1.213,1.587-5.71,1.587-5.71l0.181-0.213l0.481,0.337c1.649,1.484,3.115,0.837,3.115,0.837
		c1.951-1.116,2.108-2.995,2.108-2.995c-1.039-0.623-1.804-0.551-1.804-0.551c-0.416-0.001-0.553-0.215-0.553-0.215l-1.311-2.016
		l-0.052-0.276l0.596-0.031c3.168,0.202,4.424,2.835,4.901,3.867C56.941,28.133,56.4,29.755,54.923,31.239"/>
	<path style="fill-rule:evenodd;clip-rule:evenodd;fill:#51AC5F;" d="M22.298,21.227c0.866,0.466,3.27,1.841,4.287,2.557
		c1.017,0.715,3.873,2.815,5.175,3.666c1.302,0.852,2.531,1.136,3.4,1.16c0.869,0.025,1.972-0.432,1.972-0.432
		c-1.378-6.308,1.352-11.319,1.352-11.319s-3.152,2.937-3.784,3.541c-0.634,0.605-3.166,3.295-3.166,3.295s-0.21,0.481-0.47,0.815
		c-0.261,0.334-0.408,0.038-0.408,0.038l-1.193-2.568c0.098-0.741,2.878-4.618,2.878-4.618c1.141-1.578,1.278-2.159,1.278-2.159
		l-0.733-0.703l-2.667-2.284l-2.732-2.223l-3.861-3.105l-4.782,0.001l0.004,13.132C20.422,20.361,21.766,20.94,22.298,21.227
		 M21.578,12.54c0,0-0.211-0.601,0.525-1.768c0,0,0.148-0.201,0.2-0.385c0.009-0.027,0.015-0.064,0.017-0.089
		c0,0-0.597-0.012-0.766,0.28c-0.17,0.291,0.049,0.776,0.049,0.776s0,0.12-0.013,0.205c0,0-0.122,0.243-0.341-0.12
		c-0.22-0.364-0.744-1.417-0.195-1.817c0.548-0.401,1.936-0.134,2.094,0.073l0.439,0.653c0,0,0.091,0.128-0.145,0.292
		c0,0-1.369,1.357-1.17,2.544c0,0,0.063,0.171,0.791,0.593c0,0,5.591,3.043,6.078,4.448c0,0-1.741-1.152-2.606-1.769
		c-0.865-0.618-3.434-1.987-3.434-1.987S21.968,13.898,21.578,12.54"/>
	<path style="fill-rule:evenodd;clip-rule:evenodd;fill:#1680C4;" d="M60.61,6.886L38.708,6.889
		c1.586,1.355,2.879,2.508,2.879,2.508l1.787-1.866c0.316-0.351,0.497,0.224,0.497,0.224l0.821,2.324
		c0.052,0.306-0.011,0.423-0.011,0.423c-0.352,0.438-0.658,1.014-0.658,1.014s0.817,0.711,2.3,2.558
		c1.652,2.054,2.463,3.922,2.463,3.922c3.267-2.837,6.605-2.657,8.573-1.13c1.278,0.991,2.386,2.36,3.254,4.087L60.61,6.886z
		 M53.263,14.109c-1.295,0.38-2.831-0.568-4.9-5.311l0.236,0.143c0,0,1.715,2.795,2.27,3.374c0.555,0.577,1.939,1.108,2.262,0.008
		c0,0-0.04-0.26-0.264-0.575c-0.224-0.315-0.238-0.453-0.125-0.577c0.112-0.124,0.961,0.613,1.081,0.852l0.122,0.242
		C53.944,12.264,54.557,13.731,53.263,14.109"/>
	<path style="fill-rule:evenodd;clip-rule:evenodd;fill:#E94838;" d="M30.831,46.249l-0.004-0.004
		c-0.01-0.017-0.019-0.033-0.03-0.05c-0.172-0.29-0.265-0.473-0.265-0.473c-0.007-0.022-0.102-0.193-0.107-0.214
		c-0.286-0.59-0.523-1.29-0.639-1.985c-0.307,0.51-0.733,1.114-1.101,1.493c-0.026,0.025-0.051,0.051-0.074,0.075
		c-0.015,0.014-0.028,0.025-0.042,0.039c-1.303,1.246-3.01,1.668-4.917,0.346c-2.844-1.972-4.261-6.918-4.797-9.299l0.004,12.417
		l13.875-0.001C31.825,47.761,31.179,46.821,30.831,46.249"/>
	<path style="fill-rule:evenodd;clip-rule:evenodd;fill:#07917B;" d="M60.619,35.135c-1.004,1.802-2.06,2.777-2.06,2.777
		c-4.289,4.069-8.836,3.344-10.978,2.657c-0.035-0.012-0.07-0.024-0.107-0.036c-0.015-0.006-0.031-0.011-0.047-0.017
		c-0.067,0.149-0.14,0.305-0.216,0.469c-0.063,0.148-0.115,0.259-0.144,0.324c-0.003-0.001-0.005,0-0.008-0.001
		c-0.601,1.249-1.444,2.818-2.437,4.181c-0.861,1.212-1.869,2.281-3.004,3.104l5.673-0.001c-0.001,0-0.001-0.002-0.002-0.003h3.615
		c0,0.001,0.001,0.003,0.001,0.003l9.718-0.001L60.619,35.135z M54.737,46.818c-0.984,0.448-1.966,0.603-2.95,0.966
		c-0.705-0.833-0.892-1.665-1.178-2.495c1.021-0.382,2.04-0.606,3.062-0.932c-0.088-0.716-0.568-1.433-0.735-2.149
		c1.058-0.553,2.115-0.878,3.173-1.105c0.452,0.844,0.745,1.688,0.918,2.53c-1.02,0.264-2.042,0.555-3.062,1.07
		C54.166,45.41,54.721,46.114,54.737,46.818"/>
	<path style="fill-rule:evenodd;clip-rule:evenodd;fill:#07917B;" d="M58.82,46.253h-1.87h-1.766v1.851v6.501h-1.938v-3.847h-1.87
		v3.847h-1.938v-2.125v-1.722h-1.802H42.27h-1.698v1.722v2.125h-1.939v-3.847h-1.835v3.847h-1.904v-2.125v-1.722h-1.732h-1.903
		h-1.697v1.722v2.125h-1.698v-3.847h-1.801v3.847h-1.801v-2.125v-1.722h-1.8h-1.87h-1.735v1.722v2.125v1.757v2.355v1.688h1.735
		h3.709v-1.688h-3.709v-2.355h1.87h1.8h1.801h1.801h1.698h1.697h1.903h1.732h1.904h1.835h1.939h1.698h5.366h1.802h1.938h1.87h1.938
		h1.766v-1.757v-6.501h1.87v10.612H33.178v1.688H58.82h1.804v-1.688V48.103v-1.851H58.82z M20.593,52.479h1.871v2.125h-1.871V52.479
		z M31.259,52.479h1.904v2.125h-1.904V52.479z M42.27,52.479h5.366v2.125H42.27V52.479z"/>
	<rect x="29.523" y="58.716" style="fill-rule:evenodd;clip-rule:evenodd;fill:#07917B;" width="1.793" height="1.688"/>
	<rect x="25.999" y="58.716" style="fill-rule:evenodd;clip-rule:evenodd;fill:#07917B;" width="1.904" height="1.688"/>
	<path style="fill:#07917B;" d="M12.131,81.22v5.598h-1.098v-3.094l0.032-1.001l-0.074-0.009c-0.114,0.328-0.193,0.537-0.235,0.624
		l-1.578,3.308h-0.48l-1.578-3.308l-0.235-0.624l-0.085,0.009c0.028,0.47,0.043,0.804,0.043,1.001v3.094H5.743V81.22h1.354
		l1.567,3.267l0.257,0.615h0.042c0.078-0.224,0.164-0.429,0.256-0.615l1.557-3.267H12.131z"/>
	<path style="fill:#07917B;" d="M15.799,81.121c1.543,0,2.314,0.908,2.314,2.725V84.2c0,1.811-0.772,2.717-2.314,2.717h-0.128
		c-1.529,0-2.292-0.906-2.292-2.717v-0.353c0-1.817,0.764-2.725,2.292-2.725H15.799z M16.972,83.797
		c0-0.673-0.098-1.167-0.294-1.481c-0.195-0.315-0.502-0.472-0.922-0.472h-0.032c-0.427,0-0.739,0.156-0.933,0.468
		c-0.195,0.312-0.293,0.808-0.293,1.486v0.443c0,0.673,0.098,1.169,0.293,1.486c0.195,0.317,0.507,0.476,0.933,0.476h0.032
		c0.426,0,0.736-0.157,0.927-0.472c0.193-0.315,0.289-0.811,0.289-1.49V83.797z"/>
	<path style="fill:#07917B;" d="M19.35,81.22h2.111c0.79,0,1.406,0.184,1.851,0.554c0.444,0.369,0.666,0.928,0.666,1.678v1.412
		c0,0.635-0.189,1.12-0.565,1.453c-0.377,0.334-0.918,0.501-1.622,0.501H19.35V81.22z M20.448,81.942v4.154h1.12
		c0.434,0,0.76-0.11,0.981-0.329c0.221-0.218,0.331-0.588,0.331-1.108v-1.174c0-0.563-0.135-0.961-0.404-1.194
		c-0.271-0.233-0.665-0.349-1.184-0.349H20.448z"/>
	<polygon style="fill:#07917B;" points="25.225,81.22 28.639,81.22 28.639,81.942 26.324,81.942 26.324,83.592 28.307,83.592 
		28.307,84.232 26.324,84.232 26.324,86.096 28.755,86.096 28.755,86.817 25.225,86.817 	"/>
	<path style="fill:#07917B;" d="M34.077,83.001c0,0.696-0.38,1.153-1.142,1.371v0.024c0.1,0.061,0.196,0.189,0.288,0.386
		l1.045,2.036h-1.182l-1.09-2.085c-0.07-0.137-0.206-0.205-0.404-0.205h-0.821v2.29h-1.098V81.22h1.983
		c1.614,0,2.421,0.555,2.421,1.666V83.001z M30.771,81.942v1.954h0.895c0.874,0,1.312-0.29,1.312-0.87v-0.082
		c0-0.367-0.112-0.625-0.336-0.776c-0.224-0.15-0.589-0.226-1.093-0.226H30.771z"/>
	<path style="fill:#07917B;" d="M36.604,83.083l-0.203-0.377l-0.064,0.008l0.054,0.607v3.497h-1.098V81.22h1.13l2.645,3.751
		c0.029,0.038,0.059,0.088,0.091,0.148c0.031,0.06,0.056,0.112,0.069,0.156l0.033,0.057l0.063-0.008l-0.043-0.607V81.22h1.1v5.597
		H39.26L36.604,83.083z"/>
	<path style="fill:#07917B;" d="M43.739,81.22h2.11c0.791,0,1.407,0.184,1.85,0.554c0.444,0.369,0.667,0.928,0.667,1.678v1.412
		c0,0.635-0.188,1.12-0.566,1.453c-0.376,0.334-0.916,0.501-1.62,0.501h-2.441V81.22z M44.837,81.942v4.154h1.118
		c0.434,0,0.761-0.11,0.983-0.329c0.219-0.218,0.329-0.588,0.329-1.108v-1.174c0-0.563-0.134-0.961-0.404-1.194
		c-0.27-0.233-0.664-0.349-1.184-0.349H44.837z"/>
	<polygon style="fill:#07917B;" points="49.614,81.22 53.026,81.22 53.026,81.942 50.712,81.942 50.712,83.592 52.695,83.592 
		52.695,84.232 50.712,84.232 50.712,86.096 53.143,86.096 53.143,86.817 49.614,86.817 	"/>
	<path style="fill:#07917B;" d="M54.07,86.777l-0.032-0.673l0.149-0.049c0.434,0.099,0.895,0.148,1.386,0.148
		c0.932,0,1.397-0.323,1.397-0.969c0-0.394-0.309-0.67-0.928-0.829l-0.799-0.213c-0.946-0.252-1.419-0.733-1.419-1.444
		c0-0.509,0.198-0.908,0.597-1.194c0.398-0.288,0.991-0.431,1.781-0.431c0.198,0,0.411,0.008,0.639,0.025
		c0.228,0.016,0.405,0.036,0.534,0.057l0.181,0.025l-0.075,0.656l-0.118,0.058c-0.362-0.065-0.731-0.098-1.109-0.098
		c-0.881,0-1.322,0.287-1.322,0.862c0,0.203,0.054,0.366,0.166,0.489c0.109,0.123,0.303,0.223,0.581,0.299l0.788,0.213
		c1.067,0.279,1.599,0.775,1.599,1.486c0,1.149-0.807,1.724-2.42,1.724C55.081,86.917,54.554,86.869,54.07,86.777"/>
	<rect x="59.276" y="81.22" style="fill:#07917B;" width="1.098" height="5.598"/>
	<path style="fill:#07917B;" d="M64.149,86.202c0.313,0,0.629-0.093,0.949-0.279v-2.159h1.098v3.053h-0.608l-0.16-0.344
		c-0.435,0.296-0.927,0.443-1.482,0.443c-1.543,0-2.313-0.895-2.313-2.684v-0.296c0-1.018,0.239-1.741,0.719-2.171
		c0.48-0.429,1.193-0.644,2.138-0.644c0.214,0,0.445,0.014,0.693,0.041c0.249,0.028,0.444,0.052,0.586,0.074l0.225,0.041
		l-0.096,0.648l-0.106,0.041c-0.477-0.082-0.878-0.123-1.205-0.123c-0.654,0-1.124,0.157-1.407,0.468
		c-0.285,0.312-0.427,0.87-0.427,1.675v0.262c0,0.739,0.119,1.249,0.358,1.531C63.346,86.061,63.693,86.202,64.149,86.202"/>
	<path style="fill:#07917B;" d="M68.712,83.083l-0.203-0.377l-0.064,0.008l0.054,0.607v3.497H67.4V81.22h1.131l2.644,3.751
		c0.029,0.038,0.059,0.088,0.091,0.148c0.032,0.06,0.054,0.112,0.069,0.156l0.032,0.057l0.064-0.008l-0.043-0.607V81.22h1.098v5.597
		h-1.119L68.712,83.083z"/>
	<path style="fill:#FFFFFF;" d="M9.36,70.002c0.184,0,0.339-0.061,0.461-0.182c0.123-0.122,0.183-0.273,0.183-0.462
		c0-0.189-0.06-0.34-0.185-0.465c-0.243-0.23-0.67-0.233-0.919,0.003c-0.122,0.122-0.187,0.282-0.187,0.462
		c0,0.18,0.065,0.341,0.187,0.462C9.021,69.94,9.176,70.002,9.36,70.002"/>
	<path style="fill:#FFFFFF;" d="M10.016,68.313c0.171,0,0.316-0.056,0.428-0.168c0.112-0.111,0.169-0.256,0.169-0.429
		c0-0.175-0.057-0.319-0.171-0.433c-0.222-0.209-0.617-0.216-0.848,0.002c-0.114,0.113-0.174,0.262-0.174,0.431
		c0,0.177,0.06,0.322,0.174,0.429C9.707,68.258,9.845,68.313,10.016,68.313"/>
	<path style="fill:#FFFFFF;" d="M10.64,69.566c0.122,0.121,0.275,0.182,0.455,0.182c0.185,0,0.339-0.061,0.46-0.182
		c0.123-0.121,0.188-0.281,0.188-0.462c0-0.181-0.065-0.341-0.19-0.464c-0.243-0.231-0.662-0.236-0.913,0.002
		c-0.122,0.122-0.187,0.282-0.187,0.463C10.454,69.29,10.518,69.451,10.64,69.566"/>
	<path style="fill:#FFFFFF;" d="M18.926,74.01c-0.012-0.117-0.016-0.215-0.02-0.291l-0.008-0.196
		c-0.003-0.094-0.005-0.167-0.005-0.217v-3.965l-1.141,0.107v3.657c0.002,0.235,0.016,0.447,0.039,0.624h-2.794
		c-0.005-0.088-0.008-0.191-0.008-0.317v-4.072l-1.142,0.107v3.655c0,0.244,0.012,0.453,0.033,0.627h-3.439
		c-0.292,0-0.532,0-0.718-0.005c-0.309-0.005-0.595-0.018-0.862-0.032c-0.299-0.018-0.601-0.046-0.897-0.083
		c-0.273-0.034-0.544-0.087-0.796-0.155C7.1,73.432,7.03,73.409,6.949,73.38c-0.09-0.028-0.184-0.057-0.283-0.084
		c-0.063-0.018-0.152-0.05-0.261-0.088l-0.209-0.083l-0.232-0.01l-0.22,0.925l0.097,0.045c0.063,0.03,0.186,0.074,0.367,0.139
		l0.073,0.026c0.181,0.069,0.357,0.123,0.536,0.162c0.326,0.081,0.66,0.145,0.992,0.192c0.341,0.049,0.631,0.082,0.913,0.103
		c0.276,0.02,0.559,0.033,0.866,0.037c0.192,0.005,0.476,0.005,0.854,0.005h6.569c0.401,0,0.764-0.019,1.079-0.056
		c0.329-0.04,0.584-0.098,0.779-0.18l0.061-0.026l0.041-0.174l-0.008-0.03C18.947,74.211,18.935,74.12,18.926,74.01"/>
	<path style="fill:#FFFFFF;" d="M17.763,75.405c-0.122,0.123-0.187,0.283-0.187,0.462c0,0.186,0.064,0.341,0.187,0.458
		c0.121,0.12,0.274,0.182,0.456,0.182c0.184,0,0.338-0.062,0.457-0.18c0.126-0.119,0.189-0.274,0.189-0.46
		c0-0.18-0.064-0.34-0.187-0.462C18.438,75.166,18.008,75.162,17.763,75.405"/>
	<path style="fill:#FFFFFF;" d="M15.97,75.698c-0.123,0.123-0.187,0.282-0.187,0.462c0,0.186,0.064,0.341,0.187,0.457
		c0.121,0.121,0.276,0.182,0.461,0.182c0.184,0,0.339-0.061,0.458-0.179c0.126-0.119,0.189-0.274,0.189-0.46
		c0-0.18-0.064-0.341-0.187-0.462C16.648,75.458,16.213,75.457,15.97,75.698"/>
	<path style="fill:#FFFFFF;" d="M31.528,73.689c-0.085-0.027-0.205-0.095-0.357-0.203c-0.157-0.112-0.353-0.28-0.586-0.502
		c-0.183-0.171-0.388-0.388-0.613-0.647c0.019,0.001,0.036,0.001,0.049,0.001c0.326,0,0.62-0.046,0.875-0.136
		c0.271-0.094,0.506-0.249,0.698-0.46c0.194-0.207,0.345-0.484,0.448-0.823c0.102-0.34,0.154-0.75,0.154-1.22v-2.372l-1.141,0.106
		v2.589c0,0.219-0.008,0.435-0.023,0.641c-0.011,0.144-0.03,0.281-0.057,0.407c-0.152,0.116-0.295,0.189-0.425,0.22
		c-0.14,0.037-0.296,0.056-0.463,0.056c-0.219,0-0.401-0.011-0.559-0.032c-0.16-0.02-0.317-0.066-0.478-0.14
		c-0.183-0.246-0.375-0.513-0.577-0.803c-0.194-0.271-0.424-0.607-0.68-0.998l-0.039-0.059h-0.195l-0.742,0.563l0.07,0.103
		c0.682,0.998,1.311,1.851,1.869,2.535c0.418,0.514,0.808,0.921,1.164,1.214h-4.429c0.064-0.113,0.114-0.232,0.149-0.358
		c0.056-0.209,0.084-0.421,0.084-0.629c0-0.345-0.1-0.665-0.298-0.952c-0.191-0.274-0.43-0.504-0.706-0.684
		c-0.122-0.084-0.286-0.192-0.498-0.323c-0.17-0.105-0.336-0.215-0.506-0.328c-0.184-0.115-0.4-0.261-0.625-0.425
		c-0.267-0.189-0.547-0.399-0.829-0.624l-0.036-0.029h-0.188l-0.586,0.82l0.087,0.078c0.157,0.141,0.297,0.256,0.428,0.35
		l0.446,0.326c0.293,0.2,0.601,0.391,0.911,0.568c0.328,0.195,0.683,0.357,1.055,0.483c0.091,0.139,0.152,0.269,0.184,0.391
		c0.036,0.143,0.053,0.286,0.053,0.427c0,0.138-0.02,0.254-0.064,0.357c-0.042,0.101-0.123,0.191-0.245,0.268
		c-0.127,0.086-0.314,0.154-0.557,0.203c-0.25,0.053-0.583,0.08-0.989,0.08h-2.238l-0.317,0.764L20.19,74.75h12.366l0.268-0.767
		l0.008-0.253h-1.139C31.671,73.73,31.615,73.719,31.528,73.689"/>
	<path style="fill:#FFFFFF;" d="M34.021,67.405v7.344h1.137v-6.191c0-0.058,0.002-0.144,0.006-0.254l0.003-0.12
		c0.005-0.13,0.013-0.246,0.028-0.364c0.009-0.109,0.021-0.205,0.039-0.288l0.006-0.033l-0.064-0.209L34.021,67.405z"/>
	<path style="fill:#FFFFFF;" d="M45.953,75.625c-0.123,0.123-0.187,0.282-0.187,0.462c0,0.186,0.063,0.341,0.187,0.458
		c0.122,0.121,0.274,0.182,0.455,0.182c0.184,0,0.339-0.061,0.459-0.18c0.125-0.119,0.189-0.274,0.189-0.46
		c0-0.18-0.064-0.34-0.187-0.462C46.629,75.387,46.198,75.383,45.953,75.625"/>
	<path style="fill:#FFFFFF;" d="M44.188,75.698c-0.123,0.123-0.187,0.282-0.187,0.462c0,0.186,0.064,0.341,0.187,0.457
		c0.121,0.121,0.274,0.182,0.455,0.182c0.184,0,0.339-0.061,0.459-0.179c0.125-0.119,0.189-0.274,0.189-0.46
		c0-0.18-0.064-0.341-0.187-0.462C44.863,75.46,44.433,75.456,44.188,75.698"/>
	<path style="fill:#FFFFFF;" d="M64.971,68.815c0.184,0,0.338-0.061,0.46-0.182c0.123-0.122,0.183-0.273,0.183-0.462
		c0-0.189-0.06-0.341-0.183-0.463c-0.243-0.241-0.679-0.241-0.921,0c-0.123,0.122-0.187,0.282-0.187,0.463
		c0,0.18,0.064,0.34,0.187,0.462C64.632,68.754,64.788,68.815,64.971,68.815"/>
	<path style="fill:#FFFFFF;" d="M66.597,68.558c0.185,0,0.339-0.062,0.461-0.182c0.123-0.122,0.187-0.281,0.187-0.462
		c0-0.18-0.064-0.341-0.189-0.464c-0.243-0.231-0.67-0.232-0.918,0.002c-0.122,0.122-0.187,0.281-0.187,0.462
		c0,0.18,0.064,0.341,0.187,0.462C66.259,68.496,66.414,68.558,66.597,68.558"/>
	<path style="fill:#FFFFFF;" d="M69.845,74.006c-0.013-0.112-0.022-0.229-0.028-0.343l-0.004-0.14
		c-0.003-0.094-0.004-0.167-0.004-0.217v-6.006l-1.137,0.106v5.696c0,0.244,0.011,0.453,0.033,0.626h-1.72
		c-0.005-0.088-0.008-0.191-0.008-0.317v-4.071l-1.136,0.107v3.654c0,0.244,0.011,0.453,0.033,0.626h-2.512
		c0.056-0.097,0.098-0.198,0.128-0.306c0.054-0.176,0.081-0.378,0.081-0.62c0-0.193-0.035-0.387-0.106-0.595
		c-0.073-0.196-0.162-0.381-0.271-0.568c-0.109-0.177-0.227-0.342-0.366-0.508c-0.145-0.165-0.27-0.296-0.396-0.411l-0.028-0.025
		l-0.162-0.032l-0.032,0.009c-0.18,0.054-0.411,0.095-0.729,0.13c-0.308,0.037-0.614,0.054-0.937,0.054H56.8v-0.619l-1.142,0.112
		v2.756c0.004,0.235,0.017,0.447,0.039,0.624h-1.335c-0.195,0-0.377-0.076-0.546-0.226c-0.18-0.159-0.355-0.396-0.517-0.707
		c-0.168-0.314-0.326-0.696-0.47-1.136c-0.156-0.448-0.304-0.946-0.442-1.482l-0.013-0.051l-0.217-0.136h-0.037
		c-0.431,0-0.878,0.06-1.331,0.18c-0.438,0.12-0.84,0.3-1.195,0.536c-0.351,0.238-0.644,0.544-0.875,0.908
		c-0.225,0.37-0.339,0.806-0.339,1.296c0,0.291,0.05,0.564,0.147,0.816h-1.43c-0.004-0.088-0.008-0.191-0.008-0.317v-4.071
		l-1.141,0.107v3.657c0.003,0.235,0.016,0.447,0.039,0.624h-2.163c-0.194,0-0.376-0.076-0.544-0.226
		c-0.181-0.159-0.355-0.396-0.518-0.707c-0.169-0.314-0.329-0.695-0.474-1.135c-0.147-0.433-0.29-0.919-0.438-1.483l-0.013-0.052
		l-0.222-0.134h-0.037c-0.428,0-0.873,0.06-1.325,0.18c-0.441,0.121-0.833,0.295-1.199,0.535c-0.359,0.242-0.653,0.547-0.87,0.909
		c-0.226,0.37-0.339,0.806-0.339,1.296c0,0.446,0.099,0.823,0.298,1.122l-1.287,2.069v0.243h1.182l0.847-1.621
		c0.186,0.098,0.392,0.169,0.613,0.215c0.286,0.055,0.571,0.07,0.853,0.047c0.293-0.023,0.594-0.085,0.923-0.191
		c0.302-0.101,0.604-0.244,0.926-0.437l0.056-0.033l0.028-0.229c0.166,0.171,0.348,0.311,0.543,0.417
		c0.225,0.122,0.487,0.196,0.78,0.221l5.878,0.012c0.438,0.209,0.95,0.287,1.509,0.231c0.555-0.051,1.129-0.252,1.708-0.596
		c0.096-0.016,0.108-0.113,0.124-0.254l0.004-0.027c0.163,0.168,0.343,0.307,0.537,0.414c0.222,0.12,0.48,0.194,0.77,0.219
		l13.795,0.013c0.41,0,0.765-0.018,1.083-0.056c0.331-0.04,0.585-0.098,0.779-0.18l0.062-0.026l0.041-0.173l-0.008-0.03
		C69.867,74.211,69.855,74.12,69.845,74.006 M61.398,71.849c0.209-0.013,0.391-0.04,0.541-0.082
		c0.047,0.043,0.091,0.088,0.136,0.138c0.059,0.067,0.121,0.159,0.175,0.242c0.048,0.085,0.093,0.182,0.128,0.284
		c0.033,0.103,0.05,0.205,0.05,0.311c0,0.221-0.037,0.388-0.111,0.509c-0.078,0.127-0.183,0.224-0.314,0.289
		c-0.142,0.073-0.312,0.123-0.504,0.148c-0.211,0.027-0.435,0.04-0.685,0.04h-4.006c-0.005-0.088-0.008-0.191-0.008-0.317v-1.541
		h3.805C60.868,71.872,61.13,71.863,61.398,71.849 M51.929,73.691c-0.212,0.079-0.432,0.138-0.651,0.174
		c-0.234,0.036-0.454,0.049-0.66,0.036c-0.21-0.013-0.391-0.058-0.554-0.139c-0.157-0.077-0.281-0.193-0.37-0.346
		c-0.097-0.163-0.145-0.367-0.145-0.621c0-0.151,0.036-0.311,0.107-0.478c0.067-0.167,0.183-0.332,0.342-0.492
		c0.162-0.16,0.377-0.309,0.64-0.443c0.239-0.122,0.528-0.217,0.861-0.284c0.125,0.46,0.262,0.907,0.407,1.332
		c0.135,0.391,0.294,0.748,0.476,1.062C52.243,73.563,52.091,73.63,51.929,73.691 M41.39,73.691
		c-0.214,0.08-0.435,0.138-0.657,0.174c-0.233,0.037-0.45,0.049-0.654,0.036c-0.21-0.013-0.391-0.058-0.555-0.139
		c-0.156-0.076-0.277-0.189-0.371-0.346c-0.097-0.163-0.144-0.367-0.144-0.621c0-0.151,0.036-0.311,0.106-0.476
		c0.074-0.178,0.188-0.344,0.338-0.493c0.161-0.16,0.372-0.304,0.645-0.443c0.238-0.122,0.527-0.217,0.86-0.284
		c0.125,0.46,0.262,0.907,0.407,1.332c0.133,0.391,0.294,0.748,0.476,1.062C41.705,73.562,41.553,73.63,41.39,73.691"/>
	<path style="fill:#FFFFFF;" d="M72.421,67.29l-1.154,0.115v7.344h1.136v-6.191c0-0.058,0.003-0.144,0.006-0.254l0.003-0.12
		c0.006-0.13,0.014-0.247,0.028-0.364c0.01-0.109,0.022-0.205,0.04-0.288l0.007-0.034L72.421,67.29z"/>
</g>
</svg>
